<mxfile host="Electron" agent="Mozilla/5.0 (Windows NT 10.0; Win64; x64) AppleWebKit/537.36 (KHTML, like Gecko) draw.io/24.7.17 Chrome/128.0.6613.36 Electron/32.0.1 Safari/537.36" version="24.7.17" pages="15">
  <diagram name="BlueprintV1vsV2" id="74b105a0-9070-1c63-61bc-23e55f88626e">
    <mxGraphModel dx="1566" dy="1112" grid="1" gridSize="10" guides="1" tooltips="1" connect="1" arrows="1" fold="1" page="1" pageScale="1.5" pageWidth="1169" pageHeight="826" background="none" math="0" shadow="0">
      <root>
        <mxCell id="0" style=";html=1;" />
        <mxCell id="1" style=";html=1;" parent="0" />
        <mxCell id="bloLvvBlxNtnKp39aOBl-8" style="edgeStyle=orthogonalEdgeStyle;rounded=0;orthogonalLoop=1;jettySize=auto;html=1;exitX=1;exitY=0.5;exitDx=0;exitDy=0;entryX=0;entryY=0.5;entryDx=0;entryDy=0;strokeWidth=2;" parent="1" source="bloLvvBlxNtnKp39aOBl-1" target="bloLvvBlxNtnKp39aOBl-2" edge="1">
          <mxGeometry relative="1" as="geometry" />
        </mxCell>
        <mxCell id="bloLvvBlxNtnKp39aOBl-9" style="edgeStyle=orthogonalEdgeStyle;rounded=0;orthogonalLoop=1;jettySize=auto;html=1;exitX=1;exitY=0.5;exitDx=0;exitDy=0;entryX=0;entryY=0.5;entryDx=0;entryDy=0;strokeWidth=2;" parent="1" source="bloLvvBlxNtnKp39aOBl-1" target="bloLvvBlxNtnKp39aOBl-3" edge="1">
          <mxGeometry relative="1" as="geometry" />
        </mxCell>
        <mxCell id="bloLvvBlxNtnKp39aOBl-1" value="&lt;b&gt;&lt;font style=&quot;font-size: 24px;&quot;&gt;NFVCL&lt;/font&gt;&lt;/b&gt;" style="rounded=1;whiteSpace=wrap;html=1;strokeWidth=2;fillColor=#e1d5e7;strokeColor=#9673a6;" parent="1" vertex="1">
          <mxGeometry x="330" y="210" width="150" height="100" as="geometry" />
        </mxCell>
        <mxCell id="bloLvvBlxNtnKp39aOBl-5" style="edgeStyle=orthogonalEdgeStyle;rounded=0;orthogonalLoop=1;jettySize=auto;html=1;exitX=1;exitY=0.5;exitDx=0;exitDy=0;entryX=0;entryY=0.5;entryDx=0;entryDy=0;strokeWidth=2;" parent="1" source="bloLvvBlxNtnKp39aOBl-2" target="bloLvvBlxNtnKp39aOBl-4" edge="1">
          <mxGeometry relative="1" as="geometry" />
        </mxCell>
        <mxCell id="bloLvvBlxNtnKp39aOBl-2" value="&lt;b style=&quot;font-size: 19px;&quot;&gt;&lt;font style=&quot;font-size: 19px;&quot;&gt;Blueprint V1&lt;/font&gt;&lt;/b&gt;&lt;div style=&quot;font-size: 19px;&quot;&gt;&lt;b style=&quot;&quot;&gt;&lt;font style=&quot;font-size: 19px;&quot;&gt;DEPRECATED&lt;/font&gt;&lt;/b&gt;&lt;/div&gt;" style="rounded=1;whiteSpace=wrap;html=1;strokeWidth=2;fillColor=#dae8fc;strokeColor=#6c8ebf;" parent="1" vertex="1">
          <mxGeometry x="560" y="120" width="250" height="100" as="geometry" />
        </mxCell>
        <mxCell id="bloLvvBlxNtnKp39aOBl-17" value="" style="edgeStyle=orthogonalEdgeStyle;rounded=0;orthogonalLoop=1;jettySize=auto;html=1;strokeWidth=2;" parent="1" source="bloLvvBlxNtnKp39aOBl-3" target="bloLvvBlxNtnKp39aOBl-16" edge="1">
          <mxGeometry relative="1" as="geometry" />
        </mxCell>
        <mxCell id="bloLvvBlxNtnKp39aOBl-3" value="&lt;font style=&quot;font-size: 19px;&quot;&gt;&lt;b&gt;Blueprint V2&lt;/b&gt;&lt;/font&gt;" style="rounded=1;whiteSpace=wrap;html=1;strokeWidth=2;fillColor=#A1C3FC;strokeColor=#6c8ebf;" parent="1" vertex="1">
          <mxGeometry x="560" y="300" width="250" height="100" as="geometry" />
        </mxCell>
        <mxCell id="bloLvvBlxNtnKp39aOBl-13" style="edgeStyle=orthogonalEdgeStyle;rounded=0;orthogonalLoop=1;jettySize=auto;html=1;exitX=1;exitY=0.5;exitDx=0;exitDy=0;entryX=0;entryY=0.5;entryDx=0;entryDy=0;strokeWidth=2;fillColor=#ffe6cc;strokeColor=#d79b00;" parent="1" source="bloLvvBlxNtnKp39aOBl-4" target="bloLvvBlxNtnKp39aOBl-6" edge="1">
          <mxGeometry relative="1" as="geometry" />
        </mxCell>
        <mxCell id="bloLvvBlxNtnKp39aOBl-14" style="edgeStyle=orthogonalEdgeStyle;rounded=0;orthogonalLoop=1;jettySize=auto;html=1;exitX=1;exitY=0.5;exitDx=0;exitDy=0;entryX=0;entryY=0.5;entryDx=0;entryDy=0;strokeWidth=2;fillColor=#ffe6cc;strokeColor=#d79b00;" parent="1" source="bloLvvBlxNtnKp39aOBl-4" target="bloLvvBlxNtnKp39aOBl-12" edge="1">
          <mxGeometry relative="1" as="geometry" />
        </mxCell>
        <mxCell id="bloLvvBlxNtnKp39aOBl-4" value="&lt;b&gt;&lt;font style=&quot;font-size: 21px;&quot;&gt;OSM&lt;/font&gt;&lt;/b&gt;" style="rounded=1;whiteSpace=wrap;html=1;fillColor=#ffe6cc;strokeColor=#d79b00;strokeWidth=2;" parent="1" vertex="1">
          <mxGeometry x="880" y="125" width="130" height="90" as="geometry" />
        </mxCell>
        <mxCell id="bloLvvBlxNtnKp39aOBl-6" value="&lt;b&gt;&lt;font style=&quot;font-size: 19px;&quot;&gt;Openstack&lt;/font&gt;&lt;/b&gt;" style="rounded=1;whiteSpace=wrap;html=1;strokeWidth=2;fillColor=#f5f5f5;strokeColor=#666666;fontColor=#333333;" parent="1" vertex="1">
          <mxGeometry x="1160" y="60" width="150" height="95" as="geometry" />
        </mxCell>
        <mxCell id="bloLvvBlxNtnKp39aOBl-7" value="&lt;font style=&quot;font-size: 19px;&quot;&gt;&lt;b&gt;Proxmox&lt;/b&gt;&lt;/font&gt;" style="rounded=1;whiteSpace=wrap;html=1;strokeWidth=2;fillColor=#f5f5f5;strokeColor=#666666;fontColor=#333333;" parent="1" vertex="1">
          <mxGeometry x="1160" y="270" width="150" height="100" as="geometry" />
        </mxCell>
        <mxCell id="bloLvvBlxNtnKp39aOBl-12" value="&lt;b&gt;&lt;font style=&quot;font-size: 19px;&quot;&gt;K8S&lt;/font&gt;&lt;/b&gt;" style="rounded=1;whiteSpace=wrap;html=1;strokeWidth=2;fillColor=#f5f5f5;strokeColor=#666666;fontColor=#333333;" parent="1" vertex="1">
          <mxGeometry x="1160" y="165" width="150" height="95" as="geometry" />
        </mxCell>
        <mxCell id="bloLvvBlxNtnKp39aOBl-21" style="edgeStyle=orthogonalEdgeStyle;rounded=0;orthogonalLoop=1;jettySize=auto;html=1;exitX=1;exitY=0.5;exitDx=0;exitDy=0;entryX=0;entryY=0.5;entryDx=0;entryDy=0;strokeWidth=2;fillColor=#d5e8d4;strokeColor=#82b366;" parent="1" source="bloLvvBlxNtnKp39aOBl-16" target="bloLvvBlxNtnKp39aOBl-7" edge="1">
          <mxGeometry relative="1" as="geometry">
            <Array as="points">
              <mxPoint x="1110" y="350" />
              <mxPoint x="1110" y="320" />
            </Array>
          </mxGeometry>
        </mxCell>
        <mxCell id="bloLvvBlxNtnKp39aOBl-22" style="edgeStyle=orthogonalEdgeStyle;rounded=0;orthogonalLoop=1;jettySize=auto;html=1;exitX=1;exitY=0.5;exitDx=0;exitDy=0;entryX=0;entryY=0.75;entryDx=0;entryDy=0;strokeWidth=2;fillColor=#d5e8d4;strokeColor=#82b366;" parent="1" source="bloLvvBlxNtnKp39aOBl-16" target="bloLvvBlxNtnKp39aOBl-12" edge="1">
          <mxGeometry relative="1" as="geometry">
            <Array as="points">
              <mxPoint x="1110" y="350" />
              <mxPoint x="1110" y="236" />
            </Array>
          </mxGeometry>
        </mxCell>
        <mxCell id="bloLvvBlxNtnKp39aOBl-23" style="edgeStyle=orthogonalEdgeStyle;rounded=0;orthogonalLoop=1;jettySize=auto;html=1;exitX=1;exitY=0.5;exitDx=0;exitDy=0;entryX=0;entryY=0.75;entryDx=0;entryDy=0;strokeWidth=2;fillColor=#d5e8d4;strokeColor=#82b366;" parent="1" source="bloLvvBlxNtnKp39aOBl-16" target="bloLvvBlxNtnKp39aOBl-6" edge="1">
          <mxGeometry relative="1" as="geometry">
            <Array as="points">
              <mxPoint x="1110" y="350" />
              <mxPoint x="1110" y="131" />
            </Array>
          </mxGeometry>
        </mxCell>
        <mxCell id="bloLvvBlxNtnKp39aOBl-25" style="edgeStyle=orthogonalEdgeStyle;rounded=0;orthogonalLoop=1;jettySize=auto;html=1;exitX=1;exitY=0.5;exitDx=0;exitDy=0;entryX=0;entryY=0.5;entryDx=0;entryDy=0;strokeWidth=2;fillColor=#d5e8d4;strokeColor=#82b366;" parent="1" source="bloLvvBlxNtnKp39aOBl-16" target="bloLvvBlxNtnKp39aOBl-24" edge="1">
          <mxGeometry relative="1" as="geometry">
            <Array as="points">
              <mxPoint x="1110" y="350" />
              <mxPoint x="1110" y="440" />
            </Array>
          </mxGeometry>
        </mxCell>
        <mxCell id="bloLvvBlxNtnKp39aOBl-16" value="&lt;font style=&quot;font-size: 19px;&quot;&gt;&lt;b&gt;Provider&lt;/b&gt;&lt;/font&gt;&lt;div&gt;&lt;font style=&quot;font-size: 19px;&quot;&gt;&lt;b&gt;Adapter&lt;/b&gt;&lt;/font&gt;&lt;/div&gt;" style="rounded=1;whiteSpace=wrap;html=1;strokeWidth=2;fillColor=#d5e8d4;strokeColor=#82b366;" parent="1" vertex="1">
          <mxGeometry x="870" y="300" width="103" height="100" as="geometry" />
        </mxCell>
        <mxCell id="bloLvvBlxNtnKp39aOBl-24" value="&lt;font style=&quot;font-size: 19px;&quot;&gt;&lt;b&gt;...&lt;/b&gt;&lt;/font&gt;" style="rounded=1;whiteSpace=wrap;html=1;strokeWidth=2;fillColor=#f5f5f5;strokeColor=#666666;fontColor=#333333;" parent="1" vertex="1">
          <mxGeometry x="1160" y="390" width="150" height="100" as="geometry" />
        </mxCell>
      </root>
    </mxGraphModel>
  </diagram>
  <diagram id="52vLHwx3qCfg8M5nx8fr" name="DockerCompose">
    <mxGraphModel dx="925" dy="752" grid="1" gridSize="10" guides="1" tooltips="1" connect="1" arrows="1" fold="1" page="1" pageScale="1" pageWidth="827" pageHeight="1169" math="0" shadow="0">
      <root>
        <mxCell id="0" />
        <mxCell id="1" parent="0" />
        <mxCell id="XbXN9dSyZnAmMfZrlhd--47" style="edgeStyle=orthogonalEdgeStyle;rounded=0;orthogonalLoop=1;jettySize=auto;html=1;exitX=1;exitY=0.25;exitDx=0;exitDy=0;entryX=0;entryY=0.5;entryDx=0;entryDy=0;strokeWidth=2;endArrow=none;endFill=0;" parent="1" source="XbXN9dSyZnAmMfZrlhd--20" target="XbXN9dSyZnAmMfZrlhd--43" edge="1">
          <mxGeometry relative="1" as="geometry" />
        </mxCell>
        <mxCell id="XbXN9dSyZnAmMfZrlhd--48" style="edgeStyle=orthogonalEdgeStyle;rounded=0;orthogonalLoop=1;jettySize=auto;html=1;exitX=1;exitY=0.25;exitDx=0;exitDy=0;entryX=0;entryY=0.5;entryDx=0;entryDy=0;strokeWidth=2;endArrow=none;endFill=0;" parent="1" source="XbXN9dSyZnAmMfZrlhd--20" target="XbXN9dSyZnAmMfZrlhd--44" edge="1">
          <mxGeometry relative="1" as="geometry" />
        </mxCell>
        <mxCell id="XbXN9dSyZnAmMfZrlhd--49" style="edgeStyle=orthogonalEdgeStyle;rounded=0;orthogonalLoop=1;jettySize=auto;html=1;exitX=1;exitY=0.25;exitDx=0;exitDy=0;entryX=0;entryY=0.5;entryDx=0;entryDy=0;strokeWidth=2;endArrow=none;endFill=0;" parent="1" source="XbXN9dSyZnAmMfZrlhd--20" target="XbXN9dSyZnAmMfZrlhd--45" edge="1">
          <mxGeometry relative="1" as="geometry" />
        </mxCell>
        <mxCell id="XbXN9dSyZnAmMfZrlhd--20" value="&lt;b&gt;&lt;font style=&quot;font-size: 14px;&quot;&gt;Machine/VM&lt;/font&gt;&lt;/b&gt;" style="rounded=1;whiteSpace=wrap;html=1;verticalAlign=top;movable=1;resizable=1;rotatable=1;deletable=1;editable=1;locked=0;connectable=1;fillColor=#fff2cc;strokeColor=#d6b656;" parent="1" vertex="1">
          <mxGeometry x="270" y="100" width="290" height="320" as="geometry" />
        </mxCell>
        <mxCell id="XbXN9dSyZnAmMfZrlhd--33" value="&lt;b&gt;&lt;font style=&quot;font-size: 14px;&quot;&gt;Docker&lt;/font&gt;&lt;/b&gt;" style="shape=ext;double=1;rounded=1;whiteSpace=wrap;html=1;verticalAlign=top;align=left;spacing=7;fillColor=#d0cee2;strokeColor=#56517e;" parent="1" vertex="1">
          <mxGeometry x="330" y="130" width="180" height="260" as="geometry" />
        </mxCell>
        <mxCell id="XbXN9dSyZnAmMfZrlhd--23" style="rounded=0;orthogonalLoop=1;jettySize=auto;html=1;exitX=1;exitY=0.3333333333333333;exitDx=0;exitDy=0;exitPerimeter=0;entryX=0;entryY=0.25;entryDx=0;entryDy=0;strokeWidth=2;fillColor=#dae8fc;strokeColor=#6c8ebf;movable=1;resizable=1;rotatable=1;deletable=1;editable=1;locked=0;connectable=1;" parent="1" source="XbXN9dSyZnAmMfZrlhd--22" target="XbXN9dSyZnAmMfZrlhd--20" edge="1">
          <mxGeometry relative="1" as="geometry" />
        </mxCell>
        <mxCell id="XbXN9dSyZnAmMfZrlhd--24" style="rounded=0;orthogonalLoop=1;jettySize=auto;html=1;exitX=1;exitY=0.3333333333333333;exitDx=0;exitDy=0;exitPerimeter=0;entryX=0;entryY=0.5;entryDx=0;entryDy=0;strokeWidth=2;fillColor=#dae8fc;strokeColor=#6c8ebf;movable=1;resizable=1;rotatable=1;deletable=1;editable=1;locked=0;connectable=1;" parent="1" source="XbXN9dSyZnAmMfZrlhd--22" target="XbXN9dSyZnAmMfZrlhd--20" edge="1">
          <mxGeometry relative="1" as="geometry" />
        </mxCell>
        <mxCell id="XbXN9dSyZnAmMfZrlhd--25" style="rounded=0;orthogonalLoop=1;jettySize=auto;html=1;exitX=1;exitY=0.3333333333333333;exitDx=0;exitDy=0;exitPerimeter=0;entryX=0;entryY=0.75;entryDx=0;entryDy=0;strokeWidth=2;fillColor=#dae8fc;strokeColor=#6c8ebf;movable=1;resizable=1;rotatable=1;deletable=1;editable=1;locked=0;connectable=1;" parent="1" source="XbXN9dSyZnAmMfZrlhd--22" target="XbXN9dSyZnAmMfZrlhd--20" edge="1">
          <mxGeometry relative="1" as="geometry" />
        </mxCell>
        <mxCell id="XbXN9dSyZnAmMfZrlhd--22" value="NFVCL&lt;div&gt;User&lt;/div&gt;" style="shape=umlActor;verticalLabelPosition=bottom;verticalAlign=top;html=1;outlineConnect=0;movable=1;resizable=1;rotatable=1;deletable=1;editable=1;locked=0;connectable=1;fillColor=#ffcd28;gradientColor=#ffa500;strokeColor=#d79b00;" parent="1" vertex="1">
          <mxGeometry x="140" y="240" width="30" height="60" as="geometry" />
        </mxCell>
        <mxCell id="XbXN9dSyZnAmMfZrlhd--26" value="Port&lt;div&gt;5002&lt;/div&gt;" style="text;html=1;align=center;verticalAlign=middle;resizable=0;points=[];autosize=1;strokeColor=none;fillColor=none;movable=0;rotatable=0;deletable=0;editable=0;locked=1;connectable=0;" parent="1" vertex="1">
          <mxGeometry x="260" y="180" width="50" height="40" as="geometry" />
        </mxCell>
        <mxCell id="XbXN9dSyZnAmMfZrlhd--27" value="Port&lt;div&gt;6379&lt;/div&gt;" style="text;html=1;align=center;verticalAlign=middle;resizable=0;points=[];autosize=1;strokeColor=none;fillColor=none;movable=0;rotatable=0;deletable=0;editable=0;locked=1;connectable=0;" parent="1" vertex="1">
          <mxGeometry x="260" y="260" width="50" height="40" as="geometry" />
        </mxCell>
        <mxCell id="XbXN9dSyZnAmMfZrlhd--28" value="Port&lt;div&gt;27017&lt;/div&gt;" style="text;html=1;align=center;verticalAlign=middle;resizable=0;points=[];autosize=1;strokeColor=none;fillColor=none;movable=0;rotatable=0;deletable=0;editable=0;locked=1;connectable=0;" parent="1" vertex="1">
          <mxGeometry x="260" y="340" width="60" height="40" as="geometry" />
        </mxCell>
        <mxCell id="XbXN9dSyZnAmMfZrlhd--35" style="edgeStyle=orthogonalEdgeStyle;rounded=0;orthogonalLoop=1;jettySize=auto;html=1;exitX=0;exitY=0.5;exitDx=0;exitDy=0;endArrow=none;endFill=0;strokeWidth=2;" parent="1" source="XbXN9dSyZnAmMfZrlhd--29" edge="1">
          <mxGeometry relative="1" as="geometry">
            <mxPoint x="270" y="179.8571428571429" as="targetPoint" />
          </mxGeometry>
        </mxCell>
        <mxCell id="XbXN9dSyZnAmMfZrlhd--38" style="edgeStyle=orthogonalEdgeStyle;rounded=0;orthogonalLoop=1;jettySize=auto;html=1;exitX=1;exitY=0.75;exitDx=0;exitDy=0;entryX=1;entryY=0.25;entryDx=0;entryDy=0;fillColor=#d5e8d4;strokeColor=#82b366;strokeWidth=2;endArrow=none;endFill=0;" parent="1" source="XbXN9dSyZnAmMfZrlhd--29" target="XbXN9dSyZnAmMfZrlhd--30" edge="1">
          <mxGeometry relative="1" as="geometry" />
        </mxCell>
        <mxCell id="XbXN9dSyZnAmMfZrlhd--39" style="edgeStyle=orthogonalEdgeStyle;rounded=0;orthogonalLoop=1;jettySize=auto;html=1;exitX=1;exitY=0.75;exitDx=0;exitDy=0;entryX=1;entryY=0.25;entryDx=0;entryDy=0;fillColor=#d5e8d4;strokeColor=#82b366;strokeWidth=2;endArrow=none;endFill=0;" parent="1" source="XbXN9dSyZnAmMfZrlhd--29" target="XbXN9dSyZnAmMfZrlhd--31" edge="1">
          <mxGeometry relative="1" as="geometry" />
        </mxCell>
        <mxCell id="XbXN9dSyZnAmMfZrlhd--41" style="edgeStyle=orthogonalEdgeStyle;rounded=0;orthogonalLoop=1;jettySize=auto;html=1;exitX=1;exitY=0.5;exitDx=0;exitDy=0;entryX=1;entryY=0.25;entryDx=0;entryDy=0;strokeWidth=2;" parent="1" source="XbXN9dSyZnAmMfZrlhd--29" target="XbXN9dSyZnAmMfZrlhd--20" edge="1">
          <mxGeometry relative="1" as="geometry">
            <Array as="points">
              <mxPoint x="500" y="180" />
              <mxPoint x="500" y="180" />
            </Array>
          </mxGeometry>
        </mxCell>
        <mxCell id="XbXN9dSyZnAmMfZrlhd--29" value="NFVCL" style="rounded=1;whiteSpace=wrap;html=1;fillColor=#dae8fc;strokeColor=#6c8ebf;" parent="1" vertex="1">
          <mxGeometry x="384" y="160" width="60" height="40" as="geometry" />
        </mxCell>
        <mxCell id="XbXN9dSyZnAmMfZrlhd--37" style="edgeStyle=orthogonalEdgeStyle;rounded=0;orthogonalLoop=1;jettySize=auto;html=1;exitX=0;exitY=0.5;exitDx=0;exitDy=0;strokeWidth=2;endArrow=none;endFill=0;" parent="1" source="XbXN9dSyZnAmMfZrlhd--30" edge="1">
          <mxGeometry relative="1" as="geometry">
            <mxPoint x="270" y="259.8571428571429" as="targetPoint" />
          </mxGeometry>
        </mxCell>
        <mxCell id="XbXN9dSyZnAmMfZrlhd--30" value="MongoDB" style="rounded=1;whiteSpace=wrap;html=1;fillColor=#dae8fc;strokeColor=#6c8ebf;" parent="1" vertex="1">
          <mxGeometry x="384" y="240" width="60" height="40" as="geometry" />
        </mxCell>
        <mxCell id="XbXN9dSyZnAmMfZrlhd--36" style="edgeStyle=orthogonalEdgeStyle;rounded=0;orthogonalLoop=1;jettySize=auto;html=1;exitX=0;exitY=0.5;exitDx=0;exitDy=0;strokeWidth=2;endArrow=none;endFill=0;" parent="1" source="XbXN9dSyZnAmMfZrlhd--31" edge="1">
          <mxGeometry relative="1" as="geometry">
            <mxPoint x="270" y="339.8571428571429" as="targetPoint" />
          </mxGeometry>
        </mxCell>
        <mxCell id="XbXN9dSyZnAmMfZrlhd--31" value="Redis" style="rounded=1;whiteSpace=wrap;html=1;fillColor=#dae8fc;strokeColor=#6c8ebf;" parent="1" vertex="1">
          <mxGeometry x="384" y="320" width="60" height="40" as="geometry" />
        </mxCell>
        <mxCell id="XbXN9dSyZnAmMfZrlhd--43" value="Openstack" style="rounded=0;whiteSpace=wrap;html=1;fillColor=#f5f5f5;fontColor=#333333;strokeColor=#666666;" parent="1" vertex="1">
          <mxGeometry x="620" y="120" width="80" height="50" as="geometry" />
        </mxCell>
        <mxCell id="XbXN9dSyZnAmMfZrlhd--44" value="K8S" style="rounded=0;whiteSpace=wrap;html=1;fillColor=#f5f5f5;fontColor=#333333;strokeColor=#666666;" parent="1" vertex="1">
          <mxGeometry x="620" y="180" width="80" height="50" as="geometry" />
        </mxCell>
        <mxCell id="XbXN9dSyZnAmMfZrlhd--45" value="Proxmox" style="rounded=0;whiteSpace=wrap;html=1;fillColor=#f5f5f5;fontColor=#333333;strokeColor=#666666;" parent="1" vertex="1">
          <mxGeometry x="620" y="240" width="80" height="50" as="geometry" />
        </mxCell>
        <mxCell id="XbXN9dSyZnAmMfZrlhd--46" value="..." style="rounded=0;whiteSpace=wrap;html=1;fillColor=#f5f5f5;fontColor=#333333;strokeColor=#666666;" parent="1" vertex="1">
          <mxGeometry x="620" y="300" width="80" height="50" as="geometry" />
        </mxCell>
        <mxCell id="XbXN9dSyZnAmMfZrlhd--50" style="edgeStyle=orthogonalEdgeStyle;rounded=0;orthogonalLoop=1;jettySize=auto;html=1;exitX=1;exitY=0.25;exitDx=0;exitDy=0;entryX=-0.052;entryY=0.517;entryDx=0;entryDy=0;entryPerimeter=0;strokeWidth=2;endArrow=none;endFill=0;" parent="1" source="XbXN9dSyZnAmMfZrlhd--20" target="XbXN9dSyZnAmMfZrlhd--46" edge="1">
          <mxGeometry relative="1" as="geometry" />
        </mxCell>
      </root>
    </mxGraphModel>
  </diagram>
  <diagram id="5V8iQhxUPND6ssQjN9cU" name="VM-Configuration">
    <mxGraphModel dx="925" dy="1921" grid="1" gridSize="10" guides="1" tooltips="1" connect="1" arrows="1" fold="1" page="1" pageScale="1" pageWidth="827" pageHeight="1169" math="0" shadow="0">
      <root>
        <mxCell id="0" />
        <mxCell id="1" parent="0" />
        <mxCell id="n72W0rkGWpc5hBSQNZnH-26" value="&lt;span&gt;Virtualization&lt;br&gt;Provider&lt;/span&gt;" style="rounded=1;whiteSpace=wrap;html=1;fillColor=#fad9d5;strokeColor=#ae4132;fontStyle=1" parent="1" vertex="1">
          <mxGeometry x="219" y="-766.5" width="130" height="73.5" as="geometry" />
        </mxCell>
        <mxCell id="n72W0rkGWpc5hBSQNZnH-64" style="edgeStyle=orthogonalEdgeStyle;rounded=0;orthogonalLoop=1;jettySize=auto;html=1;exitX=1;exitY=0.5;exitDx=0;exitDy=0;entryX=0;entryY=0.5;entryDx=0;entryDy=0;" parent="1" source="n72W0rkGWpc5hBSQNZnH-38" target="n72W0rkGWpc5hBSQNZnH-51" edge="1">
          <mxGeometry relative="1" as="geometry" />
        </mxCell>
        <mxCell id="n72W0rkGWpc5hBSQNZnH-65" value="3." style="edgeLabel;html=1;align=center;verticalAlign=middle;resizable=0;points=[];fontStyle=1" parent="n72W0rkGWpc5hBSQNZnH-64" vertex="1" connectable="0">
          <mxGeometry x="-0.1078" y="-3" relative="1" as="geometry">
            <mxPoint x="3" y="-13" as="offset" />
          </mxGeometry>
        </mxCell>
        <mxCell id="n72W0rkGWpc5hBSQNZnH-38" value="Ansible&lt;div&gt;&lt;span style=&quot;background-color: initial;&quot;&gt;Playbook&lt;/span&gt;&lt;/div&gt;" style="shape=document;whiteSpace=wrap;html=1;boundedLbl=1;fontStyle=1" parent="1" vertex="1">
          <mxGeometry x="20" y="-880" width="120" height="80" as="geometry" />
        </mxCell>
        <mxCell id="n72W0rkGWpc5hBSQNZnH-40" value="SSH" style="rounded=1;whiteSpace=wrap;html=1;rotation=90;horizontal=0;fillColor=#ffff88;strokeColor=#36393d;fontStyle=1" parent="1" vertex="1">
          <mxGeometry x="324" y="-746.5" width="57.5" height="31" as="geometry" />
        </mxCell>
        <mxCell id="n72W0rkGWpc5hBSQNZnH-42" value="&lt;b&gt;&lt;font style=&quot;font-size: 19px;&quot;&gt;VIM&lt;/font&gt;&lt;/b&gt;" style="rounded=1;whiteSpace=wrap;html=1;verticalAlign=bottom;labelPosition=center;verticalLabelPosition=top;align=center;" parent="1" vertex="1">
          <mxGeometry x="440" y="-833.25" width="140" height="200" as="geometry" />
        </mxCell>
        <mxCell id="n72W0rkGWpc5hBSQNZnH-44" value="VM - 1" style="shape=cube;whiteSpace=wrap;html=1;boundedLbl=1;backgroundOutline=1;darkOpacity=0.05;darkOpacity2=0.1;fontStyle=1" parent="1" vertex="1">
          <mxGeometry x="470" y="-820" width="80" height="40" as="geometry" />
        </mxCell>
        <mxCell id="n72W0rkGWpc5hBSQNZnH-46" value="VM - N" style="shape=cube;whiteSpace=wrap;html=1;boundedLbl=1;backgroundOutline=1;darkOpacity=0.05;darkOpacity2=0.1;fontStyle=1" parent="1" vertex="1">
          <mxGeometry x="470" y="-696.5" width="80" height="40" as="geometry" />
        </mxCell>
        <mxCell id="n72W0rkGWpc5hBSQNZnH-47" value="" style="ellipse;shape=cloud;whiteSpace=wrap;html=1;" parent="1" vertex="1">
          <mxGeometry x="400" y="-758.25" width="70" height="50" as="geometry" />
        </mxCell>
        <mxCell id="n72W0rkGWpc5hBSQNZnH-48" style="edgeStyle=orthogonalEdgeStyle;rounded=0;orthogonalLoop=1;jettySize=auto;html=1;exitX=0.875;exitY=0.5;exitDx=0;exitDy=0;exitPerimeter=0;entryX=0;entryY=0;entryDx=50;entryDy=40;entryPerimeter=0;" parent="1" source="n72W0rkGWpc5hBSQNZnH-47" target="n72W0rkGWpc5hBSQNZnH-44" edge="1">
          <mxGeometry relative="1" as="geometry">
            <Array as="points">
              <mxPoint x="520" y="-733" />
            </Array>
          </mxGeometry>
        </mxCell>
        <mxCell id="n72W0rkGWpc5hBSQNZnH-49" style="edgeStyle=orthogonalEdgeStyle;rounded=0;orthogonalLoop=1;jettySize=auto;html=1;exitX=0.875;exitY=0.5;exitDx=0;exitDy=0;exitPerimeter=0;entryX=0;entryY=0;entryDx=30;entryDy=0;entryPerimeter=0;" parent="1" source="n72W0rkGWpc5hBSQNZnH-47" target="n72W0rkGWpc5hBSQNZnH-46" edge="1">
          <mxGeometry relative="1" as="geometry">
            <Array as="points">
              <mxPoint x="500" y="-733" />
            </Array>
          </mxGeometry>
        </mxCell>
        <mxCell id="n72W0rkGWpc5hBSQNZnH-50" style="edgeStyle=orthogonalEdgeStyle;rounded=0;orthogonalLoop=1;jettySize=auto;html=1;exitX=0.5;exitY=0;exitDx=0;exitDy=0;entryX=0.16;entryY=0.55;entryDx=0;entryDy=0;entryPerimeter=0;" parent="1" source="n72W0rkGWpc5hBSQNZnH-40" target="n72W0rkGWpc5hBSQNZnH-47" edge="1">
          <mxGeometry relative="1" as="geometry" />
        </mxCell>
        <mxCell id="n72W0rkGWpc5hBSQNZnH-68" value="5. Ansible run" style="edgeLabel;html=1;align=center;verticalAlign=middle;resizable=0;points=[];fontStyle=1" parent="n72W0rkGWpc5hBSQNZnH-50" vertex="1" connectable="0">
          <mxGeometry x="-0.6682" y="-2" relative="1" as="geometry">
            <mxPoint x="25" y="36" as="offset" />
          </mxGeometry>
        </mxCell>
        <mxCell id="n72W0rkGWpc5hBSQNZnH-57" value="" style="edgeStyle=orthogonalEdgeStyle;rounded=0;orthogonalLoop=1;jettySize=auto;html=1;" parent="1" source="n72W0rkGWpc5hBSQNZnH-51" target="n72W0rkGWpc5hBSQNZnH-56" edge="1">
          <mxGeometry relative="1" as="geometry" />
        </mxCell>
        <mxCell id="n72W0rkGWpc5hBSQNZnH-58" value="0. Configurator&lt;div&gt;Functions&lt;/div&gt;" style="edgeLabel;html=1;align=center;verticalAlign=middle;resizable=0;points=[];fontStyle=1" parent="n72W0rkGWpc5hBSQNZnH-57" vertex="1" connectable="0">
          <mxGeometry x="-0.0041" y="-1" relative="1" as="geometry">
            <mxPoint x="44" as="offset" />
          </mxGeometry>
        </mxCell>
        <mxCell id="n72W0rkGWpc5hBSQNZnH-66" value="" style="edgeStyle=orthogonalEdgeStyle;rounded=0;orthogonalLoop=1;jettySize=auto;html=1;" parent="1" source="n72W0rkGWpc5hBSQNZnH-51" target="n72W0rkGWpc5hBSQNZnH-26" edge="1">
          <mxGeometry relative="1" as="geometry" />
        </mxCell>
        <mxCell id="n72W0rkGWpc5hBSQNZnH-67" value="4. Configure VM" style="edgeLabel;html=1;align=center;verticalAlign=middle;resizable=0;points=[];fontStyle=1" parent="n72W0rkGWpc5hBSQNZnH-66" vertex="1" connectable="0">
          <mxGeometry x="-0.2739" relative="1" as="geometry">
            <mxPoint x="-44" y="4" as="offset" />
          </mxGeometry>
        </mxCell>
        <mxCell id="n72W0rkGWpc5hBSQNZnH-51" value="Blueprint X" style="rounded=1;whiteSpace=wrap;html=1;fillColor=#3399FF;strokeColor=#36393d;fontStyle=1" parent="1" vertex="1">
          <mxGeometry x="224" y="-870" width="120" height="60" as="geometry" />
        </mxCell>
        <mxCell id="n72W0rkGWpc5hBSQNZnH-61" style="edgeStyle=orthogonalEdgeStyle;rounded=0;orthogonalLoop=1;jettySize=auto;html=1;exitX=0.5;exitY=1;exitDx=0;exitDy=0;entryX=0.5;entryY=0;entryDx=0;entryDy=0;" parent="1" source="n72W0rkGWpc5hBSQNZnH-53" target="n72W0rkGWpc5hBSQNZnH-38" edge="1">
          <mxGeometry relative="1" as="geometry" />
        </mxCell>
        <mxCell id="n72W0rkGWpc5hBSQNZnH-62" value="2. Build" style="edgeLabel;html=1;align=center;verticalAlign=middle;resizable=0;points=[];fontStyle=1" parent="n72W0rkGWpc5hBSQNZnH-61" vertex="1" connectable="0">
          <mxGeometry x="0.0927" y="-3" relative="1" as="geometry">
            <mxPoint x="33" as="offset" />
          </mxGeometry>
        </mxCell>
        <mxCell id="n72W0rkGWpc5hBSQNZnH-53" value="Ansible&lt;div&gt;Builder&lt;/div&gt;" style="rounded=1;whiteSpace=wrap;html=1;fillColor=#cdeb8b;strokeColor=#36393d;fontStyle=1" parent="1" vertex="1">
          <mxGeometry x="35" y="-975" width="90" height="50" as="geometry" />
        </mxCell>
        <mxCell id="n72W0rkGWpc5hBSQNZnH-60" style="edgeStyle=orthogonalEdgeStyle;rounded=0;orthogonalLoop=1;jettySize=auto;html=1;exitX=0;exitY=0.5;exitDx=0;exitDy=0;entryX=1;entryY=0.5;entryDx=0;entryDy=0;" parent="1" source="n72W0rkGWpc5hBSQNZnH-56" target="n72W0rkGWpc5hBSQNZnH-53" edge="1">
          <mxGeometry relative="1" as="geometry" />
        </mxCell>
        <mxCell id="n72W0rkGWpc5hBSQNZnH-56" value="&lt;span&gt;Blueprint X&lt;/span&gt;&lt;div&gt;&lt;span&gt;Configurator&lt;/span&gt;&lt;/div&gt;&lt;div&gt;&lt;span&gt;&lt;font color=&quot;#009900&quot;&gt;Day0&lt;/font&gt; / &lt;font color=&quot;#0000ff&quot;&gt;Day2&lt;/font&gt; / &lt;font color=&quot;#ff0000&quot;&gt;DayN&lt;/font&gt;&lt;/span&gt;&lt;/div&gt;" style="rounded=1;whiteSpace=wrap;html=1;fillColor=#f9f7ed;strokeColor=#36393d;fontStyle=1" parent="1" vertex="1">
          <mxGeometry x="224" y="-980" width="120" height="60" as="geometry" />
        </mxCell>
        <mxCell id="n72W0rkGWpc5hBSQNZnH-59" value="1. Task List" style="edgeLabel;html=1;align=center;verticalAlign=middle;resizable=0;points=[];fontStyle=1" parent="1" vertex="1" connectable="0">
          <mxGeometry x="170" y="-969.9975862068965" as="geometry">
            <mxPoint x="1" y="13" as="offset" />
          </mxGeometry>
        </mxCell>
      </root>
    </mxGraphModel>
  </diagram>
  <diagram name="VM-Creation" id="cqggTdX2DEua1ycZ6Kn1">
    <mxGraphModel dx="925" dy="1921" grid="1" gridSize="10" guides="1" tooltips="1" connect="1" arrows="1" fold="1" page="1" pageScale="1" pageWidth="827" pageHeight="1169" math="0" shadow="0">
      <root>
        <mxCell id="XMten42V4Kw3sXvd1K-6-0" />
        <mxCell id="XMten42V4Kw3sXvd1K-6-1" parent="XMten42V4Kw3sXvd1K-6-0" />
        <mxCell id="4slIQmMitB12sq5W5gKz-0" style="edgeStyle=orthogonalEdgeStyle;rounded=0;orthogonalLoop=1;jettySize=auto;html=1;entryX=0.5;entryY=1;entryDx=0;entryDy=0;" parent="XMten42V4Kw3sXvd1K-6-1" source="XMten42V4Kw3sXvd1K-6-2" target="XMten42V4Kw3sXvd1K-6-24" edge="1">
          <mxGeometry relative="1" as="geometry" />
        </mxCell>
        <mxCell id="4slIQmMitB12sq5W5gKz-1" value="&lt;b&gt;2. Collect&amp;nbsp;&lt;/b&gt;&lt;div&gt;&lt;b&gt;info function&lt;/b&gt;&lt;/div&gt;" style="edgeLabel;html=1;align=center;verticalAlign=middle;resizable=0;points=[];" parent="4slIQmMitB12sq5W5gKz-0" vertex="1" connectable="0">
          <mxGeometry x="0.187" y="2" relative="1" as="geometry">
            <mxPoint x="-42" as="offset" />
          </mxGeometry>
        </mxCell>
        <mxCell id="4slIQmMitB12sq5W5gKz-5" style="edgeStyle=orthogonalEdgeStyle;rounded=0;orthogonalLoop=1;jettySize=auto;html=1;exitX=0.75;exitY=1;exitDx=0;exitDy=0;entryX=0.75;entryY=0;entryDx=0;entryDy=0;" parent="XMten42V4Kw3sXvd1K-6-1" source="XMten42V4Kw3sXvd1K-6-2" target="XMten42V4Kw3sXvd1K-6-19" edge="1">
          <mxGeometry relative="1" as="geometry" />
        </mxCell>
        <mxCell id="4slIQmMitB12sq5W5gKz-7" value="8. Saving&lt;div&gt;in state&lt;/div&gt;" style="edgeLabel;html=1;align=center;verticalAlign=middle;resizable=0;points=[];fontStyle=1" parent="4slIQmMitB12sq5W5gKz-5" vertex="1" connectable="0">
          <mxGeometry x="0.1779" y="2" relative="1" as="geometry">
            <mxPoint x="25" y="-1" as="offset" />
          </mxGeometry>
        </mxCell>
        <mxCell id="lZ8_i5-ODyaWRQcU9rA3-0" style="edgeStyle=orthogonalEdgeStyle;rounded=0;orthogonalLoop=1;jettySize=auto;html=1;exitX=1;exitY=0.75;exitDx=0;exitDy=0;entryX=0;entryY=0.75;entryDx=0;entryDy=0;" parent="XMten42V4Kw3sXvd1K-6-1" source="XMten42V4Kw3sXvd1K-6-2" target="XMten42V4Kw3sXvd1K-6-7" edge="1">
          <mxGeometry relative="1" as="geometry" />
        </mxCell>
        <mxCell id="lZ8_i5-ODyaWRQcU9rA3-1" value="1. VM Creation" style="edgeLabel;html=1;align=center;verticalAlign=middle;resizable=0;points=[];fontStyle=1;fontSize=13;" parent="lZ8_i5-ODyaWRQcU9rA3-0" vertex="1" connectable="0">
          <mxGeometry x="-0.0408" relative="1" as="geometry">
            <mxPoint y="11" as="offset" />
          </mxGeometry>
        </mxCell>
        <mxCell id="XMten42V4Kw3sXvd1K-6-2" value="&lt;span&gt;Virtualization&lt;br&gt;Provider&lt;/span&gt;" style="rounded=1;whiteSpace=wrap;html=1;fillColor=#fad9d5;strokeColor=#ae4132;fontStyle=1" parent="XMten42V4Kw3sXvd1K-6-1" vertex="1">
          <mxGeometry x="219" y="-876.75" width="131" height="116.75" as="geometry" />
        </mxCell>
        <mxCell id="4slIQmMitB12sq5W5gKz-10" style="edgeStyle=orthogonalEdgeStyle;rounded=0;orthogonalLoop=1;jettySize=auto;html=1;exitX=1;exitY=0.5;exitDx=0;exitDy=0;" parent="XMten42V4Kw3sXvd1K-6-1" source="XMten42V4Kw3sXvd1K-6-5" target="XMten42V4Kw3sXvd1K-6-2" edge="1">
          <mxGeometry relative="1" as="geometry" />
        </mxCell>
        <mxCell id="4slIQmMitB12sq5W5gKz-11" value="5." style="edgeLabel;html=1;align=center;verticalAlign=middle;resizable=0;points=[];fontStyle=1" parent="4slIQmMitB12sq5W5gKz-10" vertex="1" connectable="0">
          <mxGeometry x="-0.4243" y="-2" relative="1" as="geometry">
            <mxPoint x="17" y="-12" as="offset" />
          </mxGeometry>
        </mxCell>
        <mxCell id="XMten42V4Kw3sXvd1K-6-5" value="Ansible&lt;div&gt;&lt;span style=&quot;background-color: initial;&quot;&gt;Playbook&lt;/span&gt;&lt;/div&gt;" style="shape=document;whiteSpace=wrap;html=1;boundedLbl=1;fontStyle=1" parent="XMten42V4Kw3sXvd1K-6-1" vertex="1">
          <mxGeometry x="20" y="-858.37" width="120" height="80" as="geometry" />
        </mxCell>
        <mxCell id="XMten42V4Kw3sXvd1K-6-6" value="SSH" style="rounded=1;whiteSpace=wrap;html=1;rotation=90;horizontal=0;fillColor=#ffff88;strokeColor=#36393d;fontStyle=1" parent="XMten42V4Kw3sXvd1K-6-1" vertex="1">
          <mxGeometry x="324" y="-853.25" width="57.5" height="31" as="geometry" />
        </mxCell>
        <mxCell id="XMten42V4Kw3sXvd1K-6-7" value="&lt;b&gt;&lt;font style=&quot;font-size: 19px;&quot;&gt;VIM&lt;/font&gt;&lt;/b&gt;" style="rounded=1;whiteSpace=wrap;html=1;verticalAlign=bottom;labelPosition=center;verticalLabelPosition=top;align=center;" parent="XMten42V4Kw3sXvd1K-6-1" vertex="1">
          <mxGeometry x="454" y="-940" width="140" height="200" as="geometry" />
        </mxCell>
        <mxCell id="XMten42V4Kw3sXvd1K-6-8" value="VM - 1" style="shape=cube;whiteSpace=wrap;html=1;boundedLbl=1;backgroundOutline=1;darkOpacity=0.05;darkOpacity2=0.1;fontStyle=1" parent="XMten42V4Kw3sXvd1K-6-1" vertex="1">
          <mxGeometry x="484" y="-926.75" width="80" height="40" as="geometry" />
        </mxCell>
        <mxCell id="XMten42V4Kw3sXvd1K-6-9" value="&lt;div&gt;Created&lt;/div&gt;VM - N" style="shape=cube;whiteSpace=wrap;html=1;boundedLbl=1;backgroundOutline=1;darkOpacity=0.05;darkOpacity2=0.1;fontStyle=1;fillColor=#cdeb8b;strokeColor=#36393d;" parent="XMten42V4Kw3sXvd1K-6-1" vertex="1">
          <mxGeometry x="484" y="-820" width="86" height="56.75" as="geometry" />
        </mxCell>
        <mxCell id="4slIQmMitB12sq5W5gKz-15" style="edgeStyle=orthogonalEdgeStyle;rounded=0;orthogonalLoop=1;jettySize=auto;html=1;exitX=0.31;exitY=0.8;exitDx=0;exitDy=0;exitPerimeter=0;" parent="XMten42V4Kw3sXvd1K-6-1" source="XMten42V4Kw3sXvd1K-6-10" edge="1">
          <mxGeometry relative="1" as="geometry">
            <mxPoint x="370" y="-824.8965517241379" as="targetPoint" />
          </mxGeometry>
        </mxCell>
        <mxCell id="4slIQmMitB12sq5W5gKz-16" value="7. Info" style="edgeLabel;html=1;align=center;verticalAlign=middle;resizable=0;points=[];fontStyle=1" parent="4slIQmMitB12sq5W5gKz-15" vertex="1" connectable="0">
          <mxGeometry x="0.1999" relative="1" as="geometry">
            <mxPoint y="10" as="offset" />
          </mxGeometry>
        </mxCell>
        <mxCell id="XMten42V4Kw3sXvd1K-6-10" value="" style="ellipse;shape=cloud;whiteSpace=wrap;html=1;" parent="XMten42V4Kw3sXvd1K-6-1" vertex="1">
          <mxGeometry x="414" y="-865" width="70" height="50" as="geometry" />
        </mxCell>
        <mxCell id="XMten42V4Kw3sXvd1K-6-11" style="edgeStyle=orthogonalEdgeStyle;rounded=0;orthogonalLoop=1;jettySize=auto;html=1;exitX=0.875;exitY=0.5;exitDx=0;exitDy=0;exitPerimeter=0;entryX=0;entryY=0;entryDx=50;entryDy=40;entryPerimeter=0;" parent="XMten42V4Kw3sXvd1K-6-1" source="XMten42V4Kw3sXvd1K-6-10" target="XMten42V4Kw3sXvd1K-6-8" edge="1">
          <mxGeometry relative="1" as="geometry">
            <Array as="points">
              <mxPoint x="534" y="-839.75" />
            </Array>
          </mxGeometry>
        </mxCell>
        <mxCell id="XMten42V4Kw3sXvd1K-6-12" style="edgeStyle=orthogonalEdgeStyle;rounded=0;orthogonalLoop=1;jettySize=auto;html=1;exitX=0.875;exitY=0.5;exitDx=0;exitDy=0;exitPerimeter=0;entryX=0;entryY=0;entryDx=30;entryDy=0;entryPerimeter=0;" parent="XMten42V4Kw3sXvd1K-6-1" source="XMten42V4Kw3sXvd1K-6-10" target="XMten42V4Kw3sXvd1K-6-9" edge="1">
          <mxGeometry relative="1" as="geometry">
            <Array as="points">
              <mxPoint x="514" y="-839.75" />
            </Array>
          </mxGeometry>
        </mxCell>
        <mxCell id="4slIQmMitB12sq5W5gKz-2" style="edgeStyle=orthogonalEdgeStyle;rounded=0;orthogonalLoop=1;jettySize=auto;html=1;exitX=0.25;exitY=0;exitDx=0;exitDy=0;entryX=0.25;entryY=1;entryDx=0;entryDy=0;" parent="XMten42V4Kw3sXvd1K-6-1" source="XMten42V4Kw3sXvd1K-6-19" target="XMten42V4Kw3sXvd1K-6-2" edge="1">
          <mxGeometry relative="1" as="geometry" />
        </mxCell>
        <mxCell id="4slIQmMitB12sq5W5gKz-4" value="0. Create VM" style="edgeLabel;html=1;align=center;verticalAlign=middle;resizable=0;points=[];fontStyle=1" parent="4slIQmMitB12sq5W5gKz-2" vertex="1" connectable="0">
          <mxGeometry x="-0.355" relative="1" as="geometry">
            <mxPoint x="-44" y="-6" as="offset" />
          </mxGeometry>
        </mxCell>
        <mxCell id="XMten42V4Kw3sXvd1K-6-19" value="Blueprint X" style="rounded=1;whiteSpace=wrap;html=1;fillColor=#3399FF;strokeColor=#36393d;fontStyle=1" parent="XMten42V4Kw3sXvd1K-6-1" vertex="1">
          <mxGeometry x="218.5" y="-700" width="131" height="70" as="geometry" />
        </mxCell>
        <mxCell id="XMten42V4Kw3sXvd1K-6-20" style="edgeStyle=orthogonalEdgeStyle;rounded=0;orthogonalLoop=1;jettySize=auto;html=1;exitX=0.5;exitY=1;exitDx=0;exitDy=0;entryX=0.5;entryY=0;entryDx=0;entryDy=0;" parent="XMten42V4Kw3sXvd1K-6-1" source="XMten42V4Kw3sXvd1K-6-22" target="XMten42V4Kw3sXvd1K-6-5" edge="1">
          <mxGeometry relative="1" as="geometry" />
        </mxCell>
        <mxCell id="XMten42V4Kw3sXvd1K-6-21" value="4. Build" style="edgeLabel;html=1;align=center;verticalAlign=middle;resizable=0;points=[];fontStyle=1" parent="XMten42V4Kw3sXvd1K-6-20" vertex="1" connectable="0">
          <mxGeometry x="0.0927" y="-3" relative="1" as="geometry">
            <mxPoint x="33" as="offset" />
          </mxGeometry>
        </mxCell>
        <mxCell id="XMten42V4Kw3sXvd1K-6-22" value="Ansible&lt;div&gt;Builder&lt;/div&gt;" style="rounded=1;whiteSpace=wrap;html=1;fillColor=#cdeb8b;strokeColor=#36393d;fontStyle=1" parent="XMten42V4Kw3sXvd1K-6-1" vertex="1">
          <mxGeometry x="35" y="-975" width="90" height="50" as="geometry" />
        </mxCell>
        <mxCell id="XMten42V4Kw3sXvd1K-6-23" style="edgeStyle=orthogonalEdgeStyle;rounded=0;orthogonalLoop=1;jettySize=auto;html=1;exitX=0;exitY=0.5;exitDx=0;exitDy=0;entryX=1;entryY=0.5;entryDx=0;entryDy=0;" parent="XMten42V4Kw3sXvd1K-6-1" source="XMten42V4Kw3sXvd1K-6-24" target="XMten42V4Kw3sXvd1K-6-22" edge="1">
          <mxGeometry relative="1" as="geometry" />
        </mxCell>
        <mxCell id="XMten42V4Kw3sXvd1K-6-24" value="Provider&lt;div&gt;Base configurator&lt;br&gt;&lt;div&gt;&lt;span&gt;&lt;font color=&quot;#009900&quot;&gt;Day0&lt;/font&gt;&lt;/span&gt;&lt;/div&gt;&lt;/div&gt;" style="rounded=1;whiteSpace=wrap;html=1;fillColor=#f9f7ed;strokeColor=#36393d;fontStyle=1" parent="XMten42V4Kw3sXvd1K-6-1" vertex="1">
          <mxGeometry x="224" y="-980" width="120" height="60" as="geometry" />
        </mxCell>
        <mxCell id="XMten42V4Kw3sXvd1K-6-25" value="3. Task List" style="edgeLabel;html=1;align=center;verticalAlign=middle;resizable=0;points=[];fontStyle=1" parent="XMten42V4Kw3sXvd1K-6-1" vertex="1" connectable="0">
          <mxGeometry x="170" y="-969.9975862068965" as="geometry">
            <mxPoint x="1" y="13" as="offset" />
          </mxGeometry>
        </mxCell>
        <mxCell id="4slIQmMitB12sq5W5gKz-14" style="edgeStyle=orthogonalEdgeStyle;rounded=0;orthogonalLoop=1;jettySize=auto;html=1;exitX=0.25;exitY=0;exitDx=0;exitDy=0;entryX=0.25;entryY=0.25;entryDx=0;entryDy=0;entryPerimeter=0;" parent="XMten42V4Kw3sXvd1K-6-1" source="XMten42V4Kw3sXvd1K-6-6" target="XMten42V4Kw3sXvd1K-6-10" edge="1">
          <mxGeometry relative="1" as="geometry" />
        </mxCell>
        <mxCell id="4slIQmMitB12sq5W5gKz-17" value="6. Play" style="edgeLabel;html=1;align=center;verticalAlign=middle;resizable=0;points=[];fontStyle=1" parent="4slIQmMitB12sq5W5gKz-14" vertex="1" connectable="0">
          <mxGeometry x="-0.6104" y="2" relative="1" as="geometry">
            <mxPoint x="12" y="-11" as="offset" />
          </mxGeometry>
        </mxCell>
      </root>
    </mxGraphModel>
  </diagram>
  <diagram id="1S0dZkY1Dkdkdsg6EXZx" name="General-Scheme">
    <mxGraphModel dx="1434" dy="2005" grid="1" gridSize="10" guides="1" tooltips="1" connect="1" arrows="1" fold="1" page="1" pageScale="1" pageWidth="827" pageHeight="1169" math="0" shadow="0">
      <root>
        <mxCell id="0" />
        <mxCell id="1" parent="0" />
        <mxCell id="FCx5_2lcHHjTthFvivbw-2" value="Resources&lt;br style=&quot;font-size: 14px;&quot;&gt;Providders" style="rounded=1;whiteSpace=wrap;html=1;fillColor=#F0F0F0;align=right;fontStyle=1;fontSize=14;spacingLeft=0;spacingBottom=0;spacing=9;" parent="1" vertex="1">
          <mxGeometry x="10" y="-390" width="730" height="120" as="geometry" />
        </mxCell>
        <mxCell id="LudBPDsSFpq1BQu8bObj-3" value="" style="group" parent="1" vertex="1" connectable="0">
          <mxGeometry x="52.5" y="-810" width="307.5" height="140" as="geometry" />
        </mxCell>
        <mxCell id="LudBPDsSFpq1BQu8bObj-1" value="" style="rounded=1;whiteSpace=wrap;html=1;horizontal=1;verticalAlign=middle;labelPosition=left;verticalLabelPosition=middle;align=right;fillColor=#d5e8d4;strokeColor=#82b366;" parent="LudBPDsSFpq1BQu8bObj-3" vertex="1">
          <mxGeometry x="3.5" width="304" height="140" as="geometry" />
        </mxCell>
        <mxCell id="LudBPDsSFpq1BQu8bObj-2" value="Blueprint Worker" style="text;html=1;align=center;verticalAlign=middle;whiteSpace=wrap;rounded=0;rotation=-90;fontStyle=1" parent="LudBPDsSFpq1BQu8bObj-3" vertex="1">
          <mxGeometry x="-32.5" y="51.470588235294116" width="100" height="28.823529411764703" as="geometry" />
        </mxCell>
        <mxCell id="LudBPDsSFpq1BQu8bObj-6" value="" style="group" parent="LudBPDsSFpq1BQu8bObj-3" vertex="1" connectable="0">
          <mxGeometry x="40" y="16.47" width="260" height="103.53" as="geometry" />
        </mxCell>
        <mxCell id="FfZv3YG9JdOCyFWRbvzE-7" value="&lt;b&gt;&lt;font style=&quot;font-size: 16px;&quot;&gt;Blueprint &amp;lt;Type&amp;gt;&lt;/font&gt;&lt;/b&gt;" style="rounded=1;whiteSpace=wrap;html=1;horizontal=1;verticalAlign=bottom;align=right;fillColor=#dae8fc;strokeColor=#6c8ebf;spacingRight=12;spacingLeft=0;strokeWidth=2;" parent="LudBPDsSFpq1BQu8bObj-6" vertex="1">
          <mxGeometry width="260" height="103.53" as="geometry" />
        </mxCell>
        <mxCell id="FfZv3YG9JdOCyFWRbvzE-22" value="Status" style="rounded=1;whiteSpace=wrap;html=1;fontStyle=1;strokeWidth=2;" parent="LudBPDsSFpq1BQu8bObj-6" vertex="1">
          <mxGeometry x="10.833333333333334" y="13.52545454545454" width="65" height="28.23545454545454" as="geometry" />
        </mxCell>
        <mxCell id="FfZv3YG9JdOCyFWRbvzE-23" value="Resource&lt;div&gt;List&lt;/div&gt;" style="rounded=1;whiteSpace=wrap;html=1;fontStyle=1;strokeWidth=2;" parent="LudBPDsSFpq1BQu8bObj-6" vertex="1">
          <mxGeometry x="86.66666666666667" y="13.52545454545454" width="75.83333333333333" height="28.23545454545454" as="geometry" />
        </mxCell>
        <mxCell id="FfZv3YG9JdOCyFWRbvzE-38" value="Parent/Child&lt;div&gt;Blueprints&lt;/div&gt;" style="rounded=1;whiteSpace=wrap;html=1;fontStyle=1;strokeWidth=2;" parent="LudBPDsSFpq1BQu8bObj-6" vertex="1">
          <mxGeometry x="173.33333333333334" y="13.52545454545454" width="75.83333333333333" height="28.23545454545454" as="geometry" />
        </mxCell>
        <mxCell id="zgQDRtZc47B3HfUfMJbq-7" value="Day0/Day2&lt;div&gt;Call History&lt;/div&gt;" style="rounded=1;whiteSpace=wrap;html=1;fontStyle=1;strokeWidth=2;" vertex="1" parent="LudBPDsSFpq1BQu8bObj-6">
          <mxGeometry x="86.66333333333333" y="53.53272727272724" width="97.50000000000001" height="28.23545454545454" as="geometry" />
        </mxCell>
        <mxCell id="zgQDRtZc47B3HfUfMJbq-8" value="State" style="rounded=1;whiteSpace=wrap;html=1;fontStyle=1;strokeWidth=2;" vertex="1" parent="LudBPDsSFpq1BQu8bObj-6">
          <mxGeometry x="10.833333333333329" y="53.53545454545451" width="65" height="28.23545454545454" as="geometry" />
        </mxCell>
        <mxCell id="FfZv3YG9JdOCyFWRbvzE-4" value="&lt;div&gt;Provider&lt;/div&gt;&lt;div&gt;...&lt;/div&gt;" style="rounded=1;whiteSpace=wrap;html=1;fontStyle=1;strokeWidth=2;" parent="1" vertex="1">
          <mxGeometry x="281" y="-490" width="120" height="60" as="geometry" />
        </mxCell>
        <mxCell id="40yBssGEDl05KHbaXxXO-4" style="edgeStyle=orthogonalEdgeStyle;rounded=0;orthogonalLoop=1;jettySize=auto;html=1;exitX=0.5;exitY=1;exitDx=0;exitDy=0;entryX=0.5;entryY=0;entryDx=0;entryDy=0;strokeWidth=2;" parent="1" source="FfZv3YG9JdOCyFWRbvzE-7" target="40yBssGEDl05KHbaXxXO-2" edge="1">
          <mxGeometry relative="1" as="geometry" />
        </mxCell>
        <mxCell id="FfZv3YG9JdOCyFWRbvzE-9" value="&lt;b&gt;&lt;font style=&quot;font-size: 19px;&quot;&gt;NFVCL NBI&lt;/font&gt;&lt;/b&gt;" style="rounded=1;whiteSpace=wrap;html=1;fillColor=#dae8fc;strokeColor=#6c8ebf;strokeWidth=2;" parent="1" vertex="1">
          <mxGeometry x="71" y="-1020" width="749" height="40" as="geometry" />
        </mxCell>
        <mxCell id="FfZv3YG9JdOCyFWRbvzE-99" style="edgeStyle=orthogonalEdgeStyle;rounded=0;orthogonalLoop=1;jettySize=auto;html=1;exitX=0.391;exitY=0.998;exitDx=0;exitDy=0;entryX=0.25;entryY=0;entryDx=0;entryDy=0;exitPerimeter=0;strokeWidth=2;" parent="1" source="FfZv3YG9JdOCyFWRbvzE-21" target="FfZv3YG9JdOCyFWRbvzE-96" edge="1">
          <mxGeometry relative="1" as="geometry" />
        </mxCell>
        <mxCell id="FfZv3YG9JdOCyFWRbvzE-102" style="edgeStyle=orthogonalEdgeStyle;rounded=0;orthogonalLoop=1;jettySize=auto;html=1;exitX=0.25;exitY=1;exitDx=0;exitDy=0;strokeWidth=2;" parent="1" source="FfZv3YG9JdOCyFWRbvzE-21" target="FfZv3YG9JdOCyFWRbvzE-95" edge="1">
          <mxGeometry relative="1" as="geometry" />
        </mxCell>
        <mxCell id="FfZv3YG9JdOCyFWRbvzE-103" style="edgeStyle=orthogonalEdgeStyle;rounded=0;orthogonalLoop=1;jettySize=auto;html=1;exitX=0.75;exitY=1;exitDx=0;exitDy=0;entryX=0.5;entryY=0;entryDx=0;entryDy=0;strokeWidth=2;" parent="1" source="FfZv3YG9JdOCyFWRbvzE-21" target="FfZv3YG9JdOCyFWRbvzE-97" edge="1">
          <mxGeometry relative="1" as="geometry" />
        </mxCell>
        <mxCell id="lXOtyyEkVV1Wx_zVskK1-2" value="" style="edgeStyle=orthogonalEdgeStyle;rounded=0;orthogonalLoop=1;jettySize=auto;html=1;strokeWidth=2;startArrow=classic;startFill=1;" parent="1" source="FfZv3YG9JdOCyFWRbvzE-21" target="lXOtyyEkVV1Wx_zVskK1-1" edge="1">
          <mxGeometry relative="1" as="geometry" />
        </mxCell>
        <mxCell id="FfZv3YG9JdOCyFWRbvzE-21" value="Blueprints LCM&lt;div&gt;Manager&lt;/div&gt;" style="rounded=1;whiteSpace=wrap;html=1;fontStyle=1;fillColor=#FFD966;strokeWidth=2;" parent="1" vertex="1">
          <mxGeometry x="157.55" y="-940" width="120" height="60" as="geometry" />
        </mxCell>
        <mxCell id="FfZv3YG9JdOCyFWRbvzE-33" value="" style="group;fontStyle=1;strokeWidth=2;" parent="1" vertex="1" connectable="0">
          <mxGeometry x="20" y="-370" width="100" height="85" as="geometry" />
        </mxCell>
        <mxCell id="FfZv3YG9JdOCyFWRbvzE-30" value="" style="rounded=1;whiteSpace=wrap;html=1;strokeWidth=2;" parent="FfZv3YG9JdOCyFWRbvzE-33" vertex="1">
          <mxGeometry width="80" height="65" as="geometry" />
        </mxCell>
        <mxCell id="FfZv3YG9JdOCyFWRbvzE-31" value="" style="rounded=1;whiteSpace=wrap;html=1;strokeWidth=2;" parent="FfZv3YG9JdOCyFWRbvzE-33" vertex="1">
          <mxGeometry x="10" y="10" width="80" height="65" as="geometry" />
        </mxCell>
        <mxCell id="FfZv3YG9JdOCyFWRbvzE-32" value="Openstack" style="rounded=1;whiteSpace=wrap;html=1;fontStyle=1;strokeWidth=2;" parent="FfZv3YG9JdOCyFWRbvzE-33" vertex="1">
          <mxGeometry x="20" y="20" width="80" height="65" as="geometry" />
        </mxCell>
        <mxCell id="FfZv3YG9JdOCyFWRbvzE-34" value="" style="group;fontStyle=1;strokeWidth=2;" parent="1" vertex="1" connectable="0">
          <mxGeometry x="151" y="-370" width="100" height="85" as="geometry" />
        </mxCell>
        <mxCell id="FfZv3YG9JdOCyFWRbvzE-35" value="" style="rounded=1;whiteSpace=wrap;html=1;strokeWidth=2;" parent="FfZv3YG9JdOCyFWRbvzE-34" vertex="1">
          <mxGeometry width="80" height="65" as="geometry" />
        </mxCell>
        <mxCell id="FfZv3YG9JdOCyFWRbvzE-36" value="" style="rounded=1;whiteSpace=wrap;html=1;strokeWidth=2;" parent="FfZv3YG9JdOCyFWRbvzE-34" vertex="1">
          <mxGeometry x="10" y="10" width="80" height="65" as="geometry" />
        </mxCell>
        <mxCell id="FfZv3YG9JdOCyFWRbvzE-37" value="Proxmox" style="rounded=1;whiteSpace=wrap;html=1;fontStyle=1;strokeWidth=2;" parent="FfZv3YG9JdOCyFWRbvzE-34" vertex="1">
          <mxGeometry x="20" y="20" width="80" height="65" as="geometry" />
        </mxCell>
        <mxCell id="FfZv3YG9JdOCyFWRbvzE-45" value="" style="shape=trapezoid;perimeter=trapezoidPerimeter;whiteSpace=wrap;html=1;fixedSize=1;strokeWidth=2;fillColor=#f5f5f5;gradientColor=#b3b3b3;strokeColor=#666666;size=25.000000000000227;" parent="1" vertex="1">
          <mxGeometry x="670" y="-560" width="162" height="17.08" as="geometry" />
        </mxCell>
        <mxCell id="FfZv3YG9JdOCyFWRbvzE-79" style="edgeStyle=orthogonalEdgeStyle;rounded=0;orthogonalLoop=1;jettySize=auto;html=1;exitX=0.5;exitY=1;exitDx=0;exitDy=0;entryX=0.5;entryY=0;entryDx=0;entryDy=0;fillColor=#d5e8d4;strokeColor=#82b366;strokeWidth=2;" parent="1" source="FfZv3YG9JdOCyFWRbvzE-47" target="FfZv3YG9JdOCyFWRbvzE-73" edge="1">
          <mxGeometry relative="1" as="geometry">
            <Array as="points">
              <mxPoint x="787" y="-380" />
              <mxPoint x="471" y="-380" />
            </Array>
          </mxGeometry>
        </mxCell>
        <mxCell id="FfZv3YG9JdOCyFWRbvzE-47" value="K8S API" style="rounded=0;whiteSpace=wrap;html=1;fillColor=#d5e8d4;strokeColor=#82b366;fontStyle=1;strokeWidth=2;" parent="1" vertex="1">
          <mxGeometry x="759.9982758620689" y="-549.9966666666667" width="53.103448275862064" height="25.625" as="geometry" />
        </mxCell>
        <mxCell id="FfZv3YG9JdOCyFWRbvzE-56" value="" style="edgeStyle=orthogonalEdgeStyle;rounded=0;orthogonalLoop=1;jettySize=auto;html=1;fillColor=#ffe6cc;strokeColor=#d79b00;strokeWidth=2;" parent="1" source="FfZv3YG9JdOCyFWRbvzE-48" target="FfZv3YG9JdOCyFWRbvzE-32" edge="1">
          <mxGeometry relative="1" as="geometry" />
        </mxCell>
        <mxCell id="FfZv3YG9JdOCyFWRbvzE-55" style="edgeStyle=orthogonalEdgeStyle;rounded=0;orthogonalLoop=1;jettySize=auto;html=1;entryX=0.5;entryY=0;entryDx=0;entryDy=0;fillColor=#ffe6cc;strokeColor=#d79b00;strokeWidth=2;exitX=0.5;exitY=1;exitDx=0;exitDy=0;" parent="1" source="FfZv3YG9JdOCyFWRbvzE-54" target="FfZv3YG9JdOCyFWRbvzE-32" edge="1">
          <mxGeometry relative="1" as="geometry">
            <Array as="points">
              <mxPoint x="721" y="-400" />
              <mxPoint x="80" y="-400" />
            </Array>
          </mxGeometry>
        </mxCell>
        <mxCell id="FfZv3YG9JdOCyFWRbvzE-54" value="OS API" style="rounded=0;whiteSpace=wrap;html=1;fillColor=#ffe6cc;strokeColor=#d79b00;fontStyle=1;strokeWidth=2;" parent="1" vertex="1">
          <mxGeometry x="694.3503448275861" y="-549.9966666666667" width="53.103448275862064" height="25.625" as="geometry" />
        </mxCell>
        <mxCell id="FfZv3YG9JdOCyFWRbvzE-65" value="" style="group;fontStyle=1;strokeWidth=2;" parent="1" vertex="1" connectable="0">
          <mxGeometry x="20" y="-490" width="120" height="75.62833333333333" as="geometry" />
        </mxCell>
        <mxCell id="FfZv3YG9JdOCyFWRbvzE-2" value="&lt;div&gt;Provider&lt;/div&gt;Openstack" style="rounded=1;whiteSpace=wrap;html=1;fillColor=#fad7ac;strokeColor=#b46504;fontStyle=1;strokeWidth=2;" parent="FfZv3YG9JdOCyFWRbvzE-65" vertex="1">
          <mxGeometry width="120" height="60" as="geometry" />
        </mxCell>
        <mxCell id="FfZv3YG9JdOCyFWRbvzE-48" value="OS API" style="rounded=0;whiteSpace=wrap;html=1;fillColor=#ffe6cc;strokeColor=#d79b00;fontStyle=1;strokeWidth=2;" parent="FfZv3YG9JdOCyFWRbvzE-65" vertex="1">
          <mxGeometry x="33.45034482758609" y="50.00333333333333" width="53.103448275862064" height="25.625" as="geometry" />
        </mxCell>
        <mxCell id="FfZv3YG9JdOCyFWRbvzE-66" value="" style="group;strokeWidth=2;" parent="1" vertex="1" connectable="0">
          <mxGeometry x="151" y="-490" width="120" height="75.62833333333333" as="geometry" />
        </mxCell>
        <mxCell id="FfZv3YG9JdOCyFWRbvzE-3" value="&lt;div&gt;Provider&lt;/div&gt;&lt;div&gt;Proxmox&lt;/div&gt;" style="rounded=1;whiteSpace=wrap;html=1;fillColor=#d0cee2;strokeColor=#56517e;fontStyle=1;strokeWidth=2;" parent="FfZv3YG9JdOCyFWRbvzE-66" vertex="1">
          <mxGeometry width="120" height="60" as="geometry" />
        </mxCell>
        <mxCell id="FfZv3YG9JdOCyFWRbvzE-63" value="PVE API" style="rounded=0;whiteSpace=wrap;html=1;fillColor=#e1d5e7;strokeColor=#9673a6;fontStyle=1;strokeWidth=2;" parent="FfZv3YG9JdOCyFWRbvzE-66" vertex="1">
          <mxGeometry x="33.45034482758609" y="50.00333333333333" width="53.103448275862064" height="25.625" as="geometry" />
        </mxCell>
        <mxCell id="FfZv3YG9JdOCyFWRbvzE-67" style="edgeStyle=orthogonalEdgeStyle;rounded=0;orthogonalLoop=1;jettySize=auto;html=1;exitX=0.5;exitY=1;exitDx=0;exitDy=0;entryX=0.5;entryY=0;entryDx=0;entryDy=0;fillColor=#e1d5e7;strokeColor=#9673a6;strokeWidth=2;" parent="1" source="FfZv3YG9JdOCyFWRbvzE-63" target="FfZv3YG9JdOCyFWRbvzE-37" edge="1">
          <mxGeometry relative="1" as="geometry" />
        </mxCell>
        <mxCell id="FfZv3YG9JdOCyFWRbvzE-68" value="&lt;div&gt;&lt;font style=&quot;font-size: 10px;&quot;&gt;Provider&lt;/font&gt;&lt;/div&gt;&lt;div&gt;&lt;font style=&quot;font-size: 13px;&quot;&gt;Native&lt;/font&gt;&lt;/div&gt;&lt;div&gt;K8S&lt;/div&gt;" style="rounded=1;whiteSpace=wrap;html=1;fillColor=#cdeb8b;strokeColor=#36393d;fontStyle=1;strokeWidth=2;" parent="1" vertex="1">
          <mxGeometry x="411" y="-490" width="120" height="60" as="geometry" />
        </mxCell>
        <mxCell id="FfZv3YG9JdOCyFWRbvzE-70" value="" style="group;fontStyle=1;strokeWidth=2;" parent="1" vertex="1" connectable="0">
          <mxGeometry x="411" y="-370" width="100" height="85" as="geometry" />
        </mxCell>
        <mxCell id="FfZv3YG9JdOCyFWRbvzE-71" value="" style="rounded=1;whiteSpace=wrap;html=1;strokeWidth=2;" parent="FfZv3YG9JdOCyFWRbvzE-70" vertex="1">
          <mxGeometry width="80" height="65" as="geometry" />
        </mxCell>
        <mxCell id="FfZv3YG9JdOCyFWRbvzE-72" value="" style="rounded=1;whiteSpace=wrap;html=1;strokeWidth=2;" parent="FfZv3YG9JdOCyFWRbvzE-70" vertex="1">
          <mxGeometry x="10" y="10" width="80" height="65" as="geometry" />
        </mxCell>
        <mxCell id="FfZv3YG9JdOCyFWRbvzE-73" value="K8S Cluster" style="rounded=1;whiteSpace=wrap;html=1;fontStyle=1;strokeWidth=2;" parent="FfZv3YG9JdOCyFWRbvzE-70" vertex="1">
          <mxGeometry x="20" y="20" width="80" height="65" as="geometry" />
        </mxCell>
        <mxCell id="FfZv3YG9JdOCyFWRbvzE-74" style="edgeStyle=orthogonalEdgeStyle;rounded=0;orthogonalLoop=1;jettySize=auto;html=1;exitX=0.5;exitY=1;exitDx=0;exitDy=0;entryX=0.5;entryY=0;entryDx=0;entryDy=0;fillColor=#d5e8d4;strokeColor=#82b366;strokeWidth=2;" parent="1" source="FfZv3YG9JdOCyFWRbvzE-75" target="FfZv3YG9JdOCyFWRbvzE-73" edge="1">
          <mxGeometry relative="1" as="geometry">
            <Array as="points">
              <mxPoint x="448" y="-380" />
              <mxPoint x="471" y="-380" />
            </Array>
          </mxGeometry>
        </mxCell>
        <mxCell id="FfZv3YG9JdOCyFWRbvzE-76" value="" style="edgeStyle=orthogonalEdgeStyle;rounded=0;orthogonalLoop=1;jettySize=auto;html=1;exitX=0.5;exitY=1;exitDx=0;exitDy=0;entryX=0.5;entryY=0;entryDx=0;entryDy=0;strokeWidth=2;" parent="1" source="FfZv3YG9JdOCyFWRbvzE-68" target="FfZv3YG9JdOCyFWRbvzE-75" edge="1">
          <mxGeometry relative="1" as="geometry">
            <mxPoint x="471" y="-430" as="sourcePoint" />
            <mxPoint x="471" y="-340" as="targetPoint" />
          </mxGeometry>
        </mxCell>
        <mxCell id="FfZv3YG9JdOCyFWRbvzE-75" value="Helm" style="rounded=0;whiteSpace=wrap;html=1;fillColor=#d5e8d4;strokeColor=#82b366;fontStyle=1;strokeWidth=2;" parent="1" vertex="1">
          <mxGeometry x="421.00034482758616" y="-439.99666666666667" width="53.103448275862064" height="25.625" as="geometry" />
        </mxCell>
        <mxCell id="FfZv3YG9JdOCyFWRbvzE-78" style="edgeStyle=orthogonalEdgeStyle;rounded=0;orthogonalLoop=1;jettySize=auto;html=1;exitX=0.5;exitY=1;exitDx=0;exitDy=0;entryX=0.5;entryY=0;entryDx=0;entryDy=0;fillColor=#d5e8d4;strokeColor=#82b366;strokeWidth=2;" parent="1" source="FfZv3YG9JdOCyFWRbvzE-77" target="FfZv3YG9JdOCyFWRbvzE-73" edge="1">
          <mxGeometry relative="1" as="geometry">
            <Array as="points">
              <mxPoint x="501" y="-380" />
              <mxPoint x="471" y="-380" />
            </Array>
          </mxGeometry>
        </mxCell>
        <mxCell id="FfZv3YG9JdOCyFWRbvzE-77" value="K8S API" style="rounded=0;whiteSpace=wrap;html=1;fillColor=#d5e8d4;strokeColor=#82b366;fontStyle=1;strokeWidth=2;" parent="1" vertex="1">
          <mxGeometry x="474.1003448275861" y="-439.99666666666667" width="53.103448275862064" height="25.625" as="geometry" />
        </mxCell>
        <mxCell id="FfZv3YG9JdOCyFWRbvzE-80" value="" style="group;strokeWidth=2;" parent="1" vertex="1" connectable="0">
          <mxGeometry x="281" y="-370" width="100" height="85" as="geometry" />
        </mxCell>
        <mxCell id="FfZv3YG9JdOCyFWRbvzE-81" value="" style="rounded=1;whiteSpace=wrap;html=1;strokeWidth=2;" parent="FfZv3YG9JdOCyFWRbvzE-80" vertex="1">
          <mxGeometry width="80" height="65" as="geometry" />
        </mxCell>
        <mxCell id="FfZv3YG9JdOCyFWRbvzE-82" value="" style="rounded=1;whiteSpace=wrap;html=1;strokeWidth=2;" parent="FfZv3YG9JdOCyFWRbvzE-80" vertex="1">
          <mxGeometry x="10" y="10" width="80" height="65" as="geometry" />
        </mxCell>
        <mxCell id="FfZv3YG9JdOCyFWRbvzE-83" value="&lt;b&gt;...&lt;/b&gt;" style="rounded=1;whiteSpace=wrap;html=1;strokeWidth=2;" parent="FfZv3YG9JdOCyFWRbvzE-80" vertex="1">
          <mxGeometry x="20" y="20" width="80" height="65" as="geometry" />
        </mxCell>
        <mxCell id="FfZv3YG9JdOCyFWRbvzE-84" style="edgeStyle=orthogonalEdgeStyle;rounded=0;orthogonalLoop=1;jettySize=auto;html=1;entryX=0.5;entryY=0;entryDx=0;entryDy=0;strokeWidth=2;" parent="1" target="FfZv3YG9JdOCyFWRbvzE-83" edge="1">
          <mxGeometry relative="1" as="geometry">
            <mxPoint x="341" y="-430" as="sourcePoint" />
          </mxGeometry>
        </mxCell>
        <mxCell id="FfZv3YG9JdOCyFWRbvzE-88" style="edgeStyle=orthogonalEdgeStyle;rounded=0;orthogonalLoop=1;jettySize=auto;html=1;exitX=0.5;exitY=1;exitDx=0;exitDy=0;strokeWidth=2;" parent="1" source="FfZv3YG9JdOCyFWRbvzE-86" target="FfZv3YG9JdOCyFWRbvzE-2" edge="1">
          <mxGeometry relative="1" as="geometry" />
        </mxCell>
        <mxCell id="FfZv3YG9JdOCyFWRbvzE-89" style="edgeStyle=orthogonalEdgeStyle;rounded=0;orthogonalLoop=1;jettySize=auto;html=1;exitX=0.5;exitY=1;exitDx=0;exitDy=0;entryX=0.5;entryY=0;entryDx=0;entryDy=0;strokeWidth=2;" parent="1" source="FfZv3YG9JdOCyFWRbvzE-86" target="FfZv3YG9JdOCyFWRbvzE-3" edge="1">
          <mxGeometry relative="1" as="geometry" />
        </mxCell>
        <mxCell id="FfZv3YG9JdOCyFWRbvzE-90" style="edgeStyle=orthogonalEdgeStyle;rounded=0;orthogonalLoop=1;jettySize=auto;html=1;exitX=0.5;exitY=1;exitDx=0;exitDy=0;entryX=0.5;entryY=0;entryDx=0;entryDy=0;strokeWidth=2;" parent="1" source="FfZv3YG9JdOCyFWRbvzE-86" target="FfZv3YG9JdOCyFWRbvzE-4" edge="1">
          <mxGeometry relative="1" as="geometry" />
        </mxCell>
        <mxCell id="FfZv3YG9JdOCyFWRbvzE-86" value="&lt;b&gt;Virtualization&lt;br&gt;Provider&lt;/b&gt;" style="rounded=1;whiteSpace=wrap;html=1;fillColor=#fad9d5;strokeColor=#ae4132;strokeWidth=2;" parent="1" vertex="1">
          <mxGeometry x="71" y="-590" width="120" height="60" as="geometry" />
        </mxCell>
        <mxCell id="FfZv3YG9JdOCyFWRbvzE-92" style="edgeStyle=orthogonalEdgeStyle;rounded=0;orthogonalLoop=1;jettySize=auto;html=1;exitX=0.75;exitY=1;exitDx=0;exitDy=0;entryX=0.5;entryY=0;entryDx=0;entryDy=0;strokeWidth=2;" parent="1" source="FfZv3YG9JdOCyFWRbvzE-91" target="FfZv3YG9JdOCyFWRbvzE-68" edge="1">
          <mxGeometry relative="1" as="geometry" />
        </mxCell>
        <mxCell id="FfZv3YG9JdOCyFWRbvzE-91" value="&lt;b&gt;K8S&lt;br&gt;Provider&lt;/b&gt;" style="rounded=1;whiteSpace=wrap;html=1;fillColor=#00E673;strokeWidth=2;" parent="1" vertex="1">
          <mxGeometry x="331" y="-590" width="120" height="60" as="geometry" />
        </mxCell>
        <mxCell id="FfZv3YG9JdOCyFWRbvzE-95" value="Day 0" style="rounded=0;whiteSpace=wrap;html=1;fillColor=#d5e8d4;strokeColor=#82b366;fontStyle=1;strokeWidth=2;" parent="1" vertex="1">
          <mxGeometry x="122.90034482758614" y="-835.6266666666667" width="53.103448275862064" height="25.625" as="geometry" />
        </mxCell>
        <mxCell id="FfZv3YG9JdOCyFWRbvzE-100" style="edgeStyle=orthogonalEdgeStyle;rounded=0;orthogonalLoop=1;jettySize=auto;html=1;exitX=0.5;exitY=0;exitDx=0;exitDy=0;entryX=0.5;entryY=1;entryDx=0;entryDy=0;strokeWidth=2;fillColor=#f8cecc;strokeColor=#b85450;" parent="1" source="FfZv3YG9JdOCyFWRbvzE-96" target="FfZv3YG9JdOCyFWRbvzE-21" edge="1">
          <mxGeometry relative="1" as="geometry" />
        </mxCell>
        <mxCell id="FfZv3YG9JdOCyFWRbvzE-96" value="Day 2" style="rounded=0;whiteSpace=wrap;html=1;fillColor=#d5e8d4;strokeColor=#82b366;fontStyle=1;strokeWidth=2;" parent="1" vertex="1">
          <mxGeometry x="191.00034482758616" y="-835.6266666666667" width="53.103448275862064" height="25.625" as="geometry" />
        </mxCell>
        <mxCell id="FfZv3YG9JdOCyFWRbvzE-97" value="Day N" style="rounded=0;whiteSpace=wrap;html=1;fillColor=#d5e8d4;strokeColor=#82b366;fontStyle=1;strokeWidth=2;" parent="1" vertex="1">
          <mxGeometry x="261.00034482758616" y="-835.6266666666667" width="53.103448275862064" height="25.625" as="geometry" />
        </mxCell>
        <mxCell id="FfZv3YG9JdOCyFWRbvzE-101" style="edgeStyle=orthogonalEdgeStyle;rounded=0;orthogonalLoop=1;jettySize=auto;html=1;exitX=0.75;exitY=0;exitDx=0;exitDy=0;entryX=0.609;entryY=1;entryDx=0;entryDy=0;entryPerimeter=0;endArrow=none;endFill=0;startArrow=classic;startFill=1;strokeWidth=2;fillColor=#f8cecc;strokeColor=#b85450;" parent="1" source="FfZv3YG9JdOCyFWRbvzE-96" target="FfZv3YG9JdOCyFWRbvzE-21" edge="1">
          <mxGeometry relative="1" as="geometry" />
        </mxCell>
        <mxCell id="FfZv3YG9JdOCyFWRbvzE-105" style="edgeStyle=orthogonalEdgeStyle;rounded=0;orthogonalLoop=1;jettySize=auto;html=1;exitX=1;exitY=0.5;exitDx=0;exitDy=0;strokeWidth=2;" parent="1" source="FfZv3YG9JdOCyFWRbvzE-7" edge="1">
          <mxGeometry relative="1" as="geometry">
            <mxPoint x="380" y="-742" as="targetPoint" />
          </mxGeometry>
        </mxCell>
        <mxCell id="FfZv3YG9JdOCyFWRbvzE-145" style="edgeStyle=orthogonalEdgeStyle;rounded=0;orthogonalLoop=1;jettySize=auto;html=1;exitX=0.5;exitY=0;exitDx=0;exitDy=0;startArrow=classic;startFill=1;endArrow=none;endFill=0;strokeWidth=2;entryX=0.596;entryY=0.996;entryDx=0;entryDy=0;entryPerimeter=0;" parent="1" source="FfZv3YG9JdOCyFWRbvzE-8" target="FfZv3YG9JdOCyFWRbvzE-9" edge="1">
          <mxGeometry relative="1" as="geometry">
            <mxPoint x="515" y="-980" as="targetPoint" />
            <Array as="points">
              <mxPoint x="517" y="-960" />
              <mxPoint x="517" y="-960" />
            </Array>
          </mxGeometry>
        </mxCell>
        <mxCell id="40yBssGEDl05KHbaXxXO-5" style="edgeStyle=orthogonalEdgeStyle;rounded=0;orthogonalLoop=1;jettySize=auto;html=1;exitX=0;exitY=0.5;exitDx=0;exitDy=0;entryX=0.5;entryY=0;entryDx=0;entryDy=0;strokeWidth=2;" parent="1" source="40yBssGEDl05KHbaXxXO-2" target="FfZv3YG9JdOCyFWRbvzE-86" edge="1">
          <mxGeometry relative="1" as="geometry" />
        </mxCell>
        <mxCell id="40yBssGEDl05KHbaXxXO-6" style="edgeStyle=orthogonalEdgeStyle;rounded=0;orthogonalLoop=1;jettySize=auto;html=1;exitX=1;exitY=0.5;exitDx=0;exitDy=0;entryX=0.5;entryY=0;entryDx=0;entryDy=0;strokeWidth=2;" parent="1" source="40yBssGEDl05KHbaXxXO-2" target="FfZv3YG9JdOCyFWRbvzE-91" edge="1">
          <mxGeometry relative="1" as="geometry" />
        </mxCell>
        <mxCell id="40yBssGEDl05KHbaXxXO-2" value="&lt;b&gt;Provider&lt;br&gt;Aggregator&lt;/b&gt;" style="rounded=1;whiteSpace=wrap;html=1;fillColor=#FF0000;strokeColor=#ae4132;strokeWidth=2;" parent="1" vertex="1">
          <mxGeometry x="177.5" y="-640" width="90" height="40" as="geometry" />
        </mxCell>
        <mxCell id="lXOtyyEkVV1Wx_zVskK1-1" value="&lt;b&gt;MongoDB&lt;/b&gt;" style="shape=datastore;whiteSpace=wrap;html=1;fillColor=#6d8764;strokeColor=#3A5431;fontColor=#ffffff;strokeWidth=2;" parent="1" vertex="1">
          <mxGeometry x="41" y="-950" width="60" height="60" as="geometry" />
        </mxCell>
        <mxCell id="LudBPDsSFpq1BQu8bObj-5" value="" style="endArrow=classic;html=1;rounded=0;entryX=0.5;entryY=0;entryDx=0;entryDy=0;fontStyle=0;strokeWidth=2;" parent="1" target="FfZv3YG9JdOCyFWRbvzE-21" edge="1">
          <mxGeometry width="50" height="50" relative="1" as="geometry">
            <mxPoint x="218" y="-980" as="sourcePoint" />
            <mxPoint x="300" y="-650" as="targetPoint" />
          </mxGeometry>
        </mxCell>
        <mxCell id="7GKhBUsgXz5QMTkwyAui-5" value="" style="group;fontStyle=1;strokeWidth=2;" parent="1" vertex="1" connectable="0">
          <mxGeometry x="540" y="-370" width="100" height="85" as="geometry" />
        </mxCell>
        <mxCell id="7GKhBUsgXz5QMTkwyAui-6" value="" style="rounded=1;whiteSpace=wrap;html=1;strokeWidth=2;" parent="7GKhBUsgXz5QMTkwyAui-5" vertex="1">
          <mxGeometry width="80" height="65" as="geometry" />
        </mxCell>
        <mxCell id="7GKhBUsgXz5QMTkwyAui-7" value="" style="rounded=1;whiteSpace=wrap;html=1;strokeWidth=2;" parent="7GKhBUsgXz5QMTkwyAui-5" vertex="1">
          <mxGeometry x="10" y="10" width="80" height="65" as="geometry" />
        </mxCell>
        <mxCell id="7GKhBUsgXz5QMTkwyAui-8" value="PDUs" style="rounded=1;whiteSpace=wrap;html=1;fontStyle=1;strokeWidth=2;" parent="7GKhBUsgXz5QMTkwyAui-5" vertex="1">
          <mxGeometry x="20" y="20" width="80" height="65" as="geometry" />
        </mxCell>
        <mxCell id="7GKhBUsgXz5QMTkwyAui-11" value="" style="group" parent="1" vertex="1" connectable="0">
          <mxGeometry x="381" y="-930" width="271" height="260" as="geometry" />
        </mxCell>
        <mxCell id="FfZv3YG9JdOCyFWRbvzE-8" value="&lt;font style=&quot;font-size: 14px;&quot;&gt;NFVCL Topology&lt;/font&gt;" style="rounded=1;whiteSpace=wrap;html=1;verticalAlign=top;fillColor=#fff2cc;strokeColor=#d6b656;fontStyle=1;strokeWidth=2;" parent="7GKhBUsgXz5QMTkwyAui-11" vertex="1">
          <mxGeometry width="271" height="260" as="geometry" />
        </mxCell>
        <mxCell id="FfZv3YG9JdOCyFWRbvzE-106" value="" style="group;fillColor=none;strokeColor=none;gradientColor=none;strokeWidth=2;" parent="7GKhBUsgXz5QMTkwyAui-11" vertex="1" connectable="0">
          <mxGeometry x="20" y="130" width="110" height="120" as="geometry" />
        </mxCell>
        <mxCell id="FfZv3YG9JdOCyFWRbvzE-5" value="VIM List" style="rounded=1;whiteSpace=wrap;html=1;fillColor=#f8cecc;verticalAlign=top;fontStyle=1;movable=1;resizable=1;rotatable=1;deletable=1;editable=1;locked=0;connectable=1;strokeColor=#b85450;strokeWidth=2;" parent="FfZv3YG9JdOCyFWRbvzE-106" vertex="1">
          <mxGeometry width="110" height="120" as="geometry" />
        </mxCell>
        <mxCell id="FfZv3YG9JdOCyFWRbvzE-6" value="VIM (OS)" style="rounded=1;whiteSpace=wrap;html=1;fontStyle=1;movable=1;resizable=1;rotatable=1;deletable=1;editable=1;locked=0;connectable=1;strokeWidth=2;" parent="FfZv3YG9JdOCyFWRbvzE-106" vertex="1">
          <mxGeometry x="10" y="30" width="90" height="20" as="geometry" />
        </mxCell>
        <mxCell id="FfZv3YG9JdOCyFWRbvzE-25" value="VIM (Proxmox)" style="rounded=1;whiteSpace=wrap;html=1;fontStyle=1;movable=1;resizable=1;rotatable=1;deletable=1;editable=1;locked=0;connectable=1;strokeWidth=2;" parent="FfZv3YG9JdOCyFWRbvzE-106" vertex="1">
          <mxGeometry x="10" y="50" width="90" height="20" as="geometry" />
        </mxCell>
        <mxCell id="FfZv3YG9JdOCyFWRbvzE-28" value="..." style="rounded=1;whiteSpace=wrap;html=1;fontStyle=1;movable=1;resizable=1;rotatable=1;deletable=1;editable=1;locked=0;connectable=1;strokeWidth=2;" parent="FfZv3YG9JdOCyFWRbvzE-106" vertex="1">
          <mxGeometry x="10" y="70" width="90" height="20" as="geometry" />
        </mxCell>
        <mxCell id="FfZv3YG9JdOCyFWRbvzE-29" value="VIM (OS)" style="rounded=1;whiteSpace=wrap;html=1;fontStyle=1;movable=1;resizable=1;rotatable=1;deletable=1;editable=1;locked=0;connectable=1;strokeWidth=2;" parent="FfZv3YG9JdOCyFWRbvzE-106" vertex="1">
          <mxGeometry x="10" y="90" width="90" height="20" as="geometry" />
        </mxCell>
        <mxCell id="FfZv3YG9JdOCyFWRbvzE-107" value="" style="group;strokeWidth=2;" parent="7GKhBUsgXz5QMTkwyAui-11" vertex="1" connectable="0">
          <mxGeometry x="140" y="130" width="110" height="120" as="geometry" />
        </mxCell>
        <mxCell id="FfZv3YG9JdOCyFWRbvzE-108" value="K8S List" style="rounded=1;whiteSpace=wrap;html=1;fillColor=#cdeb8b;verticalAlign=top;fontStyle=1;movable=1;resizable=1;rotatable=1;deletable=1;editable=1;locked=0;connectable=1;strokeColor=#36393d;strokeWidth=2;" parent="FfZv3YG9JdOCyFWRbvzE-107" vertex="1">
          <mxGeometry y="30" width="110" height="90" as="geometry" />
        </mxCell>
        <mxCell id="FfZv3YG9JdOCyFWRbvzE-109" value="K8S - 0" style="rounded=1;whiteSpace=wrap;html=1;fontStyle=1;movable=1;resizable=1;rotatable=1;deletable=1;editable=1;locked=0;connectable=1;strokeWidth=2;" parent="FfZv3YG9JdOCyFWRbvzE-107" vertex="1">
          <mxGeometry x="10" y="50" width="90" height="20" as="geometry" />
        </mxCell>
        <mxCell id="FfZv3YG9JdOCyFWRbvzE-111" value="..." style="rounded=1;whiteSpace=wrap;html=1;fontStyle=1;movable=1;resizable=1;rotatable=1;deletable=1;editable=1;locked=0;connectable=1;strokeWidth=2;" parent="FfZv3YG9JdOCyFWRbvzE-107" vertex="1">
          <mxGeometry x="10" y="70" width="90" height="20" as="geometry" />
        </mxCell>
        <mxCell id="FfZv3YG9JdOCyFWRbvzE-112" value="K8S - N" style="rounded=1;whiteSpace=wrap;html=1;fontStyle=1;movable=1;resizable=1;rotatable=1;deletable=1;editable=1;locked=0;connectable=1;strokeWidth=2;" parent="FfZv3YG9JdOCyFWRbvzE-107" vertex="1">
          <mxGeometry x="10" y="90" width="90" height="20" as="geometry" />
        </mxCell>
        <mxCell id="FfZv3YG9JdOCyFWRbvzE-137" value="" style="group;strokeWidth=2;" parent="7GKhBUsgXz5QMTkwyAui-11" vertex="1" connectable="0">
          <mxGeometry x="140" y="50" width="110" height="100" as="geometry" />
        </mxCell>
        <mxCell id="FfZv3YG9JdOCyFWRbvzE-127" value="Phy Dev List" style="rounded=1;whiteSpace=wrap;html=1;fillColor=#cdeb8b;verticalAlign=top;fontStyle=1;movable=1;resizable=1;rotatable=1;deletable=1;editable=1;locked=0;connectable=1;strokeColor=#36393d;strokeWidth=2;" parent="FfZv3YG9JdOCyFWRbvzE-137" vertex="1">
          <mxGeometry width="110" height="100" as="geometry" />
        </mxCell>
        <mxCell id="FfZv3YG9JdOCyFWRbvzE-128" value="Liteon 1" style="rounded=1;whiteSpace=wrap;html=1;fontStyle=1;movable=1;resizable=1;rotatable=1;deletable=1;editable=1;locked=0;connectable=1;strokeWidth=2;" parent="FfZv3YG9JdOCyFWRbvzE-137" vertex="1">
          <mxGeometry x="10" y="42.85714285714286" width="90" height="14.285714285714286" as="geometry" />
        </mxCell>
        <mxCell id="FfZv3YG9JdOCyFWRbvzE-129" value="..." style="rounded=1;whiteSpace=wrap;html=1;fontStyle=1;movable=1;resizable=1;rotatable=1;deletable=1;editable=1;locked=0;connectable=1;strokeWidth=2;" parent="FfZv3YG9JdOCyFWRbvzE-137" vertex="1">
          <mxGeometry x="10" y="57.142857142857146" width="90" height="14.285714285714286" as="geometry" />
        </mxCell>
        <mxCell id="FfZv3YG9JdOCyFWRbvzE-130" value="Amarisoft 3" style="rounded=1;whiteSpace=wrap;html=1;fontStyle=1;movable=1;resizable=1;rotatable=1;deletable=1;editable=1;locked=0;connectable=1;strokeWidth=2;" parent="FfZv3YG9JdOCyFWRbvzE-137" vertex="1">
          <mxGeometry x="10" y="71.42857142857143" width="90" height="14.285714285714286" as="geometry" />
        </mxCell>
        <mxCell id="FfZv3YG9JdOCyFWRbvzE-140" value="Net List" style="rounded=1;whiteSpace=wrap;html=1;fillColor=#66FFFF;strokeWidth=2;fontStyle=1" parent="7GKhBUsgXz5QMTkwyAui-11" vertex="1">
          <mxGeometry x="20" y="90" width="110" height="30" as="geometry" />
        </mxCell>
        <mxCell id="FfZv3YG9JdOCyFWRbvzE-141" value="Metric Server List" style="rounded=1;whiteSpace=wrap;html=1;fillColor=#FF3399;strokeColor=#36393d;strokeWidth=2;fontStyle=1" parent="7GKhBUsgXz5QMTkwyAui-11" vertex="1">
          <mxGeometry x="20" y="50" width="110" height="30" as="geometry" />
        </mxCell>
        <mxCell id="7GKhBUsgXz5QMTkwyAui-12" value="&lt;b&gt;Provider&lt;br&gt;Aggregator&lt;/b&gt;" style="rounded=1;whiteSpace=wrap;html=1;fillColor=#FF0000;strokeColor=#ae4132;strokeWidth=2;" parent="1" vertex="1">
          <mxGeometry x="187.5" y="-630" width="90" height="40" as="geometry" />
        </mxCell>
        <mxCell id="7GKhBUsgXz5QMTkwyAui-13" value="" style="group;fontStyle=1;strokeWidth=2;" parent="1" vertex="1" connectable="0">
          <mxGeometry x="522" y="-595" width="130" height="70" as="geometry" />
        </mxCell>
        <mxCell id="7GKhBUsgXz5QMTkwyAui-14" value="" style="rounded=1;whiteSpace=wrap;html=1;strokeWidth=2;" parent="7GKhBUsgXz5QMTkwyAui-13" vertex="1">
          <mxGeometry width="104" height="53.52941176470588" as="geometry" />
        </mxCell>
        <mxCell id="7GKhBUsgXz5QMTkwyAui-15" value="" style="rounded=1;whiteSpace=wrap;html=1;strokeWidth=2;" parent="7GKhBUsgXz5QMTkwyAui-13" vertex="1">
          <mxGeometry x="13" y="8.23529411764706" width="104" height="53.52941176470588" as="geometry" />
        </mxCell>
        <mxCell id="7GKhBUsgXz5QMTkwyAui-16" value="Configurators" style="rounded=1;whiteSpace=wrap;html=1;fontStyle=1;strokeWidth=2;" parent="7GKhBUsgXz5QMTkwyAui-13" vertex="1">
          <mxGeometry x="26" y="16.47058823529412" width="104" height="53.52941176470588" as="geometry" />
        </mxCell>
        <mxCell id="7GKhBUsgXz5QMTkwyAui-19" style="edgeStyle=orthogonalEdgeStyle;rounded=0;orthogonalLoop=1;jettySize=auto;html=1;exitX=0.75;exitY=1;exitDx=0;exitDy=0;entryX=0.5;entryY=0;entryDx=0;entryDy=0;strokeWidth=2;" parent="1" source="FfZv3YG9JdOCyFWRbvzE-7" target="7GKhBUsgXz5QMTkwyAui-16" edge="1">
          <mxGeometry relative="1" as="geometry" />
        </mxCell>
        <mxCell id="7GKhBUsgXz5QMTkwyAui-20" style="edgeStyle=orthogonalEdgeStyle;rounded=0;orthogonalLoop=1;jettySize=auto;html=1;exitX=0.5;exitY=1;exitDx=0;exitDy=0;strokeWidth=2;" parent="1" source="7GKhBUsgXz5QMTkwyAui-16" target="7GKhBUsgXz5QMTkwyAui-8" edge="1">
          <mxGeometry relative="1" as="geometry" />
        </mxCell>
        <mxCell id="7GKhBUsgXz5QMTkwyAui-21" style="edgeStyle=orthogonalEdgeStyle;rounded=0;orthogonalLoop=1;jettySize=auto;html=1;entryX=0.909;entryY=0.996;entryDx=0;entryDy=0;entryPerimeter=0;endArrow=none;endFill=0;startArrow=classic;startFill=1;strokeWidth=2;" parent="1" source="FfZv3YG9JdOCyFWRbvzE-45" target="FfZv3YG9JdOCyFWRbvzE-9" edge="1">
          <mxGeometry relative="1" as="geometry" />
        </mxCell>
      </root>
    </mxGraphModel>
  </diagram>
  <diagram id="dWsDseogLCnV2PDvag3j" name="NFVCL_VIM_interaction">
    <mxGraphModel dx="925" dy="752" grid="1" gridSize="10" guides="1" tooltips="1" connect="1" arrows="1" fold="1" page="1" pageScale="1" pageWidth="827" pageHeight="1169" math="0" shadow="0">
      <root>
        <mxCell id="0" />
        <mxCell id="1" parent="0" />
        <mxCell id="fN4mliv1Qs5dYZafLazc-2" value="" style="endArrow=none;dashed=1;html=1;dashPattern=1 3;strokeWidth=2;rounded=0;fontStyle=1" parent="1" edge="1">
          <mxGeometry width="50" height="50" relative="1" as="geometry">
            <mxPoint x="60" y="320" as="sourcePoint" />
            <mxPoint x="580" y="320" as="targetPoint" />
          </mxGeometry>
        </mxCell>
        <mxCell id="fN4mliv1Qs5dYZafLazc-5" value="" style="edgeStyle=orthogonalEdgeStyle;rounded=0;orthogonalLoop=1;jettySize=auto;html=1;fontStyle=1" parent="1" source="fN4mliv1Qs5dYZafLazc-3" target="fN4mliv1Qs5dYZafLazc-4" edge="1">
          <mxGeometry relative="1" as="geometry" />
        </mxCell>
        <mxCell id="fN4mliv1Qs5dYZafLazc-6" value="Image Name" style="edgeLabel;html=1;align=center;verticalAlign=middle;resizable=0;points=[];fontStyle=1" parent="fN4mliv1Qs5dYZafLazc-5" vertex="1" connectable="0">
          <mxGeometry x="-0.4607" y="2" relative="1" as="geometry">
            <mxPoint x="22" y="-8" as="offset" />
          </mxGeometry>
        </mxCell>
        <mxCell id="fN4mliv1Qs5dYZafLazc-3" value="NFVCL" style="rounded=1;whiteSpace=wrap;html=1;fillColor=#d5e8d4;strokeColor=#82b366;fontStyle=1;strokeWidth=2;" parent="1" vertex="1">
          <mxGeometry x="70" y="220" width="120" height="60" as="geometry" />
        </mxCell>
        <mxCell id="fN4mliv1Qs5dYZafLazc-10" value="" style="edgeStyle=orthogonalEdgeStyle;rounded=0;orthogonalLoop=1;jettySize=auto;html=1;fontStyle=1" parent="1" source="fN4mliv1Qs5dYZafLazc-4" target="fN4mliv1Qs5dYZafLazc-9" edge="1">
          <mxGeometry relative="1" as="geometry" />
        </mxCell>
        <mxCell id="fN4mliv1Qs5dYZafLazc-4" value="VIM" style="rounded=1;whiteSpace=wrap;html=1;fillColor=#ffe6cc;strokeColor=#d79b00;fontStyle=1;strokeWidth=2;" parent="1" vertex="1">
          <mxGeometry x="294" y="220" width="120" height="60" as="geometry" />
        </mxCell>
        <mxCell id="fN4mliv1Qs5dYZafLazc-9" value="Virtual Machine" style="shape=cube;whiteSpace=wrap;html=1;boundedLbl=1;backgroundOutline=1;darkOpacity=0.05;darkOpacity2=0.1;fillColor=#e1d5e7;strokeColor=#9673a6;fontStyle=1;strokeWidth=2;" parent="1" vertex="1">
          <mxGeometry x="450" y="210" width="120" height="80" as="geometry" />
        </mxCell>
        <mxCell id="fN4mliv1Qs5dYZafLazc-17" value="Check image&lt;div&gt;presence&lt;/div&gt;" style="edgeStyle=orthogonalEdgeStyle;rounded=0;orthogonalLoop=1;jettySize=auto;html=1;exitX=1;exitY=0.25;exitDx=0;exitDy=0;entryX=0;entryY=0.25;entryDx=0;entryDy=0;strokeWidth=2;strokeColor=#3333FF;fontStyle=1" parent="1" source="fN4mliv1Qs5dYZafLazc-13" target="fN4mliv1Qs5dYZafLazc-15" edge="1">
          <mxGeometry x="-0.0385" y="15" relative="1" as="geometry">
            <mxPoint as="offset" />
          </mxGeometry>
        </mxCell>
        <mxCell id="fN4mliv1Qs5dYZafLazc-19" style="edgeStyle=orthogonalEdgeStyle;rounded=0;orthogonalLoop=1;jettySize=auto;html=1;exitX=1;exitY=0.75;exitDx=0;exitDy=0;entryX=0;entryY=0.75;entryDx=0;entryDy=0;strokeWidth=2;fontStyle=1" parent="1" source="fN4mliv1Qs5dYZafLazc-13" target="fN4mliv1Qs5dYZafLazc-15" edge="1">
          <mxGeometry relative="1" as="geometry" />
        </mxCell>
        <mxCell id="fN4mliv1Qs5dYZafLazc-23" value="Image URL" style="edgeLabel;html=1;align=center;verticalAlign=middle;resizable=0;points=[];fontStyle=1" parent="fN4mliv1Qs5dYZafLazc-19" vertex="1" connectable="0">
          <mxGeometry x="0.1627" y="-3" relative="1" as="geometry">
            <mxPoint x="-15" y="12" as="offset" />
          </mxGeometry>
        </mxCell>
        <mxCell id="fN4mliv1Qs5dYZafLazc-13" value="NFVCL" style="rounded=1;whiteSpace=wrap;html=1;fillColor=#d5e8d4;strokeColor=#82b366;fontStyle=1;strokeWidth=2;" parent="1" vertex="1">
          <mxGeometry x="70" y="360" width="120" height="60" as="geometry" />
        </mxCell>
        <mxCell id="fN4mliv1Qs5dYZafLazc-14" value="" style="edgeStyle=orthogonalEdgeStyle;rounded=0;orthogonalLoop=1;jettySize=auto;html=1;fontStyle=1" parent="1" source="fN4mliv1Qs5dYZafLazc-15" target="fN4mliv1Qs5dYZafLazc-16" edge="1">
          <mxGeometry relative="1" as="geometry" />
        </mxCell>
        <mxCell id="fN4mliv1Qs5dYZafLazc-18" style="edgeStyle=orthogonalEdgeStyle;rounded=0;orthogonalLoop=1;jettySize=auto;html=1;exitX=0;exitY=0.5;exitDx=0;exitDy=0;strokeWidth=2;strokeColor=#3333FF;fontStyle=1" parent="1" source="fN4mliv1Qs5dYZafLazc-15" target="fN4mliv1Qs5dYZafLazc-13" edge="1">
          <mxGeometry relative="1" as="geometry" />
        </mxCell>
        <mxCell id="fN4mliv1Qs5dYZafLazc-15" value="VIM" style="rounded=1;whiteSpace=wrap;html=1;fillColor=#ffe6cc;strokeColor=#d79b00;fontStyle=1;strokeWidth=2;" parent="1" vertex="1">
          <mxGeometry x="294" y="360" width="120" height="60" as="geometry" />
        </mxCell>
        <mxCell id="fN4mliv1Qs5dYZafLazc-16" value="Virtual Machine" style="shape=cube;whiteSpace=wrap;html=1;boundedLbl=1;backgroundOutline=1;darkOpacity=0.05;darkOpacity2=0.1;fillColor=#e1d5e7;strokeColor=#9673a6;fontStyle=1;strokeWidth=2;" parent="1" vertex="1">
          <mxGeometry x="450" y="350" width="120" height="80" as="geometry" />
        </mxCell>
        <mxCell id="fN4mliv1Qs5dYZafLazc-22" style="edgeStyle=orthogonalEdgeStyle;rounded=0;orthogonalLoop=1;jettySize=auto;html=1;exitX=0.625;exitY=0.2;exitDx=0;exitDy=0;exitPerimeter=0;entryX=0.75;entryY=1;entryDx=0;entryDy=0;fontStyle=1" parent="1" source="fN4mliv1Qs5dYZafLazc-20" target="fN4mliv1Qs5dYZafLazc-15" edge="1">
          <mxGeometry relative="1" as="geometry" />
        </mxCell>
        <mxCell id="fN4mliv1Qs5dYZafLazc-20" value="Images Repo&lt;div&gt;&lt;span style=&quot;font-size: 10px; font-family: &amp;quot;JetBrains Mono&amp;quot;, monospace; background-color: initial;&quot;&gt;images.tnt-lab.unige.it&lt;/span&gt;&lt;/div&gt;&lt;div&gt;&lt;span style=&quot;background-color: initial;&quot;&gt;&lt;font face=&quot;JetBrains Mono, monospace&quot;&gt;&lt;span style=&quot;font-size: 10px;&quot;&gt;cloud-images.ubuntu.com&lt;/span&gt;&lt;/font&gt;&lt;br&gt;&lt;/span&gt;&lt;/div&gt;" style="ellipse;shape=cloud;whiteSpace=wrap;html=1;fillColor=#dae8fc;strokeColor=#6c8ebf;fontStyle=1;strokeWidth=2;" parent="1" vertex="1">
          <mxGeometry x="236" y="470" width="236" height="100" as="geometry" />
        </mxCell>
        <mxCell id="fN4mliv1Qs5dYZafLazc-21" style="edgeStyle=orthogonalEdgeStyle;rounded=0;orthogonalLoop=1;jettySize=auto;html=1;exitX=0.25;exitY=1;exitDx=0;exitDy=0;entryX=0.373;entryY=0.123;entryDx=0;entryDy=0;entryPerimeter=0;fontStyle=1" parent="1" source="fN4mliv1Qs5dYZafLazc-15" target="fN4mliv1Qs5dYZafLazc-20" edge="1">
          <mxGeometry relative="1" as="geometry" />
        </mxCell>
        <mxCell id="fN4mliv1Qs5dYZafLazc-25" value="&lt;font style=&quot;font-size: 15px;&quot;&gt;&lt;span&gt;V1&lt;/span&gt;&lt;/font&gt;" style="text;html=1;align=center;verticalAlign=middle;whiteSpace=wrap;rounded=0;fontStyle=1" parent="1" vertex="1">
          <mxGeometry x="40" y="190" width="60" height="30" as="geometry" />
        </mxCell>
        <mxCell id="fN4mliv1Qs5dYZafLazc-26" value="&lt;font style=&quot;font-size: 15px;&quot;&gt;&lt;span&gt;V2&lt;/span&gt;&lt;/font&gt;" style="text;html=1;align=center;verticalAlign=middle;whiteSpace=wrap;rounded=0;fontStyle=1" parent="1" vertex="1">
          <mxGeometry x="40" y="330" width="60" height="30" as="geometry" />
        </mxCell>
      </root>
    </mxGraphModel>
  </diagram>
  <diagram id="-aujsMPoFX6LLHfn1K5S" name="NFVCL-example-NS">
    <mxGraphModel dx="925" dy="752" grid="1" gridSize="10" guides="1" tooltips="1" connect="1" arrows="1" fold="1" page="1" pageScale="1" pageWidth="827" pageHeight="1169" math="0" shadow="0">
      <root>
        <mxCell id="0" />
        <mxCell id="1" parent="0" />
        <mxCell id="MKKl5vyOXH6D8ZI-ggPo-40" value="&lt;b&gt;&lt;font style=&quot;font-size: 14px;&quot;&gt;VIM x&lt;/font&gt;&lt;/b&gt;" style="rounded=1;whiteSpace=wrap;html=1;labelPosition=center;verticalLabelPosition=top;align=center;verticalAlign=bottom;fillColor=#cdeb8b;strokeColor=#36393d;" parent="1" vertex="1">
          <mxGeometry x="5" y="460" width="540" height="320" as="geometry" />
        </mxCell>
        <mxCell id="MKKl5vyOXH6D8ZI-ggPo-33" value="&lt;b&gt;K8S Cluster - VM 100&lt;/b&gt;" style="rounded=1;whiteSpace=wrap;html=1;align=left;verticalAlign=top;spacingLeft=12;fillColor=#bac8d3;strokeColor=#23445d;" parent="1" vertex="1">
          <mxGeometry x="30" y="490" width="490" height="170" as="geometry" />
        </mxCell>
        <mxCell id="MKKl5vyOXH6D8ZI-ggPo-39" value="Dedicated Namespace" style="rounded=1;whiteSpace=wrap;html=1;fillColor=#fad7ac;dashed=1;fillStyle=auto;shadow=0;glass=0;strokeColor=#b46504;horizontal=1;verticalAlign=bottom;align=center;labelPosition=center;verticalLabelPosition=top;" parent="1" vertex="1">
          <mxGeometry x="40" y="520" width="460" height="120" as="geometry" />
        </mxCell>
        <mxCell id="MKKl5vyOXH6D8ZI-ggPo-24" value="" style="edgeStyle=orthogonalEdgeStyle;rounded=0;orthogonalLoop=1;jettySize=auto;html=1;endArrow=none;endFill=0;strokeWidth=2;fontStyle=1" parent="1" source="MKKl5vyOXH6D8ZI-ggPo-15" target="MKKl5vyOXH6D8ZI-ggPo-20" edge="1">
          <mxGeometry relative="1" as="geometry" />
        </mxCell>
        <mxCell id="MKKl5vyOXH6D8ZI-ggPo-15" value="NEF" style="rounded=1;whiteSpace=wrap;html=1;fontStyle=1;fillColor=#1ba1e2;fontColor=#ffffff;strokeColor=#006EAF;" parent="1" vertex="1">
          <mxGeometry x="50" y="525" width="70" height="30" as="geometry" />
        </mxCell>
        <mxCell id="MKKl5vyOXH6D8ZI-ggPo-25" value="" style="edgeStyle=orthogonalEdgeStyle;rounded=0;orthogonalLoop=1;jettySize=auto;html=1;endArrow=none;endFill=0;strokeWidth=2;fontStyle=1" parent="1" source="MKKl5vyOXH6D8ZI-ggPo-16" target="MKKl5vyOXH6D8ZI-ggPo-21" edge="1">
          <mxGeometry relative="1" as="geometry" />
        </mxCell>
        <mxCell id="MKKl5vyOXH6D8ZI-ggPo-16" value="AF" style="rounded=1;whiteSpace=wrap;html=1;fontStyle=1;fillColor=#1ba1e2;fontColor=#ffffff;strokeColor=#006EAF;" parent="1" vertex="1">
          <mxGeometry x="130" y="525" width="70" height="30" as="geometry" />
        </mxCell>
        <mxCell id="MKKl5vyOXH6D8ZI-ggPo-31" style="edgeStyle=orthogonalEdgeStyle;rounded=0;orthogonalLoop=1;jettySize=auto;html=1;exitX=0.5;exitY=1;exitDx=0;exitDy=0;endArrow=none;endFill=0;strokeWidth=2;fontStyle=1" parent="1" source="MKKl5vyOXH6D8ZI-ggPo-17" edge="1">
          <mxGeometry relative="1" as="geometry">
            <mxPoint x="264.8275862068965" y="575" as="targetPoint" />
          </mxGeometry>
        </mxCell>
        <mxCell id="MKKl5vyOXH6D8ZI-ggPo-17" value="..." style="rounded=1;whiteSpace=wrap;html=1;fontStyle=1;fillColor=#1ba1e2;fontColor=#ffffff;strokeColor=#006EAF;" parent="1" vertex="1">
          <mxGeometry x="230" y="525" width="70" height="30" as="geometry" />
        </mxCell>
        <mxCell id="MKKl5vyOXH6D8ZI-ggPo-18" value="PCF" style="rounded=1;whiteSpace=wrap;html=1;fontStyle=1;fillColor=#1ba1e2;fontColor=#ffffff;strokeColor=#006EAF;" parent="1" vertex="1">
          <mxGeometry x="330" y="525" width="70" height="30" as="geometry" />
        </mxCell>
        <mxCell id="MKKl5vyOXH6D8ZI-ggPo-19" value="UDR" style="rounded=1;whiteSpace=wrap;html=1;fontStyle=1;fillColor=#1ba1e2;fontColor=#ffffff;strokeColor=#006EAF;" parent="1" vertex="1">
          <mxGeometry x="420" y="525" width="70" height="30" as="geometry" />
        </mxCell>
        <mxCell id="MKKl5vyOXH6D8ZI-ggPo-20" value="NWDAF" style="rounded=1;whiteSpace=wrap;html=1;fontStyle=1;fillColor=#1ba1e2;fontColor=#ffffff;strokeColor=#006EAF;" parent="1" vertex="1">
          <mxGeometry x="50" y="595" width="70" height="30" as="geometry" />
        </mxCell>
        <mxCell id="MKKl5vyOXH6D8ZI-ggPo-21" value="AMF" style="rounded=1;whiteSpace=wrap;html=1;fontStyle=1;fillColor=#1ba1e2;fontColor=#ffffff;strokeColor=#006EAF;" parent="1" vertex="1">
          <mxGeometry x="130" y="595" width="70" height="30" as="geometry" />
        </mxCell>
        <mxCell id="MKKl5vyOXH6D8ZI-ggPo-28" value="" style="edgeStyle=orthogonalEdgeStyle;rounded=0;orthogonalLoop=1;jettySize=auto;html=1;endArrow=none;endFill=0;strokeWidth=2;fontStyle=1" parent="1" source="MKKl5vyOXH6D8ZI-ggPo-22" target="MKKl5vyOXH6D8ZI-ggPo-18" edge="1">
          <mxGeometry relative="1" as="geometry" />
        </mxCell>
        <mxCell id="MKKl5vyOXH6D8ZI-ggPo-22" value="SMF" style="rounded=1;whiteSpace=wrap;html=1;fontStyle=1;fillColor=#1ba1e2;fontColor=#ffffff;strokeColor=#006EAF;" parent="1" vertex="1">
          <mxGeometry x="330" y="595" width="70" height="30" as="geometry" />
        </mxCell>
        <mxCell id="MKKl5vyOXH6D8ZI-ggPo-27" value="" style="edgeStyle=orthogonalEdgeStyle;rounded=0;orthogonalLoop=1;jettySize=auto;html=1;endArrow=none;endFill=0;strokeWidth=2;fontStyle=1" parent="1" source="MKKl5vyOXH6D8ZI-ggPo-23" target="MKKl5vyOXH6D8ZI-ggPo-19" edge="1">
          <mxGeometry relative="1" as="geometry" />
        </mxCell>
        <mxCell id="MKKl5vyOXH6D8ZI-ggPo-23" value="..." style="rounded=1;whiteSpace=wrap;html=1;fontStyle=1;fillColor=#1ba1e2;fontColor=#ffffff;strokeColor=#006EAF;" parent="1" vertex="1">
          <mxGeometry x="420" y="595" width="70" height="30" as="geometry" />
        </mxCell>
        <mxCell id="MKKl5vyOXH6D8ZI-ggPo-30" value="" style="endArrow=none;html=1;rounded=0;strokeWidth=2;fontStyle=1" parent="1" edge="1">
          <mxGeometry width="50" height="50" relative="1" as="geometry">
            <mxPoint x="60" y="575" as="sourcePoint" />
            <mxPoint x="480" y="575" as="targetPoint" />
          </mxGeometry>
        </mxCell>
        <mxCell id="MKKl5vyOXH6D8ZI-ggPo-36" style="edgeStyle=orthogonalEdgeStyle;rounded=0;orthogonalLoop=1;jettySize=auto;html=1;exitX=0.5;exitY=0;exitDx=0;exitDy=0;endArrow=none;endFill=0;strokeWidth=2;" parent="1" source="MKKl5vyOXH6D8ZI-ggPo-35" edge="1">
          <mxGeometry relative="1" as="geometry">
            <mxPoint x="264.8275862068965" y="570" as="targetPoint" />
          </mxGeometry>
        </mxCell>
        <mxCell id="MKKl5vyOXH6D8ZI-ggPo-49" style="edgeStyle=orthogonalEdgeStyle;rounded=0;orthogonalLoop=1;jettySize=auto;html=1;exitX=0.75;exitY=1;exitDx=0;exitDy=0;entryX=0;entryY=0.25;entryDx=0;entryDy=0;endArrow=none;endFill=0;strokeWidth=2;" parent="1" source="MKKl5vyOXH6D8ZI-ggPo-35" target="MKKl5vyOXH6D8ZI-ggPo-41" edge="1">
          <mxGeometry relative="1" as="geometry" />
        </mxCell>
        <mxCell id="MKKl5vyOXH6D8ZI-ggPo-35" value="SVCs" style="shape=trapezoid;perimeter=trapezoidPerimeter;whiteSpace=wrap;html=1;fixedSize=1;fillColor=#1ba1e2;fontColor=#ffffff;strokeColor=#006EAF;" parent="1" vertex="1">
          <mxGeometry x="220" y="625" width="90" height="45" as="geometry" />
        </mxCell>
        <mxCell id="MKKl5vyOXH6D8ZI-ggPo-37" value="" style="ellipse;whiteSpace=wrap;html=1;aspect=fixed;fillColor=#1ba1e2;fontColor=#ffffff;strokeColor=#006EAF;" parent="1" vertex="1">
          <mxGeometry x="560" y="495" width="30" height="30" as="geometry" />
        </mxCell>
        <mxCell id="MKKl5vyOXH6D8ZI-ggPo-38" value="Deployed using a 5G Core Blueprint" style="text;html=1;align=center;verticalAlign=middle;whiteSpace=wrap;rounded=0;" parent="1" vertex="1">
          <mxGeometry x="580" y="500" width="140" height="25" as="geometry" />
        </mxCell>
        <mxCell id="MKKl5vyOXH6D8ZI-ggPo-41" value="&lt;b style=&quot;font-size: 13px;&quot;&gt;&lt;font style=&quot;font-size: 13px;&quot;&gt;VM - 101&lt;/font&gt;&lt;/b&gt;&lt;div style=&quot;font-size: 13px;&quot;&gt;&lt;b&gt;&lt;font style=&quot;font-size: 13px;&quot;&gt;UPF&lt;/font&gt;&lt;/b&gt;&lt;/div&gt;" style="rounded=1;whiteSpace=wrap;html=1;fillColor=#1ba1e2;fontColor=#ffffff;strokeColor=#006EAF;" parent="1" vertex="1">
          <mxGeometry x="350" y="690" width="120" height="60" as="geometry" />
        </mxCell>
        <mxCell id="MKKl5vyOXH6D8ZI-ggPo-42" value="RAN&lt;div&gt;Net&lt;/div&gt;" style="ellipse;shape=cloud;whiteSpace=wrap;html=1;fillColor=#fa6800;fontColor=#000000;strokeColor=#C73500;" parent="1" vertex="1">
          <mxGeometry x="215" y="740" width="120" height="80" as="geometry" />
        </mxCell>
        <mxCell id="MKKl5vyOXH6D8ZI-ggPo-47" style="rounded=0;orthogonalLoop=1;jettySize=auto;html=1;exitX=0;exitY=0.75;exitDx=0;exitDy=0;strokeWidth=2;endArrow=none;endFill=0;entryX=0.88;entryY=0.25;entryDx=0;entryDy=0;entryPerimeter=0;" parent="1" source="MKKl5vyOXH6D8ZI-ggPo-41" target="MKKl5vyOXH6D8ZI-ggPo-42" edge="1">
          <mxGeometry relative="1" as="geometry">
            <mxPoint x="208" y="792" as="targetPoint" />
          </mxGeometry>
        </mxCell>
        <mxCell id="MKKl5vyOXH6D8ZI-ggPo-48" style="rounded=0;orthogonalLoop=1;jettySize=auto;html=1;exitX=0.5;exitY=1;exitDx=0;exitDy=0;entryX=0.4;entryY=0.1;entryDx=0;entryDy=0;entryPerimeter=0;endArrow=none;endFill=0;strokeWidth=2;" parent="1" source="MKKl5vyOXH6D8ZI-ggPo-35" target="MKKl5vyOXH6D8ZI-ggPo-42" edge="1">
          <mxGeometry relative="1" as="geometry" />
        </mxCell>
        <mxCell id="MKKl5vyOXH6D8ZI-ggPo-50" value="Data&lt;div&gt;Network&lt;/div&gt;" style="ellipse;shape=cloud;whiteSpace=wrap;html=1;fillColor=#6a00ff;fontColor=#ffffff;strokeColor=#3700CC;" parent="1" vertex="1">
          <mxGeometry x="500" y="680" width="120" height="80" as="geometry" />
        </mxCell>
        <mxCell id="MKKl5vyOXH6D8ZI-ggPo-52" style="rounded=0;orthogonalLoop=1;jettySize=auto;html=1;exitX=1;exitY=0.5;exitDx=0;exitDy=0;entryX=0.16;entryY=0.55;entryDx=0;entryDy=0;entryPerimeter=0;endArrow=none;endFill=0;strokeWidth=2;" parent="1" source="MKKl5vyOXH6D8ZI-ggPo-41" target="MKKl5vyOXH6D8ZI-ggPo-50" edge="1">
          <mxGeometry relative="1" as="geometry" />
        </mxCell>
      </root>
    </mxGraphModel>
  </diagram>
  <diagram name="NFVCL-example-NS2" id="54f7k_uhknVbli27qKqw">
    <mxGraphModel dx="2074" dy="1196" grid="1" gridSize="10" guides="1" tooltips="1" connect="1" arrows="1" fold="1" page="1" pageScale="1" pageWidth="827" pageHeight="1169" math="0" shadow="0">
      <root>
        <mxCell id="c7L0FLQmrSqrXrlPwt96-0" />
        <mxCell id="c7L0FLQmrSqrXrlPwt96-1" parent="c7L0FLQmrSqrXrlPwt96-0" />
        <mxCell id="c7L0FLQmrSqrXrlPwt96-5" value="" style="rounded=1;whiteSpace=wrap;html=1;fillColor=#f8cecc;strokeColor=#b85450;fontStyle=1;fontSize=13;strokeWidth=2;" parent="c7L0FLQmrSqrXrlPwt96-1" vertex="1">
          <mxGeometry x="150" y="90" width="310" height="220" as="geometry" />
        </mxCell>
        <mxCell id="c7L0FLQmrSqrXrlPwt96-6" value="Net 1" style="ellipse;shape=cloud;whiteSpace=wrap;html=1;fontStyle=1;fontSize=13;fillColor=#1ba1e2;fontColor=#ffffff;strokeColor=#006EAF;strokeWidth=2;" parent="c7L0FLQmrSqrXrlPwt96-1" vertex="1">
          <mxGeometry x="110" y="110" width="70" height="55" as="geometry" />
        </mxCell>
        <mxCell id="c7L0FLQmrSqrXrlPwt96-7" style="edgeStyle=orthogonalEdgeStyle;rounded=0;orthogonalLoop=1;jettySize=auto;html=1;exitX=0.25;exitY=1;exitDx=0;exitDy=0;entryX=1;entryY=0.5;entryDx=0;entryDy=0;strokeWidth=2;endArrow=none;endFill=0;fontStyle=1;fontSize=13;" parent="c7L0FLQmrSqrXrlPwt96-1" source="c7L0FLQmrSqrXrlPwt96-8" target="c7L0FLQmrSqrXrlPwt96-9" edge="1">
          <mxGeometry relative="1" as="geometry" />
        </mxCell>
        <mxCell id="c7L0FLQmrSqrXrlPwt96-8" value="VyOS&lt;div style=&quot;font-size: 13px;&quot;&gt;VM&lt;/div&gt;" style="rounded=1;whiteSpace=wrap;html=1;fontStyle=1;fontSize=13;strokeWidth=2;" parent="c7L0FLQmrSqrXrlPwt96-1" vertex="1">
          <mxGeometry x="350" y="140" width="80" height="50" as="geometry" />
        </mxCell>
        <mxCell id="c7L0FLQmrSqrXrlPwt96-9" value="VyOS&lt;div style=&quot;font-size: 13px;&quot;&gt;VM&lt;/div&gt;" style="rounded=1;whiteSpace=wrap;html=1;fontStyle=1;fontSize=13;strokeWidth=2;" parent="c7L0FLQmrSqrXrlPwt96-1" vertex="1">
          <mxGeometry x="250" y="210" width="90" height="60" as="geometry" />
        </mxCell>
        <mxCell id="c7L0FLQmrSqrXrlPwt96-10" value="Net 2" style="ellipse;shape=cloud;whiteSpace=wrap;html=1;fontStyle=1;fontSize=13;fillColor=#6a00ff;fontColor=#ffffff;strokeColor=#3700CC;strokeWidth=2;" parent="c7L0FLQmrSqrXrlPwt96-1" vertex="1">
          <mxGeometry x="110" y="255" width="70" height="55" as="geometry" />
        </mxCell>
        <mxCell id="c7L0FLQmrSqrXrlPwt96-11" value="Net 3" style="ellipse;shape=cloud;whiteSpace=wrap;html=1;fontStyle=1;fontSize=13;fillColor=#60a917;strokeColor=#2D7600;fontColor=#ffffff;strokeWidth=2;" parent="c7L0FLQmrSqrXrlPwt96-1" vertex="1">
          <mxGeometry x="350" y="60" width="70" height="55" as="geometry" />
        </mxCell>
        <mxCell id="c7L0FLQmrSqrXrlPwt96-12" style="edgeStyle=orthogonalEdgeStyle;rounded=0;orthogonalLoop=1;jettySize=auto;html=1;exitX=0.5;exitY=0;exitDx=0;exitDy=0;entryX=0.55;entryY=0.95;entryDx=0;entryDy=0;entryPerimeter=0;strokeWidth=2;endArrow=none;endFill=0;fontStyle=1;fontSize=13;" parent="c7L0FLQmrSqrXrlPwt96-1" source="c7L0FLQmrSqrXrlPwt96-8" target="c7L0FLQmrSqrXrlPwt96-11" edge="1">
          <mxGeometry relative="1" as="geometry" />
        </mxCell>
        <mxCell id="c7L0FLQmrSqrXrlPwt96-13" style="edgeStyle=orthogonalEdgeStyle;rounded=0;orthogonalLoop=1;jettySize=auto;html=1;exitX=0;exitY=0.25;exitDx=0;exitDy=0;entryX=0.875;entryY=0.5;entryDx=0;entryDy=0;entryPerimeter=0;strokeWidth=2;endArrow=none;endFill=0;fontStyle=1;fontSize=13;" parent="c7L0FLQmrSqrXrlPwt96-1" source="c7L0FLQmrSqrXrlPwt96-8" target="c7L0FLQmrSqrXrlPwt96-6" edge="1">
          <mxGeometry relative="1" as="geometry" />
        </mxCell>
        <mxCell id="c7L0FLQmrSqrXrlPwt96-14" style="edgeStyle=orthogonalEdgeStyle;rounded=0;orthogonalLoop=1;jettySize=auto;html=1;exitX=0.25;exitY=0;exitDx=0;exitDy=0;entryX=0.8;entryY=0.8;entryDx=0;entryDy=0;entryPerimeter=0;strokeWidth=2;endArrow=none;endFill=0;fontStyle=1;fontSize=13;" parent="c7L0FLQmrSqrXrlPwt96-1" source="c7L0FLQmrSqrXrlPwt96-9" target="c7L0FLQmrSqrXrlPwt96-6" edge="1">
          <mxGeometry relative="1" as="geometry" />
        </mxCell>
        <mxCell id="c7L0FLQmrSqrXrlPwt96-15" style="edgeStyle=orthogonalEdgeStyle;rounded=0;orthogonalLoop=1;jettySize=auto;html=1;exitX=0.25;exitY=1;exitDx=0;exitDy=0;entryX=0.96;entryY=0.7;entryDx=0;entryDy=0;entryPerimeter=0;strokeWidth=2;endArrow=none;endFill=0;fontStyle=1;fontSize=13;" parent="c7L0FLQmrSqrXrlPwt96-1" source="c7L0FLQmrSqrXrlPwt96-9" target="c7L0FLQmrSqrXrlPwt96-10" edge="1">
          <mxGeometry relative="1" as="geometry" />
        </mxCell>
      </root>
    </mxGraphModel>
  </diagram>
  <diagram id="RCQ26JhLC5m-XvxfLySQ" name="Flavor Management">
    <mxGraphModel dx="1728" dy="997" grid="1" gridSize="10" guides="1" tooltips="1" connect="1" arrows="1" fold="1" page="1" pageScale="1" pageWidth="827" pageHeight="1169" math="0" shadow="0">
      <root>
        <mxCell id="0" />
        <mxCell id="1" parent="0" />
        <mxCell id="zU9RSxhH0Nriwk4tEvoL-1" style="edgeStyle=orthogonalEdgeStyle;rounded=0;orthogonalLoop=1;jettySize=auto;html=1;exitX=0.5;exitY=1;exitDx=0;exitDy=0;entryX=0.25;entryY=0;entryDx=0;entryDy=0;fontStyle=1;strokeWidth=2;" parent="1" source="zU9RSxhH0Nriwk4tEvoL-2" target="zU9RSxhH0Nriwk4tEvoL-7" edge="1">
          <mxGeometry relative="1" as="geometry" />
        </mxCell>
        <mxCell id="zU9RSxhH0Nriwk4tEvoL-2" value="CREATE a flavor with default values" style="rounded=1;whiteSpace=wrap;html=1;absoluteArcSize=1;arcSize=14;strokeWidth=2;fontStyle=1" parent="1" vertex="1">
          <mxGeometry x="130" y="530" width="150" height="60" as="geometry" />
        </mxCell>
        <mxCell id="zU9RSxhH0Nriwk4tEvoL-3" value="Creation request / Adding a node" style="strokeWidth=2;html=1;shape=mxgraph.flowchart.start_1;whiteSpace=wrap;fontStyle=1" parent="1" vertex="1">
          <mxGeometry x="314" y="200" width="156" height="80" as="geometry" />
        </mxCell>
        <mxCell id="zU9RSxhH0Nriwk4tEvoL-4" style="edgeStyle=orthogonalEdgeStyle;rounded=0;orthogonalLoop=1;jettySize=auto;html=1;exitX=0;exitY=0.5;exitDx=0;exitDy=0;exitPerimeter=0;entryX=0.5;entryY=0;entryDx=0;entryDy=0;fontStyle=1;strokeWidth=2;" parent="1" source="zU9RSxhH0Nriwk4tEvoL-5" target="zU9RSxhH0Nriwk4tEvoL-2" edge="1">
          <mxGeometry relative="1" as="geometry" />
        </mxCell>
        <mxCell id="zU9RSxhH0Nriwk4tEvoL-5" value="Has flavor been&lt;div&gt;&amp;nbsp;specified in the&amp;nbsp;&lt;/div&gt;&lt;div&gt;request?&lt;/div&gt;" style="strokeWidth=2;html=1;shape=mxgraph.flowchart.decision;whiteSpace=wrap;fontStyle=1" parent="1" vertex="1">
          <mxGeometry x="317" y="340" width="150" height="140" as="geometry" />
        </mxCell>
        <mxCell id="zU9RSxhH0Nriwk4tEvoL-6" style="edgeStyle=orthogonalEdgeStyle;rounded=0;orthogonalLoop=1;jettySize=auto;html=1;exitX=0.5;exitY=1;exitDx=0;exitDy=0;exitPerimeter=0;entryX=0.5;entryY=0;entryDx=0;entryDy=0;entryPerimeter=0;strokeColor=#00CC00;strokeWidth=2;fontStyle=1" parent="1" source="zU9RSxhH0Nriwk4tEvoL-3" target="zU9RSxhH0Nriwk4tEvoL-5" edge="1">
          <mxGeometry relative="1" as="geometry" />
        </mxCell>
        <mxCell id="zU9RSxhH0Nriwk4tEvoL-7" value="Use the Flavor" style="rounded=1;whiteSpace=wrap;html=1;absoluteArcSize=1;arcSize=14;strokeWidth=2;fontStyle=1" parent="1" vertex="1">
          <mxGeometry x="280" y="700" width="150" height="60" as="geometry" />
        </mxCell>
        <mxCell id="zU9RSxhH0Nriwk4tEvoL-8" style="edgeStyle=orthogonalEdgeStyle;rounded=0;orthogonalLoop=1;jettySize=auto;html=1;exitX=0.5;exitY=1;exitDx=0;exitDy=0;entryX=0.75;entryY=0;entryDx=0;entryDy=0;strokeColor=#00CC00;strokeWidth=2;fontStyle=1" parent="1" source="zU9RSxhH0Nriwk4tEvoL-9" target="zU9RSxhH0Nriwk4tEvoL-7" edge="1">
          <mxGeometry relative="1" as="geometry" />
        </mxCell>
        <mxCell id="zU9RSxhH0Nriwk4tEvoL-9" value="Create the flavor with default parameters" style="rounded=1;whiteSpace=wrap;html=1;absoluteArcSize=1;arcSize=14;strokeWidth=2;fontStyle=1" parent="1" vertex="1">
          <mxGeometry x="600" y="600" width="150" height="60" as="geometry" />
        </mxCell>
        <mxCell id="zU9RSxhH0Nriwk4tEvoL-10" style="edgeStyle=orthogonalEdgeStyle;rounded=0;orthogonalLoop=1;jettySize=auto;html=1;exitX=0;exitY=0.5;exitDx=0;exitDy=0;exitPerimeter=0;entryX=0.5;entryY=0;entryDx=0;entryDy=0;fontStyle=1;strokeWidth=2;" parent="1" source="zU9RSxhH0Nriwk4tEvoL-12" target="zU9RSxhH0Nriwk4tEvoL-7" edge="1">
          <mxGeometry relative="1" as="geometry" />
        </mxCell>
        <mxCell id="zU9RSxhH0Nriwk4tEvoL-11" style="edgeStyle=orthogonalEdgeStyle;rounded=0;orthogonalLoop=1;jettySize=auto;html=1;exitX=1;exitY=0.5;exitDx=0;exitDy=0;exitPerimeter=0;entryX=0.5;entryY=0;entryDx=0;entryDy=0;strokeColor=#00CC00;strokeWidth=2;fontStyle=1" parent="1" source="zU9RSxhH0Nriwk4tEvoL-12" target="zU9RSxhH0Nriwk4tEvoL-9" edge="1">
          <mxGeometry relative="1" as="geometry" />
        </mxCell>
        <mxCell id="zU9RSxhH0Nriwk4tEvoL-12" value="Is the name of the flavor present?" style="strokeWidth=2;html=1;shape=mxgraph.flowchart.decision;whiteSpace=wrap;fontStyle=1" parent="1" vertex="1">
          <mxGeometry x="500" y="440" width="130" height="130" as="geometry" />
        </mxCell>
        <mxCell id="zU9RSxhH0Nriwk4tEvoL-13" style="edgeStyle=orthogonalEdgeStyle;rounded=0;orthogonalLoop=1;jettySize=auto;html=1;exitX=1;exitY=0.5;exitDx=0;exitDy=0;exitPerimeter=0;entryX=0.5;entryY=0;entryDx=0;entryDy=0;entryPerimeter=0;strokeColor=#00CC00;strokeWidth=2;fontStyle=1" parent="1" source="zU9RSxhH0Nriwk4tEvoL-5" target="zU9RSxhH0Nriwk4tEvoL-12" edge="1">
          <mxGeometry relative="1" as="geometry" />
        </mxCell>
        <mxCell id="zU9RSxhH0Nriwk4tEvoL-14" value="Legend" style="shape=table;startSize=30;container=1;collapsible=0;childLayout=tableLayout;fontSize=16;align=left;verticalAlign=top;fillColor=none;strokeColor=default;fontColor=#4D4D4D;fontStyle=1;spacingLeft=6;spacing=0;resizable=0;strokeWidth=2;" parent="1" vertex="1">
          <mxGeometry x="530" y="210" width="180" height="60" as="geometry" />
        </mxCell>
        <mxCell id="zU9RSxhH0Nriwk4tEvoL-15" value="" style="shape=tableRow;horizontal=0;startSize=0;swimlaneHead=0;swimlaneBody=0;strokeColor=inherit;top=0;left=0;bottom=0;right=0;collapsible=0;dropTarget=0;fillColor=none;points=[[0,0.5],[1,0.5]];portConstraint=eastwest;fontSize=12;fontStyle=1;strokeWidth=2;" parent="zU9RSxhH0Nriwk4tEvoL-14" vertex="1">
          <mxGeometry y="30" width="180" height="30" as="geometry" />
        </mxCell>
        <mxCell id="zU9RSxhH0Nriwk4tEvoL-16" value="Default" style="shape=partialRectangle;html=1;whiteSpace=wrap;connectable=0;strokeColor=inherit;overflow=hidden;fillColor=#00CC00;top=0;left=0;bottom=0;right=0;pointerEvents=1;fontSize=12;align=left;fontColor=#FFFFFF;gradientColor=none;spacingLeft=10;spacingRight=4;fontStyle=1;strokeWidth=2;" parent="zU9RSxhH0Nriwk4tEvoL-15" vertex="1">
          <mxGeometry width="180" height="30" as="geometry">
            <mxRectangle width="180" height="30" as="alternateBounds" />
          </mxGeometry>
        </mxCell>
      </root>
    </mxGraphModel>
  </diagram>
  <diagram id="j3RwsfVSSLbCRWO6Itxt" name="Helm-Chart">
    <mxGraphModel dx="925" dy="752" grid="1" gridSize="10" guides="1" tooltips="1" connect="1" arrows="1" fold="1" page="1" pageScale="1" pageWidth="827" pageHeight="1169" math="0" shadow="0">
      <root>
        <mxCell id="0" />
        <mxCell id="1" parent="0" />
        <mxCell id="vRIU-i3Au-LRC4ob9Dk7-2" value="" style="endArrow=none;dashed=1;html=1;dashPattern=1 3;strokeWidth=1;rounded=0;fontSize=11;" parent="1" edge="1">
          <mxGeometry width="50" height="50" relative="1" as="geometry">
            <mxPoint x="90" y="280" as="sourcePoint" />
            <mxPoint x="630" y="280" as="targetPoint" />
          </mxGeometry>
        </mxCell>
        <mxCell id="vRIU-i3Au-LRC4ob9Dk7-3" value="NFVCL&lt;div style=&quot;font-size: 14px;&quot;&gt;Deployment&lt;/div&gt;" style="rounded=1;whiteSpace=wrap;html=1;fillColor=#dae8fc;strokeColor=#6c8ebf;strokeWidth=2;fontStyle=1;fontSize=14;" parent="1" vertex="1">
          <mxGeometry x="120" y="320" width="120" height="60" as="geometry" />
        </mxCell>
        <mxCell id="vRIU-i3Au-LRC4ob9Dk7-10" style="edgeStyle=orthogonalEdgeStyle;rounded=0;orthogonalLoop=1;jettySize=auto;html=1;exitX=0.5;exitY=1;exitDx=0;exitDy=0;strokeWidth=2;fontStyle=1;fontSize=14;" parent="1" source="vRIU-i3Au-LRC4ob9Dk7-5" target="vRIU-i3Au-LRC4ob9Dk7-3" edge="1">
          <mxGeometry relative="1" as="geometry" />
        </mxCell>
        <mxCell id="aSLjZxocCncqxYvYNxrI-1" value="Port 5002" style="edgeLabel;html=1;align=center;verticalAlign=middle;resizable=0;points=[];fontStyle=1;fontSize=13;" parent="vRIU-i3Au-LRC4ob9Dk7-10" vertex="1" connectable="0">
          <mxGeometry x="-0.4286" y="1" relative="1" as="geometry">
            <mxPoint x="-1" y="10" as="offset" />
          </mxGeometry>
        </mxCell>
        <mxCell id="vRIU-i3Au-LRC4ob9Dk7-5" value="NFVCL&lt;div style=&quot;font-size: 14px;&quot;&gt;SVC&lt;/div&gt;&lt;div style=&quot;font-size: 14px;&quot;&gt;Load Balancer&lt;/div&gt;" style="ellipse;whiteSpace=wrap;html=1;fillColor=#e1d5e7;strokeColor=#9673a6;fontStyle=1;fontSize=14;strokeWidth=2;" parent="1" vertex="1">
          <mxGeometry x="120" y="170" width="120" height="80" as="geometry" />
        </mxCell>
        <mxCell id="vRIU-i3Au-LRC4ob9Dk7-9" style="edgeStyle=orthogonalEdgeStyle;rounded=0;orthogonalLoop=1;jettySize=auto;html=1;exitX=0.5;exitY=1;exitDx=0;exitDy=0;entryX=0.5;entryY=1;entryDx=0;entryDy=0;strokeWidth=2;endArrow=none;endFill=0;" parent="1" source="vRIU-i3Au-LRC4ob9Dk7-6" target="vRIU-i3Au-LRC4ob9Dk7-7" edge="1">
          <mxGeometry relative="1" as="geometry" />
        </mxCell>
        <mxCell id="vRIU-i3Au-LRC4ob9Dk7-14" style="edgeStyle=orthogonalEdgeStyle;rounded=0;orthogonalLoop=1;jettySize=auto;html=1;exitX=0.5;exitY=1;exitDx=0;exitDy=0;entryX=0.5;entryY=1;entryDx=0;entryDy=0;endArrow=none;endFill=0;strokeWidth=2;" parent="1" source="vRIU-i3Au-LRC4ob9Dk7-6" target="vRIU-i3Au-LRC4ob9Dk7-3" edge="1">
          <mxGeometry relative="1" as="geometry" />
        </mxCell>
        <mxCell id="vRIU-i3Au-LRC4ob9Dk7-6" value="MongoDB&lt;div style=&quot;font-size: 14px;&quot;&gt;Deployment&lt;/div&gt;" style="rounded=1;whiteSpace=wrap;html=1;fillColor=#d5e8d4;strokeColor=#82b366;strokeWidth=2;fontStyle=1;fontSize=14;" parent="1" vertex="1">
          <mxGeometry x="294" y="320" width="120" height="60" as="geometry" />
        </mxCell>
        <mxCell id="vRIU-i3Au-LRC4ob9Dk7-7" value="Redis&lt;div style=&quot;font-size: 14px;&quot;&gt;Deployment&lt;/div&gt;" style="rounded=1;whiteSpace=wrap;html=1;fillColor=#f8cecc;strokeColor=#b85450;strokeWidth=2;fontStyle=1;fontSize=14;" parent="1" vertex="1">
          <mxGeometry x="460" y="320" width="120" height="60" as="geometry" />
        </mxCell>
        <mxCell id="vRIU-i3Au-LRC4ob9Dk7-17" value="" style="edgeStyle=orthogonalEdgeStyle;rounded=0;orthogonalLoop=1;jettySize=auto;html=1;strokeWidth=2;fontStyle=1;fontSize=14;" parent="1" source="vRIU-i3Au-LRC4ob9Dk7-15" target="vRIU-i3Au-LRC4ob9Dk7-6" edge="1">
          <mxGeometry relative="1" as="geometry" />
        </mxCell>
        <mxCell id="aSLjZxocCncqxYvYNxrI-2" value="Port 27017" style="edgeLabel;html=1;align=center;verticalAlign=middle;resizable=0;points=[];fontStyle=1;fontSize=13;" parent="vRIU-i3Au-LRC4ob9Dk7-17" vertex="1" connectable="0">
          <mxGeometry x="-0.4571" y="2" relative="1" as="geometry">
            <mxPoint x="-6" y="11" as="offset" />
          </mxGeometry>
        </mxCell>
        <mxCell id="vRIU-i3Au-LRC4ob9Dk7-15" value="Mongo&lt;div style=&quot;font-size: 14px;&quot;&gt;SVC&lt;br style=&quot;font-size: 14px;&quot;&gt;Node Port&lt;/div&gt;" style="ellipse;whiteSpace=wrap;html=1;fillColor=#fff2cc;strokeColor=#d6b656;fontStyle=1;fontSize=14;strokeWidth=2;" parent="1" vertex="1">
          <mxGeometry x="294" y="170" width="120" height="80" as="geometry" />
        </mxCell>
        <mxCell id="vRIU-i3Au-LRC4ob9Dk7-16" value="Redis&lt;div style=&quot;font-size: 14px;&quot;&gt;SVC&lt;br style=&quot;font-size: 14px;&quot;&gt;Node Port&lt;/div&gt;" style="ellipse;whiteSpace=wrap;html=1;fillColor=#fff2cc;strokeColor=#d6b656;fontStyle=1;fontSize=14;strokeWidth=2;" parent="1" vertex="1">
          <mxGeometry x="460" y="170" width="120" height="80" as="geometry" />
        </mxCell>
        <mxCell id="vRIU-i3Au-LRC4ob9Dk7-21" style="edgeStyle=orthogonalEdgeStyle;rounded=0;orthogonalLoop=1;jettySize=auto;html=1;exitX=0.5;exitY=1;exitDx=0;exitDy=0;strokeWidth=3;fillColor=#d5e8d4;strokeColor=#82b366;" parent="1" source="vRIU-i3Au-LRC4ob9Dk7-20" target="vRIU-i3Au-LRC4ob9Dk7-5" edge="1">
          <mxGeometry relative="1" as="geometry" />
        </mxCell>
        <mxCell id="vRIU-i3Au-LRC4ob9Dk7-22" style="edgeStyle=orthogonalEdgeStyle;rounded=0;orthogonalLoop=1;jettySize=auto;html=1;exitX=0.5;exitY=1;exitDx=0;exitDy=0;strokeWidth=3;fillColor=#d5e8d4;strokeColor=#82b366;" parent="1" source="vRIU-i3Au-LRC4ob9Dk7-20" target="vRIU-i3Au-LRC4ob9Dk7-15" edge="1">
          <mxGeometry relative="1" as="geometry" />
        </mxCell>
        <mxCell id="vRIU-i3Au-LRC4ob9Dk7-23" style="edgeStyle=orthogonalEdgeStyle;rounded=0;orthogonalLoop=1;jettySize=auto;html=1;exitX=0.5;exitY=1;exitDx=0;exitDy=0;entryX=0.5;entryY=0;entryDx=0;entryDy=0;strokeWidth=3;fillColor=#d5e8d4;strokeColor=#82b366;" parent="1" source="vRIU-i3Au-LRC4ob9Dk7-20" target="vRIU-i3Au-LRC4ob9Dk7-16" edge="1">
          <mxGeometry relative="1" as="geometry" />
        </mxCell>
        <mxCell id="vRIU-i3Au-LRC4ob9Dk7-20" value="" style="image;html=1;image=img/lib/clip_art/computers/Network_128x128.png" parent="1" vertex="1">
          <mxGeometry x="314" y="10" width="80" height="80" as="geometry" />
        </mxCell>
        <mxCell id="vRIU-i3Au-LRC4ob9Dk7-24" value="Port 6379" style="edgeStyle=orthogonalEdgeStyle;rounded=0;orthogonalLoop=1;jettySize=auto;html=1;exitX=0.5;exitY=1;exitDx=0;exitDy=0;entryX=0.501;entryY=-0.069;entryDx=0;entryDy=0;entryPerimeter=0;strokeWidth=2;fontStyle=1;fontSize=14;" parent="1" source="vRIU-i3Au-LRC4ob9Dk7-16" target="vRIU-i3Au-LRC4ob9Dk7-7" edge="1">
          <mxGeometry relative="1" as="geometry" />
        </mxCell>
        <mxCell id="aSLjZxocCncqxYvYNxrI-3" value="&lt;span style=&quot;color: rgb(0, 0, 0); font-family: Helvetica; font-style: normal; font-variant-ligatures: normal; font-variant-caps: normal; letter-spacing: normal; orphans: 2; text-align: center; text-indent: 0px; text-transform: none; widows: 2; word-spacing: 0px; -webkit-text-stroke-width: 0px; white-space: nowrap; background-color: rgb(255, 255, 255); text-decoration-thickness: initial; text-decoration-style: initial; text-decoration-color: initial; float: none; display: inline !important; font-size: 13px;&quot;&gt;&lt;span style=&quot;font-size: 13px;&quot;&gt;&lt;font style=&quot;font-size: 13px;&quot;&gt;Port 5002&lt;/font&gt;&lt;/span&gt;&lt;/span&gt;" style="text;whiteSpace=wrap;html=1;fontSize=13;fontStyle=1" parent="1" vertex="1">
          <mxGeometry x="110" y="140" width="80" height="40" as="geometry" />
        </mxCell>
        <mxCell id="aSLjZxocCncqxYvYNxrI-6" value="&lt;span style=&quot;color: rgb(0, 0, 0); font-family: Helvetica; font-style: normal; font-variant-ligatures: normal; font-variant-caps: normal; letter-spacing: normal; orphans: 2; text-align: center; text-indent: 0px; text-transform: none; widows: 2; word-spacing: 0px; -webkit-text-stroke-width: 0px; white-space: nowrap; background-color: rgb(255, 255, 255); text-decoration-thickness: initial; text-decoration-style: initial; text-decoration-color: initial; float: none; display: inline !important; font-size: 13px;&quot;&gt;&lt;span style=&quot;font-size: 13px;&quot;&gt;&lt;font style=&quot;font-size: 13px;&quot;&gt;Port 31000&lt;/font&gt;&lt;/span&gt;&lt;/span&gt;" style="text;whiteSpace=wrap;html=1;fontSize=13;fontStyle=1" parent="1" vertex="1">
          <mxGeometry x="280" y="140" width="80" height="40" as="geometry" />
        </mxCell>
        <mxCell id="aSLjZxocCncqxYvYNxrI-7" value="&lt;span style=&quot;color: rgb(0, 0, 0); font-family: Helvetica; font-style: normal; font-variant-ligatures: normal; font-variant-caps: normal; letter-spacing: normal; orphans: 2; text-align: center; text-indent: 0px; text-transform: none; widows: 2; word-spacing: 0px; -webkit-text-stroke-width: 0px; white-space: nowrap; background-color: rgb(255, 255, 255); text-decoration-thickness: initial; text-decoration-style: initial; text-decoration-color: initial; float: none; display: inline !important; font-size: 13px;&quot;&gt;&lt;span style=&quot;font-size: 13px;&quot;&gt;&lt;font style=&quot;font-size: 13px;&quot;&gt;Port 32000&lt;/font&gt;&lt;/span&gt;&lt;/span&gt;&lt;div style=&quot;font-size: 13px;&quot;&gt;&lt;span style=&quot;color: rgb(0, 0, 0); font-family: Helvetica; font-style: normal; font-variant-ligatures: normal; font-variant-caps: normal; letter-spacing: normal; orphans: 2; text-align: center; text-indent: 0px; text-transform: none; widows: 2; word-spacing: 0px; -webkit-text-stroke-width: 0px; white-space: nowrap; background-color: rgb(255, 255, 255); text-decoration-thickness: initial; text-decoration-style: initial; text-decoration-color: initial; float: none; display: inline !important; font-size: 13px;&quot;&gt;&lt;span style=&quot;font-size: 13px;&quot;&gt;&lt;font style=&quot;font-size: 13px;&quot;&gt;&lt;br style=&quot;font-size: 13px;&quot;&gt;&lt;/font&gt;&lt;/span&gt;&lt;/span&gt;&lt;/div&gt;" style="text;whiteSpace=wrap;html=1;fontSize=13;fontStyle=1" parent="1" vertex="1">
          <mxGeometry x="450" y="140" width="80" height="40" as="geometry" />
        </mxCell>
        <mxCell id="aSLjZxocCncqxYvYNxrI-10" value="&lt;b&gt;&lt;font style=&quot;font-size: 15px;&quot;&gt;Access Network&lt;/font&gt;&lt;/b&gt;" style="text;html=1;align=center;verticalAlign=middle;whiteSpace=wrap;rounded=0;" parent="1" vertex="1">
          <mxGeometry x="370" y="100" width="136" height="30" as="geometry" />
        </mxCell>
        <mxCell id="aSLjZxocCncqxYvYNxrI-11" value="&lt;b&gt;&lt;font style=&quot;font-size: 15px;&quot;&gt;Internal Network&lt;/font&gt;&lt;/b&gt;" style="text;html=1;align=center;verticalAlign=middle;whiteSpace=wrap;rounded=0;" parent="1" vertex="1">
          <mxGeometry x="370" y="400" width="136" height="30" as="geometry" />
        </mxCell>
      </root>
    </mxGraphModel>
  </diagram>
  <diagram id="RgBqTdSus4qgu-fkRLDH" name="Network-Ecosystem">
    <mxGraphModel dx="1430" dy="825" grid="1" gridSize="10" guides="1" tooltips="1" connect="1" arrows="1" fold="1" page="1" pageScale="1" pageWidth="1169" pageHeight="827" math="0" shadow="0">
      <root>
        <mxCell id="0" />
        <mxCell id="1" parent="0" />
        <mxCell id="IUL3tElsnNwCQ5gK7S0M-1" value="Physical infrastructure" style="rounded=1;whiteSpace=wrap;html=1;fillColor=#bac8d3;strokeColor=#23445d;fontStyle=1" parent="1" vertex="1">
          <mxGeometry x="95" y="550" width="965" height="40" as="geometry" />
        </mxCell>
        <mxCell id="IUL3tElsnNwCQ5gK7S0M-2" value="Virtualized Infrastructure Manager 1&lt;div&gt;(Openstack)&lt;/div&gt;" style="rounded=1;whiteSpace=wrap;html=1;fillColor=#ffff88;strokeColor=#36393d;fontStyle=1" parent="1" vertex="1">
          <mxGeometry x="95" y="480" width="265" height="50" as="geometry" />
        </mxCell>
        <mxCell id="IUL3tElsnNwCQ5gK7S0M-3" value="Virtualized Infrastructure Manager 2&lt;div&gt;(Proxmox)&lt;/div&gt;" style="rounded=1;whiteSpace=wrap;html=1;fillColor=#fff2cc;strokeColor=#d6b656;fontStyle=1" parent="1" vertex="1">
          <mxGeometry x="370" y="480" width="260" height="50" as="geometry" />
        </mxCell>
        <mxCell id="VfKDs60Cd9ujNJnWJ9GB-2" style="edgeStyle=orthogonalEdgeStyle;rounded=0;orthogonalLoop=1;jettySize=auto;html=1;exitX=0.5;exitY=0;exitDx=0;exitDy=0;entryX=0.5;entryY=1;entryDx=0;entryDy=0;endArrow=none;endFill=0;" edge="1" parent="1" source="IUL3tElsnNwCQ5gK7S0M-5" target="6KzvHM-l7bk7i3G01lBe-2">
          <mxGeometry relative="1" as="geometry" />
        </mxCell>
        <mxCell id="IUL3tElsnNwCQ5gK7S0M-5" value="VM&lt;div&gt;UPF&lt;/div&gt;&lt;div&gt;&lt;i style=&quot;font-weight: normal;&quot;&gt;VNF&lt;/i&gt;&lt;br&gt;&lt;/div&gt;" style="ellipse;whiteSpace=wrap;html=1;fillColor=#dae8fc;strokeColor=#6c8ebf;fontStyle=1" parent="1" vertex="1">
          <mxGeometry x="95" y="364" width="45" height="46" as="geometry" />
        </mxCell>
        <mxCell id="IUL3tElsnNwCQ5gK7S0M-6" value="&lt;div&gt;Cluster K8S&lt;/div&gt;" style="rounded=1;whiteSpace=wrap;html=1;fillColor=#e3c800;fontColor=#000000;strokeColor=#B09500;fontStyle=1" parent="1" vertex="1">
          <mxGeometry x="640" y="480" width="230" height="50" as="geometry" />
        </mxCell>
        <mxCell id="IUL3tElsnNwCQ5gK7S0M-22" style="edgeStyle=orthogonalEdgeStyle;rounded=0;orthogonalLoop=1;jettySize=auto;html=1;exitX=0.55;exitY=0.95;exitDx=0;exitDy=0;exitPerimeter=0;entryX=0.5;entryY=0;entryDx=0;entryDy=0;curved=1;endArrow=none;endFill=0;" parent="1" source="IUL3tElsnNwCQ5gK7S0M-7" target="IUL3tElsnNwCQ5gK7S0M-8" edge="1">
          <mxGeometry relative="1" as="geometry" />
        </mxCell>
        <mxCell id="IUL3tElsnNwCQ5gK7S0M-23" style="edgeStyle=orthogonalEdgeStyle;rounded=0;orthogonalLoop=1;jettySize=auto;html=1;exitX=0.13;exitY=0.77;exitDx=0;exitDy=0;exitPerimeter=0;entryX=1;entryY=0;entryDx=0;entryDy=0;curved=1;endArrow=none;endFill=0;" parent="1" source="IUL3tElsnNwCQ5gK7S0M-7" target="IUL3tElsnNwCQ5gK7S0M-5" edge="1">
          <mxGeometry relative="1" as="geometry" />
        </mxCell>
        <mxCell id="IUL3tElsnNwCQ5gK7S0M-7" value="" style="ellipse;shape=cloud;whiteSpace=wrap;html=1;fillColor=#dae8fc;strokeColor=#6c8ebf;fontStyle=1" parent="1" vertex="1">
          <mxGeometry x="150" y="324" width="60" height="40" as="geometry" />
        </mxCell>
        <mxCell id="IUL3tElsnNwCQ5gK7S0M-8" value="VM&lt;div&gt;gNB&lt;/div&gt;&lt;div&gt;&lt;i style=&quot;font-weight: normal;&quot;&gt;VNF&lt;/i&gt;&lt;br&gt;&lt;/div&gt;" style="ellipse;whiteSpace=wrap;html=1;fillColor=#dae8fc;strokeColor=#6c8ebf;fontStyle=1" parent="1" vertex="1">
          <mxGeometry x="155" y="394" width="50" height="46" as="geometry" />
        </mxCell>
        <mxCell id="IUL3tElsnNwCQ5gK7S0M-9" value="&amp;nbsp;Cluster K8S" style="rounded=1;whiteSpace=wrap;html=1;fillColor=#d5e8d4;strokeColor=#82b366;fontStyle=1" parent="1" vertex="1">
          <mxGeometry x="452.5" y="300" width="167.5" height="40" as="geometry" />
        </mxCell>
        <mxCell id="IUL3tElsnNwCQ5gK7S0M-10" value="VM&lt;div&gt;&lt;i style=&quot;font-weight: normal;&quot;&gt;VNF&lt;/i&gt;&lt;br&gt;&lt;/div&gt;" style="ellipse;whiteSpace=wrap;html=1;fillColor=#d5e8d4;strokeColor=#82b366;fontStyle=1" parent="1" vertex="1">
          <mxGeometry x="478.75" y="413" width="85" height="60" as="geometry" />
        </mxCell>
        <mxCell id="IUL3tElsnNwCQ5gK7S0M-11" value="VM&lt;div&gt;&lt;i style=&quot;font-weight: normal;&quot;&gt;VNF&lt;/i&gt;&lt;br&gt;&lt;/div&gt;" style="ellipse;whiteSpace=wrap;html=1;fillColor=#d5e8d4;strokeColor=#82b366;fontStyle=1" parent="1" vertex="1">
          <mxGeometry x="452.5" y="367" width="45" height="46" as="geometry" />
        </mxCell>
        <mxCell id="IUL3tElsnNwCQ5gK7S0M-12" value="VM&lt;div&gt;&lt;i style=&quot;font-weight: normal;&quot;&gt;VNF&lt;/i&gt;&lt;br&gt;&lt;/div&gt;" style="ellipse;whiteSpace=wrap;html=1;fillColor=#d5e8d4;strokeColor=#82b366;fontStyle=1" parent="1" vertex="1">
          <mxGeometry x="560" y="370" width="48.75" height="43" as="geometry" />
        </mxCell>
        <mxCell id="IUL3tElsnNwCQ5gK7S0M-13" value="VM&lt;div&gt;&lt;i style=&quot;font-weight: normal;&quot;&gt;VNF&lt;/i&gt;&lt;br&gt;&lt;/div&gt;" style="ellipse;whiteSpace=wrap;html=1;fillColor=#f8cecc;strokeColor=#b85450;fontStyle=1" parent="1" vertex="1">
          <mxGeometry x="295" y="410" width="50" height="40" as="geometry" />
        </mxCell>
        <mxCell id="IUL3tElsnNwCQ5gK7S0M-14" value="VM&lt;div&gt;&lt;i style=&quot;font-weight: normal;&quot;&gt;VNF&lt;/i&gt;&lt;/div&gt;" style="ellipse;whiteSpace=wrap;html=1;fillColor=#f8cecc;strokeColor=#b85450;fontStyle=1" parent="1" vertex="1">
          <mxGeometry x="230" y="356" width="55" height="62" as="geometry" />
        </mxCell>
        <mxCell id="IUL3tElsnNwCQ5gK7S0M-24" style="edgeStyle=orthogonalEdgeStyle;rounded=0;orthogonalLoop=1;jettySize=auto;html=1;exitX=0.13;exitY=0.77;exitDx=0;exitDy=0;exitPerimeter=0;entryX=1;entryY=0;entryDx=0;entryDy=0;endArrow=none;endFill=0;curved=1;" parent="1" source="IUL3tElsnNwCQ5gK7S0M-15" target="IUL3tElsnNwCQ5gK7S0M-14" edge="1">
          <mxGeometry relative="1" as="geometry" />
        </mxCell>
        <mxCell id="IUL3tElsnNwCQ5gK7S0M-25" style="edgeStyle=orthogonalEdgeStyle;rounded=0;orthogonalLoop=1;jettySize=auto;html=1;exitX=0.55;exitY=0.95;exitDx=0;exitDy=0;exitPerimeter=0;entryX=0.5;entryY=0;entryDx=0;entryDy=0;endArrow=none;endFill=0;curved=1;" parent="1" source="IUL3tElsnNwCQ5gK7S0M-15" target="IUL3tElsnNwCQ5gK7S0M-13" edge="1">
          <mxGeometry relative="1" as="geometry" />
        </mxCell>
        <mxCell id="IUL3tElsnNwCQ5gK7S0M-15" value="Pre&lt;div style=&quot;font-size: 10px;&quot;&gt;Existing&lt;/div&gt;" style="ellipse;shape=cloud;whiteSpace=wrap;html=1;fontSize=10;fontStyle=1" parent="1" vertex="1">
          <mxGeometry x="285" y="327" width="60" height="40" as="geometry" />
        </mxCell>
        <mxCell id="IUL3tElsnNwCQ5gK7S0M-16" value="" style="endArrow=none;dashed=1;html=1;dashPattern=1 3;strokeWidth=2;rounded=0;" parent="1" edge="1">
          <mxGeometry width="50" height="50" relative="1" as="geometry">
            <mxPoint x="360" y="470" as="sourcePoint" />
            <mxPoint x="360" y="270" as="targetPoint" />
          </mxGeometry>
        </mxCell>
        <mxCell id="IUL3tElsnNwCQ5gK7S0M-17" value="" style="endArrow=none;dashed=1;html=1;dashPattern=1 3;strokeWidth=2;rounded=0;" parent="1" edge="1">
          <mxGeometry width="50" height="50" relative="1" as="geometry">
            <mxPoint x="630" y="470" as="sourcePoint" />
            <mxPoint x="630" y="270" as="targetPoint" />
          </mxGeometry>
        </mxCell>
        <mxCell id="IUL3tElsnNwCQ5gK7S0M-18" value="" style="endArrow=none;dashed=1;html=1;dashPattern=1 3;strokeWidth=2;rounded=0;" parent="1" edge="1">
          <mxGeometry width="50" height="50" relative="1" as="geometry">
            <mxPoint x="880" y="470" as="sourcePoint" />
            <mxPoint x="880" y="270" as="targetPoint" />
          </mxGeometry>
        </mxCell>
        <mxCell id="IUL3tElsnNwCQ5gK7S0M-19" value="" style="shape=mxgraph.signs.transportation.anchor_1;html=1;pointerEvents=1;fillColor=#000000;strokeColor=none;verticalLabelPosition=bottom;verticalAlign=top;align=center;" parent="1" vertex="1">
          <mxGeometry x="465" y="356" width="20" height="20" as="geometry" />
        </mxCell>
        <mxCell id="IUL3tElsnNwCQ5gK7S0M-20" value="" style="shape=mxgraph.signs.transportation.anchor_1;html=1;pointerEvents=1;fillColor=#000000;strokeColor=none;verticalLabelPosition=bottom;verticalAlign=top;align=center;" parent="1" vertex="1">
          <mxGeometry x="574.38" y="356" width="20" height="24" as="geometry" />
        </mxCell>
        <mxCell id="IUL3tElsnNwCQ5gK7S0M-21" value="" style="shape=mxgraph.signs.transportation.anchor_1;html=1;pointerEvents=1;fillColor=#000000;strokeColor=none;verticalLabelPosition=bottom;verticalAlign=top;align=center;" parent="1" vertex="1">
          <mxGeometry x="511.25" y="394" width="20" height="24" as="geometry" />
        </mxCell>
        <mxCell id="IUL3tElsnNwCQ5gK7S0M-26" style="edgeStyle=orthogonalEdgeStyle;rounded=0;orthogonalLoop=1;jettySize=auto;html=1;exitX=0.88;exitY=0.25;exitDx=0;exitDy=0;exitPerimeter=0;entryX=0.4;entryY=0.1;entryDx=0;entryDy=0;entryPerimeter=0;curved=1;endArrow=none;endFill=0;" parent="1" source="IUL3tElsnNwCQ5gK7S0M-7" target="IUL3tElsnNwCQ5gK7S0M-15" edge="1">
          <mxGeometry relative="1" as="geometry">
            <Array as="points">
              <mxPoint x="250" y="334" />
              <mxPoint x="250" y="320" />
              <mxPoint x="309" y="320" />
            </Array>
          </mxGeometry>
        </mxCell>
        <mxCell id="IUL3tElsnNwCQ5gK7S0M-28" value="Pre&lt;div&gt;Existing&lt;/div&gt;" style="ellipse;shape=cloud;whiteSpace=wrap;html=1;fontStyle=1" parent="1" vertex="1">
          <mxGeometry x="200" y="240" width="85" height="60" as="geometry" />
        </mxCell>
        <mxCell id="IUL3tElsnNwCQ5gK7S0M-29" style="edgeStyle=orthogonalEdgeStyle;rounded=0;orthogonalLoop=1;jettySize=auto;html=1;exitX=0.8;exitY=0.8;exitDx=0;exitDy=0;exitPerimeter=0;entryX=0.625;entryY=0.2;entryDx=0;entryDy=0;entryPerimeter=0;curved=1;endArrow=none;endFill=0;" parent="1" source="IUL3tElsnNwCQ5gK7S0M-28" target="IUL3tElsnNwCQ5gK7S0M-15" edge="1">
          <mxGeometry relative="1" as="geometry">
            <Array as="points">
              <mxPoint x="268" y="290" />
              <mxPoint x="323" y="290" />
            </Array>
          </mxGeometry>
        </mxCell>
        <mxCell id="IUL3tElsnNwCQ5gK7S0M-44" value="&lt;div&gt;5G Core&lt;/div&gt;&lt;div&gt;Deployment&lt;/div&gt;&lt;div&gt;&lt;i style=&quot;font-weight: normal;&quot;&gt;KNF&lt;/i&gt;&lt;br&gt;&lt;/div&gt;" style="shape=hexagon;perimeter=hexagonPerimeter2;whiteSpace=wrap;html=1;fixedSize=1;fillColor=#dae8fc;strokeColor=#6c8ebf;fontStyle=1" parent="1" vertex="1">
          <mxGeometry x="498.75" y="230" width="91.25" height="40" as="geometry" />
        </mxCell>
        <mxCell id="mLuexxIoqMNOcWPIGKhw-7" style="edgeStyle=orthogonalEdgeStyle;rounded=0;orthogonalLoop=1;jettySize=auto;html=1;exitX=0.5;exitY=0;exitDx=0;exitDy=0;exitPerimeter=0;entryX=0.5;entryY=1;entryDx=0;entryDy=0;" parent="1" source="IUL3tElsnNwCQ5gK7S0M-45" target="IUL3tElsnNwCQ5gK7S0M-44" edge="1">
          <mxGeometry relative="1" as="geometry" />
        </mxCell>
        <mxCell id="IUL3tElsnNwCQ5gK7S0M-45" value="" style="shape=mxgraph.signs.transportation.anchor_1;html=1;pointerEvents=1;fillColor=#000000;strokeColor=none;verticalLabelPosition=bottom;verticalAlign=top;align=center;" parent="1" vertex="1">
          <mxGeometry x="534.38" y="280" width="20" height="24" as="geometry" />
        </mxCell>
        <mxCell id="mLuexxIoqMNOcWPIGKhw-13" style="edgeStyle=orthogonalEdgeStyle;rounded=0;orthogonalLoop=1;jettySize=auto;html=1;exitX=0.5;exitY=0;exitDx=0;exitDy=0;exitPerimeter=0;entryX=0.5;entryY=1;entryDx=0;entryDy=0;endArrow=none;endFill=0;dashed=1;dashPattern=1 4;" parent="1" source="IUL3tElsnNwCQ5gK7S0M-46" target="IUL3tElsnNwCQ5gK7S0M-13" edge="1">
          <mxGeometry relative="1" as="geometry" />
        </mxCell>
        <mxCell id="IUL3tElsnNwCQ5gK7S0M-46" value="" style="shape=mxgraph.signs.transportation.anchor_1;html=1;pointerEvents=1;fillColor=#000000;strokeColor=none;verticalLabelPosition=bottom;verticalAlign=top;align=center;" parent="1" vertex="1">
          <mxGeometry x="310" y="460" width="20" height="24" as="geometry" />
        </mxCell>
        <mxCell id="mLuexxIoqMNOcWPIGKhw-14" style="edgeStyle=orthogonalEdgeStyle;rounded=0;orthogonalLoop=1;jettySize=auto;html=1;exitX=0.5;exitY=0;exitDx=0;exitDy=0;exitPerimeter=0;entryX=0.5;entryY=1;entryDx=0;entryDy=0;endArrow=none;endFill=0;dashed=1;dashPattern=1 4;" parent="1" source="IUL3tElsnNwCQ5gK7S0M-47" target="IUL3tElsnNwCQ5gK7S0M-14" edge="1">
          <mxGeometry relative="1" as="geometry" />
        </mxCell>
        <mxCell id="IUL3tElsnNwCQ5gK7S0M-47" value="" style="shape=mxgraph.signs.transportation.anchor_1;html=1;pointerEvents=1;fillColor=#000000;strokeColor=none;verticalLabelPosition=bottom;verticalAlign=top;align=center;" parent="1" vertex="1">
          <mxGeometry x="247.5" y="460" width="20" height="24" as="geometry" />
        </mxCell>
        <mxCell id="mLuexxIoqMNOcWPIGKhw-15" style="edgeStyle=orthogonalEdgeStyle;rounded=0;orthogonalLoop=1;jettySize=auto;html=1;exitX=0.5;exitY=0;exitDx=0;exitDy=0;exitPerimeter=0;entryX=0.5;entryY=1;entryDx=0;entryDy=0;endArrow=none;endFill=0;dashed=1;dashPattern=1 4;" parent="1" source="IUL3tElsnNwCQ5gK7S0M-48" target="IUL3tElsnNwCQ5gK7S0M-8" edge="1">
          <mxGeometry relative="1" as="geometry" />
        </mxCell>
        <mxCell id="IUL3tElsnNwCQ5gK7S0M-48" value="" style="shape=mxgraph.signs.transportation.anchor_1;html=1;pointerEvents=1;fillColor=#000000;strokeColor=none;verticalLabelPosition=bottom;verticalAlign=top;align=center;" parent="1" vertex="1">
          <mxGeometry x="170" y="460" width="20" height="24" as="geometry" />
        </mxCell>
        <mxCell id="mLuexxIoqMNOcWPIGKhw-16" style="edgeStyle=orthogonalEdgeStyle;rounded=0;orthogonalLoop=1;jettySize=auto;html=1;exitX=0.5;exitY=0;exitDx=0;exitDy=0;exitPerimeter=0;entryX=0.5;entryY=1;entryDx=0;entryDy=0;endArrow=none;endFill=0;dashed=1;dashPattern=1 4;" parent="1" source="IUL3tElsnNwCQ5gK7S0M-49" target="IUL3tElsnNwCQ5gK7S0M-5" edge="1">
          <mxGeometry relative="1" as="geometry" />
        </mxCell>
        <mxCell id="IUL3tElsnNwCQ5gK7S0M-49" value="" style="shape=mxgraph.signs.transportation.anchor_1;html=1;pointerEvents=1;fillColor=#000000;strokeColor=none;verticalLabelPosition=bottom;verticalAlign=top;align=center;" parent="1" vertex="1">
          <mxGeometry x="107.5" y="460" width="20" height="24" as="geometry" />
        </mxCell>
        <mxCell id="mLuexxIoqMNOcWPIGKhw-10" style="edgeStyle=orthogonalEdgeStyle;rounded=0;orthogonalLoop=1;jettySize=auto;html=1;exitX=0.5;exitY=0;exitDx=0;exitDy=0;exitPerimeter=0;entryX=0.5;entryY=1;entryDx=0;entryDy=0;endArrow=none;endFill=0;dashed=1;dashPattern=1 4;" parent="1" source="IUL3tElsnNwCQ5gK7S0M-50" target="IUL3tElsnNwCQ5gK7S0M-11" edge="1">
          <mxGeometry relative="1" as="geometry" />
        </mxCell>
        <mxCell id="IUL3tElsnNwCQ5gK7S0M-50" value="" style="shape=mxgraph.signs.transportation.anchor_1;html=1;pointerEvents=1;fillColor=#000000;strokeColor=none;verticalLabelPosition=bottom;verticalAlign=top;align=center;" parent="1" vertex="1">
          <mxGeometry x="465" y="460" width="20" height="24" as="geometry" />
        </mxCell>
        <mxCell id="IUL3tElsnNwCQ5gK7S0M-52" value="" style="shape=mxgraph.signs.transportation.anchor_1;html=1;pointerEvents=1;fillColor=#000000;strokeColor=none;verticalLabelPosition=bottom;verticalAlign=top;align=center;" parent="1" vertex="1">
          <mxGeometry x="511.25" y="460" width="20" height="24" as="geometry" />
        </mxCell>
        <mxCell id="mLuexxIoqMNOcWPIGKhw-12" style="edgeStyle=orthogonalEdgeStyle;rounded=0;orthogonalLoop=1;jettySize=auto;html=1;exitX=0.5;exitY=0;exitDx=0;exitDy=0;exitPerimeter=0;entryX=0.5;entryY=1;entryDx=0;entryDy=0;endArrow=none;endFill=0;dashed=1;dashPattern=1 4;" parent="1" source="IUL3tElsnNwCQ5gK7S0M-53" target="IUL3tElsnNwCQ5gK7S0M-12" edge="1">
          <mxGeometry relative="1" as="geometry" />
        </mxCell>
        <mxCell id="IUL3tElsnNwCQ5gK7S0M-53" value="" style="shape=mxgraph.signs.transportation.anchor_1;html=1;pointerEvents=1;fillColor=#000000;strokeColor=none;verticalLabelPosition=bottom;verticalAlign=top;align=center;" parent="1" vertex="1">
          <mxGeometry x="574.38" y="460" width="20" height="24" as="geometry" />
        </mxCell>
        <mxCell id="IUL3tElsnNwCQ5gK7S0M-54" value="" style="shape=mxgraph.signs.transportation.anchor_1;html=1;pointerEvents=1;fillColor=#000000;strokeColor=none;verticalLabelPosition=bottom;verticalAlign=top;align=center;" parent="1" vertex="1">
          <mxGeometry x="802.5" y="460" width="20" height="24" as="geometry" />
        </mxCell>
        <mxCell id="IUL3tElsnNwCQ5gK7S0M-56" style="edgeStyle=orthogonalEdgeStyle;rounded=0;orthogonalLoop=1;jettySize=auto;html=1;exitX=0.875;exitY=0.5;exitDx=0;exitDy=0;exitPerimeter=0;entryX=0;entryY=0;entryDx=0;entryDy=0;curved=1;endArrow=none;endFill=0;" parent="1" source="IUL3tElsnNwCQ5gK7S0M-55" target="IUL3tElsnNwCQ5gK7S0M-12" edge="1">
          <mxGeometry relative="1" as="geometry" />
        </mxCell>
        <mxCell id="IUL3tElsnNwCQ5gK7S0M-57" style="edgeStyle=orthogonalEdgeStyle;rounded=0;orthogonalLoop=1;jettySize=auto;html=1;exitX=0.8;exitY=0.8;exitDx=0;exitDy=0;exitPerimeter=0;entryX=0;entryY=0.5;entryDx=0;entryDy=0;curved=1;endArrow=none;endFill=0;" parent="1" source="IUL3tElsnNwCQ5gK7S0M-55" target="IUL3tElsnNwCQ5gK7S0M-11" edge="1">
          <mxGeometry relative="1" as="geometry">
            <Array as="points">
              <mxPoint x="440" y="390" />
            </Array>
          </mxGeometry>
        </mxCell>
        <mxCell id="IUL3tElsnNwCQ5gK7S0M-58" style="edgeStyle=orthogonalEdgeStyle;rounded=0;orthogonalLoop=1;jettySize=auto;html=1;exitX=0.55;exitY=0.95;exitDx=0;exitDy=0;exitPerimeter=0;entryX=0;entryY=0.5;entryDx=0;entryDy=0;curved=1;endArrow=none;endFill=0;" parent="1" source="IUL3tElsnNwCQ5gK7S0M-55" target="IUL3tElsnNwCQ5gK7S0M-10" edge="1">
          <mxGeometry relative="1" as="geometry">
            <Array as="points">
              <mxPoint x="424" y="410" />
              <mxPoint x="424" y="443" />
            </Array>
          </mxGeometry>
        </mxCell>
        <mxCell id="IUL3tElsnNwCQ5gK7S0M-55" value="&lt;font style=&quot;font-size: 11px;&quot;&gt;Pre&lt;/font&gt;&lt;div style=&quot;font-size: 11px;&quot;&gt;&lt;font style=&quot;font-size: 11px;&quot;&gt;Existing&lt;/font&gt;&lt;/div&gt;" style="ellipse;shape=cloud;whiteSpace=wrap;html=1;fontStyle=1" parent="1" vertex="1">
          <mxGeometry x="390" y="330" width="62.5" height="46" as="geometry" />
        </mxCell>
        <mxCell id="IUL3tElsnNwCQ5gK7S0M-59" style="edgeStyle=orthogonalEdgeStyle;rounded=0;orthogonalLoop=1;jettySize=auto;html=1;exitX=0.875;exitY=0.5;exitDx=0;exitDy=0;exitPerimeter=0;entryX=0.16;entryY=0.55;entryDx=0;entryDy=0;entryPerimeter=0;curved=1;endArrow=none;endFill=0;strokeColor=#FF0000;strokeWidth=2;" parent="1" source="IUL3tElsnNwCQ5gK7S0M-28" target="IUL3tElsnNwCQ5gK7S0M-55" edge="1">
          <mxGeometry relative="1" as="geometry">
            <Array as="points">
              <mxPoint x="290" y="270" />
              <mxPoint x="290" y="260" />
              <mxPoint x="350" y="260" />
              <mxPoint x="350" y="570" />
              <mxPoint x="390" y="570" />
              <mxPoint x="390" y="355" />
            </Array>
          </mxGeometry>
        </mxCell>
        <mxCell id="IUL3tElsnNwCQ5gK7S0M-60" style="edgeStyle=orthogonalEdgeStyle;rounded=0;orthogonalLoop=1;jettySize=auto;html=1;exitX=0;exitY=0.5;exitDx=0;exitDy=0;entryX=0.88;entryY=0.25;entryDx=0;entryDy=0;entryPerimeter=0;curved=1;fillColor=#dae8fc;strokeColor=#6c8ebf;dashed=1;endArrow=none;endFill=0;strokeWidth=2;" parent="1" source="IUL3tElsnNwCQ5gK7S0M-44" target="IUL3tElsnNwCQ5gK7S0M-7" edge="1">
          <mxGeometry relative="1" as="geometry">
            <Array as="points">
              <mxPoint x="480" y="250" />
              <mxPoint x="480" y="300" />
              <mxPoint x="203" y="300" />
            </Array>
          </mxGeometry>
        </mxCell>
        <mxCell id="IUL3tElsnNwCQ5gK7S0M-63" value="&lt;font style=&quot;font-size: 11px;&quot;&gt;Pre&lt;/font&gt;&lt;div style=&quot;font-size: 11px;&quot;&gt;&lt;font style=&quot;font-size: 11px;&quot;&gt;Existing&lt;/font&gt;&lt;/div&gt;" style="ellipse;shape=cloud;whiteSpace=wrap;html=1;fontStyle=1" parent="1" vertex="1">
          <mxGeometry x="727.5" y="323" width="75" height="53" as="geometry" />
        </mxCell>
        <mxCell id="IUL3tElsnNwCQ5gK7S0M-64" style="edgeStyle=orthogonalEdgeStyle;rounded=0;orthogonalLoop=1;jettySize=auto;html=1;exitX=1;exitY=0.5;exitDx=0;exitDy=0;entryX=0.4;entryY=0.1;entryDx=0;entryDy=0;entryPerimeter=0;curved=1;endArrow=none;endFill=0;dashed=1;fillColor=#dae8fc;strokeColor=#6c8ebf;strokeWidth=2;" parent="1" source="IUL3tElsnNwCQ5gK7S0M-44" target="IUL3tElsnNwCQ5gK7S0M-63" edge="1">
          <mxGeometry relative="1" as="geometry" />
        </mxCell>
        <mxCell id="IUL3tElsnNwCQ5gK7S0M-65" style="edgeStyle=orthogonalEdgeStyle;rounded=0;orthogonalLoop=1;jettySize=auto;html=1;exitX=0.5;exitY=0;exitDx=0;exitDy=0;entryX=0.8;entryY=0.8;entryDx=0;entryDy=0;entryPerimeter=0;curved=1;endArrow=none;endFill=0;" parent="1" source="6KzvHM-l7bk7i3G01lBe-1" target="IUL3tElsnNwCQ5gK7S0M-63" edge="1">
          <mxGeometry relative="1" as="geometry">
            <Array as="points">
              <mxPoint x="813" y="380" />
              <mxPoint x="788" y="380" />
            </Array>
            <mxPoint x="812.5" y="390" as="sourcePoint" />
          </mxGeometry>
        </mxCell>
        <mxCell id="IUL3tElsnNwCQ5gK7S0M-66" style="edgeStyle=orthogonalEdgeStyle;rounded=0;orthogonalLoop=1;jettySize=auto;html=1;exitX=0.16;exitY=0.55;exitDx=0;exitDy=0;exitPerimeter=0;entryX=0.31;entryY=0.8;entryDx=0;entryDy=0;entryPerimeter=0;curved=1;endArrow=none;endFill=0;strokeColor=#FF0000;strokeWidth=2;" parent="1" source="IUL3tElsnNwCQ5gK7S0M-63" target="IUL3tElsnNwCQ5gK7S0M-55" edge="1">
          <mxGeometry relative="1" as="geometry">
            <Array as="points">
              <mxPoint x="660" y="352" />
              <mxPoint x="660" y="560" />
              <mxPoint x="400" y="560" />
              <mxPoint x="400" y="367" />
            </Array>
          </mxGeometry>
        </mxCell>
        <mxCell id="IUL3tElsnNwCQ5gK7S0M-67" value="&lt;div&gt;&lt;b&gt;Blueprint instance&lt;/b&gt;&lt;/div&gt;5G Core &lt;i&gt;[KNF]&lt;/i&gt;&amp;nbsp;+ VM for UPF &lt;i&gt;[VNF]&lt;/i&gt;&amp;nbsp;+ VM Router &lt;i&gt;[VNF]&lt;/i&gt;&lt;div&gt;+ VM gNB&amp;nbsp;&lt;i&gt;&lt;span style=&quot;background-color: initial;&quot;&gt;[&lt;/span&gt;&lt;span style=&quot;background-color: initial;&quot;&gt;KNF&lt;/span&gt;&lt;span style=&quot;background-color: initial;&quot;&gt;]&lt;/span&gt;&lt;/i&gt;&lt;span style=&quot;background-color: initial;&quot;&gt;&amp;nbsp;+ Radio unit&amp;nbsp;&lt;/span&gt;&lt;i&gt;&lt;span style=&quot;background-color: initial;&quot;&gt;[P&lt;/span&gt;&lt;span style=&quot;background-color: initial;&quot;&gt;NF&lt;/span&gt;&lt;span style=&quot;background-color: initial;&quot;&gt;]&lt;/span&gt;&lt;/i&gt;&lt;/div&gt;" style="rounded=1;whiteSpace=wrap;html=1;fillColor=#dae8fc;strokeColor=#6c8ebf;" parent="1" vertex="1">
          <mxGeometry x="360" y="130" width="430" height="50" as="geometry" />
        </mxCell>
        <mxCell id="IUL3tElsnNwCQ5gK7S0M-68" value="" style="endArrow=none;dashed=1;html=1;dashPattern=1 3;strokeWidth=2;rounded=0;" parent="1" edge="1">
          <mxGeometry width="50" height="50" relative="1" as="geometry">
            <mxPoint x="103" y="210" as="sourcePoint" />
            <mxPoint x="1050" y="210" as="targetPoint" />
          </mxGeometry>
        </mxCell>
        <mxCell id="IUL3tElsnNwCQ5gK7S0M-69" value="&lt;b&gt;&lt;font style=&quot;font-size: 18px;&quot;&gt;Service Layer&lt;/font&gt;&lt;/b&gt;" style="edgeLabel;html=1;align=center;verticalAlign=middle;resizable=0;points=[];" parent="IUL3tElsnNwCQ5gK7S0M-68" vertex="1" connectable="0">
          <mxGeometry x="0.0775" y="-3" relative="1" as="geometry">
            <mxPoint x="-30" y="-19" as="offset" />
          </mxGeometry>
        </mxCell>
        <mxCell id="IUL3tElsnNwCQ5gK7S0M-74" style="edgeStyle=orthogonalEdgeStyle;rounded=0;orthogonalLoop=1;jettySize=auto;html=1;exitX=0.5;exitY=1;exitDx=0;exitDy=0;entryX=1;entryY=0.5;entryDx=0;entryDy=0;dashed=1;endArrow=none;endFill=0;curved=1;fillColor=#dae8fc;strokeColor=#6c8ebf;strokeWidth=2;" parent="1" source="IUL3tElsnNwCQ5gK7S0M-71" target="IUL3tElsnNwCQ5gK7S0M-44" edge="1">
          <mxGeometry relative="1" as="geometry" />
        </mxCell>
        <mxCell id="IUL3tElsnNwCQ5gK7S0M-71" value="&lt;font style=&quot;font-size: 10px;&quot;&gt;Radio&amp;nbsp;&lt;/font&gt;&lt;div style=&quot;font-size: 10px;&quot;&gt;&lt;font style=&quot;font-size: 10px;&quot;&gt;Unit&lt;/font&gt;&lt;/div&gt;&lt;div style=&quot;font-size: 10px;&quot;&gt;&lt;font style=&quot;font-size: 10px;&quot;&gt;Configured&lt;/font&gt;&lt;/div&gt;" style="shape=offPageConnector;whiteSpace=wrap;html=1;direction=west;fontSize=10;fillColor=#dae8fc;strokeColor=#6c8ebf;fontStyle=1" parent="1" vertex="1">
          <mxGeometry x="890" y="460" width="50" height="70" as="geometry" />
        </mxCell>
        <mxCell id="IUL3tElsnNwCQ5gK7S0M-72" value="User&lt;div style=&quot;font-size: 9px;&quot;&gt;Equipment&lt;/div&gt;&lt;div style=&quot;&quot;&gt;&lt;i style=&quot;&quot;&gt;&lt;font style=&quot;font-size: 7px;&quot;&gt;NOT CONFIGURED&lt;/font&gt;&lt;/i&gt;&lt;/div&gt;" style="shape=offPageConnector;whiteSpace=wrap;html=1;direction=west;fontSize=9;fontStyle=1" parent="1" vertex="1">
          <mxGeometry x="950" y="460" width="50" height="70" as="geometry" />
        </mxCell>
        <mxCell id="IUL3tElsnNwCQ5gK7S0M-73" value="..." style="shape=offPageConnector;whiteSpace=wrap;html=1;direction=west;size=0.3333333333333333;fontStyle=1" parent="1" vertex="1">
          <mxGeometry x="1010" y="460" width="50" height="70" as="geometry" />
        </mxCell>
        <mxCell id="IUL3tElsnNwCQ5gK7S0M-75" style="edgeStyle=orthogonalEdgeStyle;rounded=0;orthogonalLoop=1;jettySize=auto;html=1;exitX=0.5;exitY=1;exitDx=0;exitDy=0;entryX=0.5;entryY=0;entryDx=0;entryDy=0;entryPerimeter=0;" parent="1" target="IUL3tElsnNwCQ5gK7S0M-54" edge="1">
          <mxGeometry relative="1" as="geometry">
            <mxPoint x="812.5" y="450" as="sourcePoint" />
            <Array as="points">
              <mxPoint x="813" y="440" />
              <mxPoint x="813" y="440" />
            </Array>
          </mxGeometry>
        </mxCell>
        <mxCell id="IUL3tElsnNwCQ5gK7S0M-76" value="&lt;b&gt;Blueprint Instance&lt;/b&gt;&lt;div&gt;2 x VMs&amp;nbsp;&lt;i style=&quot;background-color: initial;&quot;&gt;[VNF]&lt;/i&gt;&lt;span style=&quot;background-color: initial;&quot;&gt;&amp;nbsp;hosting an App&lt;/span&gt;&lt;/div&gt;" style="rounded=1;whiteSpace=wrap;html=1;fillColor=#f8cecc;strokeColor=#b85450;" parent="1" vertex="1">
          <mxGeometry x="100" y="130" width="240" height="50" as="geometry" />
        </mxCell>
        <mxCell id="mLuexxIoqMNOcWPIGKhw-1" value="&lt;div&gt;&lt;b&gt;Blueprint instance&lt;/b&gt;&lt;/div&gt;&lt;div&gt;3 x VM &lt;i&gt;[VNF]&lt;/i&gt; composing a K8S cluster&lt;/div&gt;" style="rounded=1;whiteSpace=wrap;html=1;fillColor=#d5e8d4;strokeColor=#82b366;" parent="1" vertex="1">
          <mxGeometry x="802.5" y="130" width="247.5" height="50" as="geometry" />
        </mxCell>
        <mxCell id="mLuexxIoqMNOcWPIGKhw-2" value="" style="endArrow=none;dashed=1;html=1;dashPattern=1 3;strokeWidth=2;rounded=0;" parent="1" edge="1">
          <mxGeometry width="50" height="50" relative="1" as="geometry">
            <mxPoint x="100" y="540" as="sourcePoint" />
            <mxPoint x="1060" y="540" as="targetPoint" />
          </mxGeometry>
        </mxCell>
        <mxCell id="mLuexxIoqMNOcWPIGKhw-4" style="edgeStyle=orthogonalEdgeStyle;rounded=0;orthogonalLoop=1;jettySize=auto;html=1;exitX=0.5;exitY=0;exitDx=0;exitDy=0;entryX=0.31;entryY=0.8;entryDx=0;entryDy=0;entryPerimeter=0;curved=1;endArrow=none;endFill=0;strokeColor=#FF0000;strokeWidth=2;" parent="1" source="IUL3tElsnNwCQ5gK7S0M-71" target="IUL3tElsnNwCQ5gK7S0M-63" edge="1">
          <mxGeometry relative="1" as="geometry">
            <Array as="points">
              <mxPoint x="915" y="580" />
              <mxPoint x="670" y="580" />
              <mxPoint x="670" y="380" />
              <mxPoint x="744" y="380" />
            </Array>
          </mxGeometry>
        </mxCell>
        <mxCell id="mLuexxIoqMNOcWPIGKhw-6" style="edgeStyle=orthogonalEdgeStyle;rounded=0;orthogonalLoop=1;jettySize=auto;html=1;exitX=0.5;exitY=0;exitDx=0;exitDy=0;exitPerimeter=0;entryX=0.133;entryY=1.013;entryDx=0;entryDy=0;entryPerimeter=0;endArrow=none;endFill=0;dashed=1;dashPattern=1 4;" parent="1" source="IUL3tElsnNwCQ5gK7S0M-19" target="IUL3tElsnNwCQ5gK7S0M-9" edge="1">
          <mxGeometry relative="1" as="geometry" />
        </mxCell>
        <mxCell id="mLuexxIoqMNOcWPIGKhw-8" style="edgeStyle=orthogonalEdgeStyle;rounded=0;orthogonalLoop=1;jettySize=auto;html=1;exitX=0.5;exitY=0;exitDx=0;exitDy=0;exitPerimeter=0;endArrow=none;endFill=0;dashed=1;dashPattern=1 4;" parent="1" source="IUL3tElsnNwCQ5gK7S0M-21" edge="1">
          <mxGeometry relative="1" as="geometry">
            <mxPoint x="521" y="340" as="targetPoint" />
          </mxGeometry>
        </mxCell>
        <mxCell id="mLuexxIoqMNOcWPIGKhw-9" style="edgeStyle=orthogonalEdgeStyle;rounded=0;orthogonalLoop=1;jettySize=auto;html=1;exitX=0.5;exitY=0;exitDx=0;exitDy=0;exitPerimeter=0;entryX=0.784;entryY=1.03;entryDx=0;entryDy=0;entryPerimeter=0;endArrow=none;endFill=0;dashed=1;dashPattern=1 4;" parent="1" source="IUL3tElsnNwCQ5gK7S0M-20" target="IUL3tElsnNwCQ5gK7S0M-9" edge="1">
          <mxGeometry relative="1" as="geometry" />
        </mxCell>
        <mxCell id="mLuexxIoqMNOcWPIGKhw-17" value="Legend" style="shape=table;startSize=30;container=1;collapsible=0;childLayout=tableLayout;fontSize=16;align=left;verticalAlign=top;fillColor=none;strokeColor=none;fontColor=#4D4D4D;fontStyle=1;spacingLeft=6;spacing=0;resizable=0;" parent="1" vertex="1">
          <mxGeometry x="910" y="240" width="140" height="120" as="geometry" />
        </mxCell>
        <mxCell id="mLuexxIoqMNOcWPIGKhw-18" value="" style="shape=tableRow;horizontal=0;startSize=0;swimlaneHead=0;swimlaneBody=0;strokeColor=inherit;top=0;left=0;bottom=0;right=0;collapsible=0;dropTarget=0;fillColor=none;points=[[0,0.5],[1,0.5]];portConstraint=eastwest;fontSize=12;" parent="mLuexxIoqMNOcWPIGKhw-17" vertex="1">
          <mxGeometry y="30" width="140" height="30" as="geometry" />
        </mxCell>
        <mxCell id="mLuexxIoqMNOcWPIGKhw-19" value="5G Ecosystem" style="shape=partialRectangle;html=1;whiteSpace=wrap;connectable=0;strokeColor=inherit;overflow=hidden;fillColor=#748dbe;top=0;left=0;bottom=0;right=0;pointerEvents=1;fontSize=12;align=left;fontColor=#FFFFFF;gradientColor=none;spacingLeft=10;spacingRight=4;strokeWidth=1;" parent="mLuexxIoqMNOcWPIGKhw-18" vertex="1">
          <mxGeometry width="140" height="30" as="geometry">
            <mxRectangle width="140" height="30" as="alternateBounds" />
          </mxGeometry>
        </mxCell>
        <mxCell id="mLuexxIoqMNOcWPIGKhw-20" value="" style="shape=tableRow;horizontal=0;startSize=0;swimlaneHead=0;swimlaneBody=0;strokeColor=inherit;top=0;left=0;bottom=0;right=0;collapsible=0;dropTarget=0;fillColor=none;points=[[0,0.5],[1,0.5]];portConstraint=eastwest;fontSize=12;" parent="mLuexxIoqMNOcWPIGKhw-17" vertex="1">
          <mxGeometry y="60" width="140" height="30" as="geometry" />
        </mxCell>
        <mxCell id="mLuexxIoqMNOcWPIGKhw-21" value="K8S Ecosystem" style="shape=partialRectangle;html=1;whiteSpace=wrap;connectable=0;strokeColor=inherit;overflow=hidden;fillColor=#8cb269;top=0;left=0;bottom=0;right=0;pointerEvents=1;fontSize=12;align=left;fontColor=#FFFFFF;gradientColor=none;spacingLeft=10;spacingRight=4;" parent="mLuexxIoqMNOcWPIGKhw-20" vertex="1">
          <mxGeometry width="140" height="30" as="geometry">
            <mxRectangle width="140" height="30" as="alternateBounds" />
          </mxGeometry>
        </mxCell>
        <mxCell id="mLuexxIoqMNOcWPIGKhw-22" value="" style="shape=tableRow;horizontal=0;startSize=0;swimlaneHead=0;swimlaneBody=0;strokeColor=inherit;top=0;left=0;bottom=0;right=0;collapsible=0;dropTarget=0;fillColor=none;points=[[0,0.5],[1,0.5]];portConstraint=eastwest;fontSize=12;" parent="mLuexxIoqMNOcWPIGKhw-17" vertex="1">
          <mxGeometry y="90" width="140" height="30" as="geometry" />
        </mxCell>
        <mxCell id="mLuexxIoqMNOcWPIGKhw-23" value="App Ecosystem" style="shape=partialRectangle;html=1;whiteSpace=wrap;connectable=0;strokeColor=inherit;overflow=hidden;fillColor=#be7b73;top=0;left=0;bottom=0;right=0;pointerEvents=1;fontSize=12;align=left;fontColor=#FFFFFF;gradientColor=none;spacingLeft=10;spacingRight=4;" parent="mLuexxIoqMNOcWPIGKhw-22" vertex="1">
          <mxGeometry width="140" height="30" as="geometry">
            <mxRectangle width="140" height="30" as="alternateBounds" />
          </mxGeometry>
        </mxCell>
        <mxCell id="6KzvHM-l7bk7i3G01lBe-1" value="&lt;div&gt;5G Core&lt;/div&gt;&lt;div&gt;Deployment&lt;/div&gt;&lt;div&gt;&lt;i style=&quot;font-weight: normal;&quot;&gt;KNF&lt;/i&gt;&lt;/div&gt;" style="shape=hexagon;perimeter=hexagonPerimeter2;whiteSpace=wrap;html=1;fixedSize=1;fillColor=#dae8fc;strokeColor=#6c8ebf;fontStyle=1" parent="1" vertex="1">
          <mxGeometry x="766.88" y="400" width="91.25" height="40" as="geometry" />
        </mxCell>
        <mxCell id="6KzvHM-l7bk7i3G01lBe-2" value="VM&lt;div&gt;Router&lt;/div&gt;&lt;div&gt;&lt;i style=&quot;font-weight: normal;&quot;&gt;VNF&lt;/i&gt;&lt;br&gt;&lt;/div&gt;" style="ellipse;whiteSpace=wrap;html=1;fillColor=#dae8fc;strokeColor=#6c8ebf;fontStyle=1" parent="1" vertex="1">
          <mxGeometry x="95" y="284" width="45" height="46" as="geometry" />
        </mxCell>
        <mxCell id="6KzvHM-l7bk7i3G01lBe-3" style="edgeStyle=orthogonalEdgeStyle;rounded=0;orthogonalLoop=1;jettySize=auto;html=1;exitX=1;exitY=0.5;exitDx=0;exitDy=0;entryX=0.25;entryY=0.25;entryDx=0;entryDy=0;entryPerimeter=0;curved=1;endArrow=none;endFill=0;" parent="1" source="6KzvHM-l7bk7i3G01lBe-2" target="IUL3tElsnNwCQ5gK7S0M-7" edge="1">
          <mxGeometry relative="1" as="geometry" />
        </mxCell>
        <mxCell id="6KzvHM-l7bk7i3G01lBe-5" value="&lt;b&gt;&lt;font style=&quot;font-size: 14px;&quot;&gt;PDUs - PNF&lt;/font&gt;&lt;/b&gt;" style="text;html=1;align=center;verticalAlign=middle;whiteSpace=wrap;rounded=0;" parent="1" vertex="1">
          <mxGeometry x="945" y="410" width="85" height="30" as="geometry" />
        </mxCell>
        <mxCell id="VfKDs60Cd9ujNJnWJ9GB-1" style="edgeStyle=orthogonalEdgeStyle;rounded=0;orthogonalLoop=1;jettySize=auto;html=1;exitX=1;exitY=0;exitDx=0;exitDy=0;entryX=0.07;entryY=0.4;entryDx=0;entryDy=0;entryPerimeter=0;endArrow=none;endFill=0;curved=1;" edge="1" parent="1" source="6KzvHM-l7bk7i3G01lBe-2" target="IUL3tElsnNwCQ5gK7S0M-28">
          <mxGeometry relative="1" as="geometry" />
        </mxCell>
      </root>
    </mxGraphModel>
  </diagram>
  <diagram id="g82bEyV5f-6J5Da51Vce" name="Blue-Heritage">
    <mxGraphModel dx="2074" dy="1196" grid="1" gridSize="10" guides="1" tooltips="1" connect="1" arrows="1" fold="1" page="1" pageScale="1" pageWidth="1169" pageHeight="827" math="0" shadow="0">
      <root>
        <mxCell id="0" />
        <mxCell id="1" parent="0" />
        <mxCell id="4eYnd1QY1-iDcNU_nL__-1" value="Blueprint" style="swimlane;fontStyle=1;align=center;verticalAlign=top;childLayout=stackLayout;horizontal=1;startSize=26;horizontalStack=0;resizeParent=1;resizeParentMax=0;resizeLast=0;collapsible=1;marginBottom=0;whiteSpace=wrap;html=1;fillColor=#dae8fc;strokeColor=none;gradientColor=none;" parent="1" vertex="1">
          <mxGeometry x="440" y="140" width="220" height="190" as="geometry" />
        </mxCell>
        <mxCell id="4eYnd1QY1-iDcNU_nL__-5" value="+ id: str" style="text;strokeColor=#d6b656;fillColor=#fff2cc;align=left;verticalAlign=top;spacingLeft=4;spacingRight=4;overflow=hidden;rotatable=0;points=[[0,0.5],[1,0.5]];portConstraint=eastwest;whiteSpace=wrap;html=1;" parent="4eYnd1QY1-iDcNU_nL__-1" vertex="1">
          <mxGeometry y="26" width="220" height="26" as="geometry" />
        </mxCell>
        <mxCell id="4eYnd1QY1-iDcNU_nL__-2" value="+ state: &amp;lt;StateType&amp;gt;" style="text;strokeColor=#d6b656;fillColor=#fff2cc;align=left;verticalAlign=top;spacingLeft=4;spacingRight=4;overflow=hidden;rotatable=0;points=[[0,0.5],[1,0.5]];portConstraint=eastwest;whiteSpace=wrap;html=1;" parent="4eYnd1QY1-iDcNU_nL__-1" vertex="1">
          <mxGeometry y="52" width="220" height="26" as="geometry" />
        </mxCell>
        <mxCell id="4eYnd1QY1-iDcNU_nL__-6" value="..." style="text;strokeColor=#d6b656;fillColor=#fff2cc;align=left;verticalAlign=top;spacingLeft=4;spacingRight=4;overflow=hidden;rotatable=0;points=[[0,0.5],[1,0.5]];portConstraint=eastwest;whiteSpace=wrap;html=1;" parent="4eYnd1QY1-iDcNU_nL__-1" vertex="1">
          <mxGeometry y="78" width="220" height="26" as="geometry" />
        </mxCell>
        <mxCell id="4eYnd1QY1-iDcNU_nL__-3" value="" style="line;strokeWidth=2;fillColor=#f5f5f5;align=left;verticalAlign=middle;spacingTop=-1;spacingLeft=3;spacingRight=3;rotatable=0;labelPosition=right;points=[];portConstraint=eastwest;strokeColor=#666666;fontColor=#333333;" parent="4eYnd1QY1-iDcNU_nL__-1" vertex="1">
          <mxGeometry y="104" width="220" height="8" as="geometry" />
        </mxCell>
        <mxCell id="4eYnd1QY1-iDcNU_nL__-4" value="+ create()" style="text;strokeColor=#666666;fillColor=#7EA6E0;align=left;verticalAlign=top;spacingLeft=4;spacingRight=4;overflow=hidden;rotatable=0;points=[[0,0.5],[1,0.5]];portConstraint=eastwest;whiteSpace=wrap;html=1;fontColor=#333333;" parent="4eYnd1QY1-iDcNU_nL__-1" vertex="1">
          <mxGeometry y="112" width="220" height="26" as="geometry" />
        </mxCell>
        <mxCell id="4eYnd1QY1-iDcNU_nL__-7" value="+ destroy()&amp;nbsp;" style="text;strokeColor=#666666;fillColor=#7EA6E0;align=left;verticalAlign=top;spacingLeft=4;spacingRight=4;overflow=hidden;rotatable=0;points=[[0,0.5],[1,0.5]];portConstraint=eastwest;whiteSpace=wrap;html=1;fontColor=#333333;" parent="4eYnd1QY1-iDcNU_nL__-1" vertex="1">
          <mxGeometry y="138" width="220" height="26" as="geometry" />
        </mxCell>
        <mxCell id="4eYnd1QY1-iDcNU_nL__-28" value="..." style="text;strokeColor=#666666;fillColor=#7EA6E0;align=left;verticalAlign=top;spacingLeft=4;spacingRight=4;overflow=hidden;rotatable=0;points=[[0,0.5],[1,0.5]];portConstraint=eastwest;whiteSpace=wrap;html=1;fontColor=#333333;" parent="4eYnd1QY1-iDcNU_nL__-1" vertex="1">
          <mxGeometry y="164" width="220" height="26" as="geometry" />
        </mxCell>
        <mxCell id="uZStHUOO7LBE66vD_SXa-46" style="rounded=0;orthogonalLoop=1;jettySize=auto;html=1;entryX=0.5;entryY=1;entryDx=0;entryDy=0;endArrow=block;endFill=0;strokeWidth=2;exitX=0.5;exitY=0;exitDx=0;exitDy=0;strokeColor=default;align=center;verticalAlign=middle;fontFamily=Helvetica;fontSize=11;fontColor=default;labelBackgroundColor=default;endSize=16;" parent="1" source="4eYnd1QY1-iDcNU_nL__-9" target="4eYnd1QY1-iDcNU_nL__-1" edge="1">
          <mxGeometry relative="1" as="geometry" />
        </mxCell>
        <mxCell id="4eYnd1QY1-iDcNU_nL__-9" value="&lt;div&gt;&lt;span style=&quot;background-color: initial;&quot;&gt;5G Blueprint&lt;/span&gt;&lt;br&gt;&lt;/div&gt;" style="swimlane;fontStyle=1;align=center;verticalAlign=top;childLayout=stackLayout;horizontal=1;startSize=26;horizontalStack=0;resizeParent=1;resizeParentMax=0;resizeLast=0;collapsible=1;marginBottom=0;whiteSpace=wrap;html=1;fillColor=#d5e8d4;strokeColor=none;" parent="1" vertex="1">
          <mxGeometry x="440" y="400" width="220" height="242" as="geometry" />
        </mxCell>
        <mxCell id="4eYnd1QY1-iDcNU_nL__-11" value="+ state: &amp;lt;5G_State&amp;gt;" style="text;strokeColor=#d6b656;fillColor=#fff2cc;align=left;verticalAlign=top;spacingLeft=4;spacingRight=4;overflow=hidden;rotatable=0;points=[[0,0.5],[1,0.5]];portConstraint=eastwest;whiteSpace=wrap;html=1;" parent="4eYnd1QY1-iDcNU_nL__-9" vertex="1">
          <mxGeometry y="26" width="220" height="26" as="geometry" />
        </mxCell>
        <mxCell id="P14s5CpWeKmoEXqSBKbY-1" value="+ creation_model: &amp;lt;5G_cre_model&amp;gt;" style="text;strokeColor=#d6b656;fillColor=#fff2cc;align=left;verticalAlign=top;spacingLeft=4;spacingRight=4;overflow=hidden;rotatable=0;points=[[0,0.5],[1,0.5]];portConstraint=eastwest;whiteSpace=wrap;html=1;" parent="4eYnd1QY1-iDcNU_nL__-9" vertex="1">
          <mxGeometry y="52" width="220" height="26" as="geometry" />
        </mxCell>
        <mxCell id="4eYnd1QY1-iDcNU_nL__-12" value="..." style="text;strokeColor=#d6b656;fillColor=#fff2cc;align=left;verticalAlign=top;spacingLeft=4;spacingRight=4;overflow=hidden;rotatable=0;points=[[0,0.5],[1,0.5]];portConstraint=eastwest;whiteSpace=wrap;html=1;" parent="4eYnd1QY1-iDcNU_nL__-9" vertex="1">
          <mxGeometry y="78" width="220" height="26" as="geometry" />
        </mxCell>
        <mxCell id="4eYnd1QY1-iDcNU_nL__-13" value="" style="line;strokeWidth=3;fillColor=#f5f5f5;align=left;verticalAlign=middle;spacingTop=-1;spacingLeft=3;spacingRight=3;rotatable=0;labelPosition=right;points=[];portConstraint=eastwest;strokeColor=#666666;fontColor=#333333;" parent="4eYnd1QY1-iDcNU_nL__-9" vertex="1">
          <mxGeometry y="104" width="220" height="8" as="geometry" />
        </mxCell>
        <mxCell id="4eYnd1QY1-iDcNU_nL__-14" value="+ create() - &amp;lt;EXTENDS&amp;gt;" style="text;strokeColor=#6c8ebf;fillColor=#7EA6E0;align=left;verticalAlign=top;spacingLeft=4;spacingRight=4;overflow=hidden;rotatable=0;points=[[0,0.5],[1,0.5]];portConstraint=eastwest;whiteSpace=wrap;html=1;" parent="4eYnd1QY1-iDcNU_nL__-9" vertex="1">
          <mxGeometry y="112" width="220" height="26" as="geometry" />
        </mxCell>
        <mxCell id="4eYnd1QY1-iDcNU_nL__-15" value="+ destroy()&amp;nbsp; - &amp;lt;EXTENDS&amp;gt;" style="text;strokeColor=#6c8ebf;fillColor=#7EA6E0;align=left;verticalAlign=top;spacingLeft=4;spacingRight=4;overflow=hidden;rotatable=0;points=[[0,0.5],[1,0.5]];portConstraint=eastwest;whiteSpace=wrap;html=1;" parent="4eYnd1QY1-iDcNU_nL__-9" vertex="1">
          <mxGeometry y="138" width="220" height="26" as="geometry" />
        </mxCell>
        <mxCell id="4eYnd1QY1-iDcNU_nL__-29" value="+ add_ue(...)&amp;nbsp; - &amp;lt;ABSTRACT&amp;gt;" style="text;strokeColor=#6c8ebf;fillColor=#7EA6E0;align=left;verticalAlign=top;spacingLeft=4;spacingRight=4;overflow=hidden;rotatable=0;points=[[0,0.5],[1,0.5]];portConstraint=eastwest;whiteSpace=wrap;html=1;" parent="4eYnd1QY1-iDcNU_nL__-9" vertex="1">
          <mxGeometry y="164" width="220" height="26" as="geometry" />
        </mxCell>
        <mxCell id="uZStHUOO7LBE66vD_SXa-60" value="+ add_slice(...)&amp;nbsp; - &amp;lt;ABSTRACT&amp;gt;" style="text;strokeColor=#6c8ebf;fillColor=#7EA6E0;align=left;verticalAlign=top;spacingLeft=4;spacingRight=4;overflow=hidden;rotatable=0;points=[[0,0.5],[1,0.5]];portConstraint=eastwest;whiteSpace=wrap;html=1;" parent="4eYnd1QY1-iDcNU_nL__-9" vertex="1">
          <mxGeometry y="190" width="220" height="26" as="geometry" />
        </mxCell>
        <mxCell id="uZStHUOO7LBE66vD_SXa-61" value="..." style="text;strokeColor=#6c8ebf;fillColor=#7EA6E0;align=center;verticalAlign=top;spacingLeft=4;spacingRight=4;overflow=hidden;rotatable=0;points=[[0,0.5],[1,0.5]];portConstraint=eastwest;whiteSpace=wrap;html=1;fontStyle=1" parent="4eYnd1QY1-iDcNU_nL__-9" vertex="1">
          <mxGeometry y="216" width="220" height="26" as="geometry" />
        </mxCell>
        <mxCell id="uZStHUOO7LBE66vD_SXa-47" style="rounded=0;orthogonalLoop=1;jettySize=auto;html=1;entryX=0.5;entryY=1;entryDx=0;entryDy=0;endArrow=block;endFill=0;strokeWidth=2;exitX=0.5;exitY=0;exitDx=0;exitDy=0;strokeColor=default;align=center;verticalAlign=middle;fontFamily=Helvetica;fontSize=11;fontColor=default;labelBackgroundColor=default;endSize=16;" parent="1" source="4eYnd1QY1-iDcNU_nL__-16" target="4eYnd1QY1-iDcNU_nL__-1" edge="1">
          <mxGeometry relative="1" as="geometry">
            <mxPoint x="350" y="403" as="sourcePoint" />
          </mxGeometry>
        </mxCell>
        <mxCell id="4eYnd1QY1-iDcNU_nL__-16" value="Kubernetes Blueprint" style="swimlane;fontStyle=1;align=center;verticalAlign=top;childLayout=stackLayout;horizontal=1;startSize=26;horizontalStack=0;resizeParent=1;resizeParentMax=0;resizeLast=0;collapsible=1;marginBottom=0;whiteSpace=wrap;html=1;fillColor=#f8cecc;strokeColor=none;strokeWidth=3;" parent="1" vertex="1">
          <mxGeometry x="160" y="400" width="220" height="242" as="geometry" />
        </mxCell>
        <mxCell id="4eYnd1QY1-iDcNU_nL__-18" value="+ state: &amp;lt;K8S_State&amp;gt;" style="text;strokeColor=#d6b656;fillColor=#fff2cc;align=left;verticalAlign=top;spacingLeft=4;spacingRight=4;overflow=hidden;rotatable=0;points=[[0,0.5],[1,0.5]];portConstraint=eastwest;whiteSpace=wrap;html=1;" parent="4eYnd1QY1-iDcNU_nL__-16" vertex="1">
          <mxGeometry y="26" width="220" height="26" as="geometry" />
        </mxCell>
        <mxCell id="P14s5CpWeKmoEXqSBKbY-2" value="+ creation_model: &amp;lt;K8S_cre_model&amp;gt;" style="text;strokeColor=#d6b656;fillColor=#fff2cc;align=left;verticalAlign=top;spacingLeft=4;spacingRight=4;overflow=hidden;rotatable=0;points=[[0,0.5],[1,0.5]];portConstraint=eastwest;whiteSpace=wrap;html=1;" parent="4eYnd1QY1-iDcNU_nL__-16" vertex="1">
          <mxGeometry y="52" width="220" height="26" as="geometry" />
        </mxCell>
        <mxCell id="4eYnd1QY1-iDcNU_nL__-19" value="..." style="text;strokeColor=#d6b656;fillColor=#fff2cc;align=left;verticalAlign=top;spacingLeft=4;spacingRight=4;overflow=hidden;rotatable=0;points=[[0,0.5],[1,0.5]];portConstraint=eastwest;whiteSpace=wrap;html=1;" parent="4eYnd1QY1-iDcNU_nL__-16" vertex="1">
          <mxGeometry y="78" width="220" height="26" as="geometry" />
        </mxCell>
        <mxCell id="4eYnd1QY1-iDcNU_nL__-20" value="" style="line;strokeWidth=3;fillColor=#f5f5f5;align=left;verticalAlign=middle;spacingTop=-1;spacingLeft=3;spacingRight=3;rotatable=0;labelPosition=right;points=[];portConstraint=eastwest;strokeColor=#666666;fontColor=#333333;" parent="4eYnd1QY1-iDcNU_nL__-16" vertex="1">
          <mxGeometry y="104" width="220" height="8" as="geometry" />
        </mxCell>
        <mxCell id="4eYnd1QY1-iDcNU_nL__-21" value="+ create() - &amp;lt;EXTENDS&amp;gt;" style="text;strokeColor=#6c8ebf;fillColor=#7EA6E0;align=left;verticalAlign=top;spacingLeft=4;spacingRight=4;overflow=hidden;rotatable=0;points=[[0,0.5],[1,0.5]];portConstraint=eastwest;whiteSpace=wrap;html=1;" parent="4eYnd1QY1-iDcNU_nL__-16" vertex="1">
          <mxGeometry y="112" width="220" height="26" as="geometry" />
        </mxCell>
        <mxCell id="4eYnd1QY1-iDcNU_nL__-22" value="+ destroy()&amp;nbsp; - &amp;lt;EXTENDS&amp;gt;" style="text;strokeColor=#6c8ebf;fillColor=#7EA6E0;align=left;verticalAlign=top;spacingLeft=4;spacingRight=4;overflow=hidden;rotatable=0;points=[[0,0.5],[1,0.5]];portConstraint=eastwest;whiteSpace=wrap;html=1;" parent="4eYnd1QY1-iDcNU_nL__-16" vertex="1">
          <mxGeometry y="138" width="220" height="26" as="geometry" />
        </mxCell>
        <mxCell id="4eYnd1QY1-iDcNU_nL__-25" value="+ add_node(...)" style="text;strokeColor=#6c8ebf;fillColor=#7EA6E0;align=left;verticalAlign=top;spacingLeft=4;spacingRight=4;overflow=hidden;rotatable=0;points=[[0,0.5],[1,0.5]];portConstraint=eastwest;whiteSpace=wrap;html=1;" parent="4eYnd1QY1-iDcNU_nL__-16" vertex="1">
          <mxGeometry y="164" width="220" height="26" as="geometry" />
        </mxCell>
        <mxCell id="4eYnd1QY1-iDcNU_nL__-27" value="+ install_plugin(...)" style="text;strokeColor=#6c8ebf;fillColor=#7EA6E0;align=left;verticalAlign=top;spacingLeft=4;spacingRight=4;overflow=hidden;rotatable=0;points=[[0,0.5],[1,0.5]];portConstraint=eastwest;whiteSpace=wrap;html=1;" parent="4eYnd1QY1-iDcNU_nL__-16" vertex="1">
          <mxGeometry y="190" width="220" height="26" as="geometry" />
        </mxCell>
        <mxCell id="4eYnd1QY1-iDcNU_nL__-26" value="..." style="text;strokeColor=#6c8ebf;fillColor=#7EA6E0;align=center;verticalAlign=top;spacingLeft=4;spacingRight=4;overflow=hidden;rotatable=0;points=[[0,0.5],[1,0.5]];portConstraint=eastwest;whiteSpace=wrap;html=1;fontStyle=1" parent="4eYnd1QY1-iDcNU_nL__-16" vertex="1">
          <mxGeometry y="216" width="220" height="26" as="geometry" />
        </mxCell>
        <mxCell id="uZStHUOO7LBE66vD_SXa-10" value="OAI Blueprint" style="swimlane;fontStyle=1;align=center;verticalAlign=top;childLayout=stackLayout;horizontal=1;startSize=26;horizontalStack=0;resizeParent=1;resizeParentMax=0;resizeLast=0;collapsible=1;marginBottom=0;whiteSpace=wrap;html=1;fillColor=#e1d5e7;strokeColor=#9673a6;strokeWidth=3;" parent="1" vertex="1">
          <mxGeometry x="170" y="740" width="210" height="214" as="geometry">
            <mxRectangle x="170" y="740" width="110" height="30" as="alternateBounds" />
          </mxGeometry>
        </mxCell>
        <mxCell id="uZStHUOO7LBE66vD_SXa-11" value="+ additonal_state: &amp;lt;OAI_State&amp;gt;" style="text;strokeColor=#d6b656;fillColor=#fff2cc;align=left;verticalAlign=top;spacingLeft=4;spacingRight=4;overflow=hidden;rotatable=0;points=[[0,0.5],[1,0.5]];portConstraint=eastwest;whiteSpace=wrap;html=1;" parent="uZStHUOO7LBE66vD_SXa-10" vertex="1">
          <mxGeometry y="26" width="210" height="26" as="geometry" />
        </mxCell>
        <mxCell id="uZStHUOO7LBE66vD_SXa-13" value="..." style="text;strokeColor=#d6b656;fillColor=#fff2cc;align=left;verticalAlign=top;spacingLeft=4;spacingRight=4;overflow=hidden;rotatable=0;points=[[0,0.5],[1,0.5]];portConstraint=eastwest;whiteSpace=wrap;html=1;" parent="uZStHUOO7LBE66vD_SXa-10" vertex="1">
          <mxGeometry y="52" width="210" height="24" as="geometry" />
        </mxCell>
        <mxCell id="uZStHUOO7LBE66vD_SXa-14" value="" style="line;strokeWidth=3;fillColor=#f5f5f5;align=left;verticalAlign=middle;spacingTop=-1;spacingLeft=3;spacingRight=3;rotatable=0;labelPosition=right;points=[];portConstraint=eastwest;strokeColor=#666666;fontColor=#333333;" parent="uZStHUOO7LBE66vD_SXa-10" vertex="1">
          <mxGeometry y="76" width="210" height="8" as="geometry" />
        </mxCell>
        <mxCell id="uZStHUOO7LBE66vD_SXa-15" value="+ create() - &amp;lt;EXTENDS&amp;gt;" style="text;strokeColor=#6c8ebf;fillColor=#7EA6E0;align=left;verticalAlign=top;spacingLeft=4;spacingRight=4;overflow=hidden;rotatable=0;points=[[0,0.5],[1,0.5]];portConstraint=eastwest;whiteSpace=wrap;html=1;" parent="uZStHUOO7LBE66vD_SXa-10" vertex="1">
          <mxGeometry y="84" width="210" height="26" as="geometry" />
        </mxCell>
        <mxCell id="uZStHUOO7LBE66vD_SXa-16" value="+ destroy()&amp;nbsp; - &amp;lt;EXTENDS&amp;gt;" style="text;strokeColor=#6c8ebf;fillColor=#7EA6E0;align=left;verticalAlign=top;spacingLeft=4;spacingRight=4;overflow=hidden;rotatable=0;points=[[0,0.5],[1,0.5]];portConstraint=eastwest;whiteSpace=wrap;html=1;" parent="uZStHUOO7LBE66vD_SXa-10" vertex="1">
          <mxGeometry y="110" width="210" height="26" as="geometry" />
        </mxCell>
        <mxCell id="uZStHUOO7LBE66vD_SXa-17" value="+ add_ue(...)" style="text;strokeColor=#6c8ebf;fillColor=#7EA6E0;align=left;verticalAlign=top;spacingLeft=4;spacingRight=4;overflow=hidden;rotatable=0;points=[[0,0.5],[1,0.5]];portConstraint=eastwest;whiteSpace=wrap;html=1;" parent="uZStHUOO7LBE66vD_SXa-10" vertex="1">
          <mxGeometry y="136" width="210" height="26" as="geometry" />
        </mxCell>
        <mxCell id="uZStHUOO7LBE66vD_SXa-62" value="+ add_slice(...)&amp;nbsp;" style="text;strokeColor=#6c8ebf;fillColor=#7EA6E0;align=left;verticalAlign=top;spacingLeft=4;spacingRight=4;overflow=hidden;rotatable=0;points=[[0,0.5],[1,0.5]];portConstraint=eastwest;whiteSpace=wrap;html=1;" parent="uZStHUOO7LBE66vD_SXa-10" vertex="1">
          <mxGeometry y="162" width="210" height="26" as="geometry" />
        </mxCell>
        <mxCell id="uZStHUOO7LBE66vD_SXa-65" value="..." style="text;strokeColor=#6c8ebf;fillColor=#7EA6E0;align=center;verticalAlign=top;spacingLeft=4;spacingRight=4;overflow=hidden;rotatable=0;points=[[0,0.5],[1,0.5]];portConstraint=eastwest;whiteSpace=wrap;html=1;fontStyle=1" parent="uZStHUOO7LBE66vD_SXa-10" vertex="1">
          <mxGeometry y="188" width="210" height="26" as="geometry" />
        </mxCell>
        <mxCell id="uZStHUOO7LBE66vD_SXa-18" value="Free5GC Blueprint" style="swimlane;fontStyle=1;align=center;verticalAlign=top;childLayout=stackLayout;horizontal=1;startSize=26;horizontalStack=0;resizeParent=1;resizeParentMax=0;resizeLast=0;collapsible=1;marginBottom=0;whiteSpace=wrap;html=1;fillColor=#e1d5e7;strokeColor=#9673a6;strokeWidth=3;" parent="1" vertex="1">
          <mxGeometry x="440" y="740" width="220" height="216" as="geometry" />
        </mxCell>
        <mxCell id="uZStHUOO7LBE66vD_SXa-19" value="+ additonal_state: &amp;lt;Free5GC_State&amp;gt;" style="text;strokeColor=#d6b656;fillColor=#fff2cc;align=left;verticalAlign=top;spacingLeft=4;spacingRight=4;overflow=hidden;rotatable=0;points=[[0,0.5],[1,0.5]];portConstraint=eastwest;whiteSpace=wrap;html=1;" parent="uZStHUOO7LBE66vD_SXa-18" vertex="1">
          <mxGeometry y="26" width="220" height="26" as="geometry" />
        </mxCell>
        <mxCell id="uZStHUOO7LBE66vD_SXa-21" value="..." style="text;strokeColor=#d6b656;fillColor=#fff2cc;align=left;verticalAlign=top;spacingLeft=4;spacingRight=4;overflow=hidden;rotatable=0;points=[[0,0.5],[1,0.5]];portConstraint=eastwest;whiteSpace=wrap;html=1;" parent="uZStHUOO7LBE66vD_SXa-18" vertex="1">
          <mxGeometry y="52" width="220" height="26" as="geometry" />
        </mxCell>
        <mxCell id="uZStHUOO7LBE66vD_SXa-22" value="" style="line;strokeWidth=3;fillColor=#f5f5f5;align=left;verticalAlign=middle;spacingTop=-1;spacingLeft=3;spacingRight=3;rotatable=0;labelPosition=right;points=[];portConstraint=eastwest;strokeColor=#666666;fontColor=#333333;" parent="uZStHUOO7LBE66vD_SXa-18" vertex="1">
          <mxGeometry y="78" width="220" height="8" as="geometry" />
        </mxCell>
        <mxCell id="uZStHUOO7LBE66vD_SXa-23" value="+ create() - &amp;lt;EXTENDS&amp;gt;" style="text;strokeColor=#6c8ebf;fillColor=#7EA6E0;align=left;verticalAlign=top;spacingLeft=4;spacingRight=4;overflow=hidden;rotatable=0;points=[[0,0.5],[1,0.5]];portConstraint=eastwest;whiteSpace=wrap;html=1;" parent="uZStHUOO7LBE66vD_SXa-18" vertex="1">
          <mxGeometry y="86" width="220" height="26" as="geometry" />
        </mxCell>
        <mxCell id="uZStHUOO7LBE66vD_SXa-24" value="+ destroy()&amp;nbsp; - &amp;lt;EXTENDS&amp;gt;" style="text;strokeColor=#6c8ebf;fillColor=#7EA6E0;align=left;verticalAlign=top;spacingLeft=4;spacingRight=4;overflow=hidden;rotatable=0;points=[[0,0.5],[1,0.5]];portConstraint=eastwest;whiteSpace=wrap;html=1;" parent="uZStHUOO7LBE66vD_SXa-18" vertex="1">
          <mxGeometry y="112" width="220" height="26" as="geometry" />
        </mxCell>
        <mxCell id="uZStHUOO7LBE66vD_SXa-58" value="+ add_ue(...)" style="text;strokeColor=#6c8ebf;fillColor=#7EA6E0;align=left;verticalAlign=top;spacingLeft=4;spacingRight=4;overflow=hidden;rotatable=0;points=[[0,0.5],[1,0.5]];portConstraint=eastwest;whiteSpace=wrap;html=1;" parent="uZStHUOO7LBE66vD_SXa-18" vertex="1">
          <mxGeometry y="138" width="220" height="26" as="geometry" />
        </mxCell>
        <mxCell id="uZStHUOO7LBE66vD_SXa-63" value="+ add_slice(...)" style="text;strokeColor=#6c8ebf;fillColor=#7EA6E0;align=left;verticalAlign=top;spacingLeft=4;spacingRight=4;overflow=hidden;rotatable=0;points=[[0,0.5],[1,0.5]];portConstraint=eastwest;whiteSpace=wrap;html=1;" parent="uZStHUOO7LBE66vD_SXa-18" vertex="1">
          <mxGeometry y="164" width="220" height="26" as="geometry" />
        </mxCell>
        <mxCell id="uZStHUOO7LBE66vD_SXa-66" value="..." style="text;strokeColor=#6c8ebf;fillColor=#7EA6E0;align=center;verticalAlign=top;spacingLeft=4;spacingRight=4;overflow=hidden;rotatable=0;points=[[0,0.5],[1,0.5]];portConstraint=eastwest;whiteSpace=wrap;html=1;fontStyle=1" parent="uZStHUOO7LBE66vD_SXa-18" vertex="1">
          <mxGeometry y="190" width="220" height="26" as="geometry" />
        </mxCell>
        <mxCell id="uZStHUOO7LBE66vD_SXa-29" value="SD-CORE Blueprint" style="swimlane;fontStyle=1;align=center;verticalAlign=top;childLayout=stackLayout;horizontal=1;startSize=26;horizontalStack=0;resizeParent=1;resizeParentMax=0;resizeLast=0;collapsible=1;marginBottom=0;whiteSpace=wrap;html=1;fillColor=#e1d5e7;strokeColor=#9673a6;strokeWidth=3;" parent="1" vertex="1">
          <mxGeometry x="690" y="740" width="220" height="216" as="geometry" />
        </mxCell>
        <mxCell id="uZStHUOO7LBE66vD_SXa-30" value="+ additonal_state: &amp;lt;SdCore_State&amp;gt;" style="text;strokeColor=#d6b656;fillColor=#fff2cc;align=left;verticalAlign=top;spacingLeft=4;spacingRight=4;overflow=hidden;rotatable=0;points=[[0,0.5],[1,0.5]];portConstraint=eastwest;whiteSpace=wrap;html=1;" parent="uZStHUOO7LBE66vD_SXa-29" vertex="1">
          <mxGeometry y="26" width="220" height="26" as="geometry" />
        </mxCell>
        <mxCell id="uZStHUOO7LBE66vD_SXa-32" value="..." style="text;strokeColor=#d6b656;fillColor=#fff2cc;align=left;verticalAlign=top;spacingLeft=4;spacingRight=4;overflow=hidden;rotatable=0;points=[[0,0.5],[1,0.5]];portConstraint=eastwest;whiteSpace=wrap;html=1;" parent="uZStHUOO7LBE66vD_SXa-29" vertex="1">
          <mxGeometry y="52" width="220" height="26" as="geometry" />
        </mxCell>
        <mxCell id="uZStHUOO7LBE66vD_SXa-33" value="" style="line;strokeWidth=3;fillColor=#f5f5f5;align=left;verticalAlign=middle;spacingTop=-1;spacingLeft=3;spacingRight=3;rotatable=0;labelPosition=right;points=[];portConstraint=eastwest;strokeColor=#666666;fontColor=#333333;" parent="uZStHUOO7LBE66vD_SXa-29" vertex="1">
          <mxGeometry y="78" width="220" height="8" as="geometry" />
        </mxCell>
        <mxCell id="uZStHUOO7LBE66vD_SXa-34" value="+ create() - &amp;lt;EXTENDS&amp;gt;" style="text;strokeColor=#6c8ebf;fillColor=#7EA6E0;align=left;verticalAlign=top;spacingLeft=4;spacingRight=4;overflow=hidden;rotatable=0;points=[[0,0.5],[1,0.5]];portConstraint=eastwest;whiteSpace=wrap;html=1;" parent="uZStHUOO7LBE66vD_SXa-29" vertex="1">
          <mxGeometry y="86" width="220" height="26" as="geometry" />
        </mxCell>
        <mxCell id="uZStHUOO7LBE66vD_SXa-35" value="+ destroy()&amp;nbsp; - &amp;lt;EXTENDS&amp;gt;" style="text;strokeColor=#6c8ebf;fillColor=#7EA6E0;align=left;verticalAlign=top;spacingLeft=4;spacingRight=4;overflow=hidden;rotatable=0;points=[[0,0.5],[1,0.5]];portConstraint=eastwest;whiteSpace=wrap;html=1;" parent="uZStHUOO7LBE66vD_SXa-29" vertex="1">
          <mxGeometry y="112" width="220" height="26" as="geometry" />
        </mxCell>
        <mxCell id="uZStHUOO7LBE66vD_SXa-59" value="+ add_ue(...)" style="text;strokeColor=#6c8ebf;fillColor=#7EA6E0;align=left;verticalAlign=top;spacingLeft=4;spacingRight=4;overflow=hidden;rotatable=0;points=[[0,0.5],[1,0.5]];portConstraint=eastwest;whiteSpace=wrap;html=1;" parent="uZStHUOO7LBE66vD_SXa-29" vertex="1">
          <mxGeometry y="138" width="220" height="26" as="geometry" />
        </mxCell>
        <mxCell id="uZStHUOO7LBE66vD_SXa-64" value="+ add_slice(...)&amp;nbsp;" style="text;strokeColor=#6c8ebf;fillColor=#7EA6E0;align=left;verticalAlign=top;spacingLeft=4;spacingRight=4;overflow=hidden;rotatable=0;points=[[0,0.5],[1,0.5]];portConstraint=eastwest;whiteSpace=wrap;html=1;" parent="uZStHUOO7LBE66vD_SXa-29" vertex="1">
          <mxGeometry y="164" width="220" height="26" as="geometry" />
        </mxCell>
        <mxCell id="uZStHUOO7LBE66vD_SXa-67" value="..." style="text;strokeColor=#6c8ebf;fillColor=#7EA6E0;align=center;verticalAlign=top;spacingLeft=4;spacingRight=4;overflow=hidden;rotatable=0;points=[[0,0.5],[1,0.5]];portConstraint=eastwest;whiteSpace=wrap;html=1;fontStyle=1" parent="uZStHUOO7LBE66vD_SXa-29" vertex="1">
          <mxGeometry y="190" width="220" height="26" as="geometry" />
        </mxCell>
        <mxCell id="uZStHUOO7LBE66vD_SXa-43" value="Extends" style="endArrow=block;endSize=16;endFill=0;html=1;rounded=0;exitX=0.5;exitY=0;exitDx=0;exitDy=0;entryX=0.5;entryY=1;entryDx=0;entryDy=0;strokeWidth=2;" parent="1" source="uZStHUOO7LBE66vD_SXa-10" target="4eYnd1QY1-iDcNU_nL__-9" edge="1">
          <mxGeometry width="160" relative="1" as="geometry">
            <mxPoint x="160" y="420" as="sourcePoint" />
            <mxPoint x="500" y="610" as="targetPoint" />
          </mxGeometry>
        </mxCell>
        <mxCell id="uZStHUOO7LBE66vD_SXa-44" value="Extends" style="endArrow=block;endSize=16;endFill=0;html=1;rounded=0;exitX=0.5;exitY=0;exitDx=0;exitDy=0;strokeWidth=2;" parent="1" source="uZStHUOO7LBE66vD_SXa-18" edge="1">
          <mxGeometry width="160" relative="1" as="geometry">
            <mxPoint x="290" y="750" as="sourcePoint" />
            <mxPoint x="550" y="650" as="targetPoint" />
          </mxGeometry>
        </mxCell>
        <mxCell id="uZStHUOO7LBE66vD_SXa-45" value="Extends" style="endArrow=block;endSize=16;endFill=0;html=1;rounded=0;exitX=0.5;exitY=0;exitDx=0;exitDy=0;entryX=0.5;entryY=1;entryDx=0;entryDy=0;strokeWidth=2;" parent="1" source="uZStHUOO7LBE66vD_SXa-29" target="4eYnd1QY1-iDcNU_nL__-9" edge="1">
          <mxGeometry width="160" relative="1" as="geometry">
            <mxPoint x="630" y="750" as="sourcePoint" />
            <mxPoint x="390" y="600" as="targetPoint" />
          </mxGeometry>
        </mxCell>
        <mxCell id="uZStHUOO7LBE66vD_SXa-48" value="&lt;span style=&quot;color: rgb(0, 0, 0); font-family: Helvetica; font-size: 11px; font-style: normal; font-variant-ligatures: normal; font-variant-caps: normal; font-weight: 400; letter-spacing: normal; orphans: 2; text-align: center; text-indent: 0px; text-transform: none; widows: 2; word-spacing: 0px; -webkit-text-stroke-width: 0px; white-space: nowrap; background-color: rgb(255, 255, 255); text-decoration-thickness: initial; text-decoration-style: initial; text-decoration-color: initial; display: inline !important; float: none;&quot;&gt;Extends&lt;/span&gt;" style="text;whiteSpace=wrap;html=1;" parent="1" vertex="1">
          <mxGeometry x="340" y="350" width="70" height="40" as="geometry" />
        </mxCell>
        <mxCell id="uZStHUOO7LBE66vD_SXa-49" value="&lt;span style=&quot;color: rgb(0, 0, 0); font-family: Helvetica; font-size: 11px; font-style: normal; font-variant-ligatures: normal; font-variant-caps: normal; font-weight: 400; letter-spacing: normal; orphans: 2; text-align: center; text-indent: 0px; text-transform: none; widows: 2; word-spacing: 0px; -webkit-text-stroke-width: 0px; white-space: nowrap; background-color: rgb(255, 255, 255); text-decoration-thickness: initial; text-decoration-style: initial; text-decoration-color: initial; display: inline !important; float: none;&quot;&gt;Extends&lt;/span&gt;" style="text;whiteSpace=wrap;html=1;" parent="1" vertex="1">
          <mxGeometry x="550" y="360" width="70" height="40" as="geometry" />
        </mxCell>
      </root>
    </mxGraphModel>
  </diagram>
  <diagram id="Wcc3pJ0rkNI-1yN4Mq08" name="State-Evolution">
    <mxGraphModel dx="1185" dy="683" grid="1" gridSize="10" guides="1" tooltips="1" connect="1" arrows="1" fold="1" page="1" pageScale="1" pageWidth="1169" pageHeight="827" math="0" shadow="0">
      <root>
        <mxCell id="0" />
        <mxCell id="1" parent="0" />
        <mxCell id="IocOQuMnn8dpJ_xJepDY-1" value="Blue instance A" style="rounded=1;whiteSpace=wrap;html=1;horizontal=1;verticalAlign=top;" vertex="1" parent="1">
          <mxGeometry x="260" y="190" width="120" height="60" as="geometry" />
        </mxCell>
        <mxCell id="IocOQuMnn8dpJ_xJepDY-2" value="" style="shape=flexArrow;endArrow=classic;html=1;rounded=0;endWidth=92;endSize=16.33;width=56;fillColor=#dae8fc;strokeColor=#6c8ebf;" edge="1" parent="1">
          <mxGeometry width="50" height="50" relative="1" as="geometry">
            <mxPoint x="130" y="270" as="sourcePoint" />
            <mxPoint x="250" y="270" as="targetPoint" />
          </mxGeometry>
        </mxCell>
        <mxCell id="IocOQuMnn8dpJ_xJepDY-3" value="&lt;b&gt;Initial Request&lt;/b&gt;&lt;div&gt;&lt;b&gt;for two identical&lt;/b&gt;&lt;/div&gt;&lt;div&gt;&lt;b&gt;Blueprints instance&lt;/b&gt;&lt;/div&gt;" style="edgeLabel;html=1;align=center;verticalAlign=middle;resizable=0;points=[];labelBackgroundColor=none;" vertex="1" connectable="0" parent="IocOQuMnn8dpJ_xJepDY-2">
          <mxGeometry x="-0.1333" y="11" relative="1" as="geometry">
            <mxPoint y="11" as="offset" />
          </mxGeometry>
        </mxCell>
        <mxCell id="IocOQuMnn8dpJ_xJepDY-5" value="" style="endArrow=classic;html=1;rounded=0;strokeWidth=3;dashed=1;dashPattern=1 2;" edge="1" parent="1">
          <mxGeometry width="50" height="50" relative="1" as="geometry">
            <mxPoint x="140" y="410" as="sourcePoint" />
            <mxPoint x="810" y="410" as="targetPoint" />
          </mxGeometry>
        </mxCell>
        <mxCell id="IocOQuMnn8dpJ_xJepDY-6" value="&lt;b&gt;&lt;font style=&quot;font-size: 18px;&quot;&gt;TIME&lt;/font&gt;&lt;/b&gt;" style="edgeLabel;html=1;align=center;verticalAlign=middle;resizable=0;points=[];" vertex="1" connectable="0" parent="IocOQuMnn8dpJ_xJepDY-5">
          <mxGeometry x="0.4614" y="1" relative="1" as="geometry">
            <mxPoint x="-213" y="21" as="offset" />
          </mxGeometry>
        </mxCell>
        <mxCell id="IocOQuMnn8dpJ_xJepDY-7" value="Day 2" style="html=1;shadow=0;dashed=0;align=center;verticalAlign=middle;shape=mxgraph.arrows2.arrow;dy=0.6;dx=40;direction=south;notch=0;fillColor=#fa6800;fontColor=#000000;strokeColor=#C73500;" vertex="1" parent="1">
          <mxGeometry x="275" y="130" width="90" height="60" as="geometry" />
        </mxCell>
        <mxCell id="IocOQuMnn8dpJ_xJepDY-8" value="&lt;b&gt;&lt;font style=&quot;font-size: 35px;&quot;&gt;=&lt;/font&gt;&lt;/b&gt;" style="text;html=1;align=center;verticalAlign=middle;whiteSpace=wrap;rounded=0;rotation=90;" vertex="1" parent="1">
          <mxGeometry x="290" y="250" width="60" height="30" as="geometry" />
        </mxCell>
        <mxCell id="IocOQuMnn8dpJ_xJepDY-9" value="" style="shape=flexArrow;endArrow=classic;html=1;rounded=0;endWidth=63.42857142857143;endSize=12.114285714285714;width=56;fillColor=#dae8fc;strokeColor=#6c8ebf;" edge="1" parent="1">
          <mxGeometry width="50" height="50" relative="1" as="geometry">
            <mxPoint x="390" y="264.71" as="sourcePoint" />
            <mxPoint x="460" y="265" as="targetPoint" />
          </mxGeometry>
        </mxCell>
        <mxCell id="IocOQuMnn8dpJ_xJepDY-10" value="Processing" style="edgeLabel;html=1;align=center;verticalAlign=middle;resizable=0;points=[];labelBackgroundColor=none;fontStyle=1" vertex="1" connectable="0" parent="IocOQuMnn8dpJ_xJepDY-9">
          <mxGeometry x="-0.1333" y="11" relative="1" as="geometry">
            <mxPoint y="11" as="offset" />
          </mxGeometry>
        </mxCell>
        <mxCell id="IocOQuMnn8dpJ_xJepDY-14" value="Day 2" style="html=1;shadow=0;dashed=0;align=center;verticalAlign=middle;shape=mxgraph.arrows2.arrow;dy=0.6;dx=40;direction=north;notch=0;fillColor=#fa6800;fontColor=#000000;strokeColor=#C73500;" vertex="1" parent="1">
          <mxGeometry x="482.5" y="340" width="95" height="60" as="geometry" />
        </mxCell>
        <mxCell id="IocOQuMnn8dpJ_xJepDY-17" value="Day 2" style="html=1;shadow=0;dashed=0;align=center;verticalAlign=middle;shape=mxgraph.arrows2.arrow;dy=0.6;dx=40;direction=south;notch=0;fillColor=#fa6800;fontColor=#000000;strokeColor=#C73500;" vertex="1" parent="1">
          <mxGeometry x="485" y="130" width="90" height="60" as="geometry" />
        </mxCell>
        <mxCell id="IocOQuMnn8dpJ_xJepDY-18" value="" style="shape=flexArrow;endArrow=classic;html=1;rounded=0;endWidth=63.42857142857143;endSize=12.114285714285714;width=56;fillColor=#dae8fc;strokeColor=#6c8ebf;" edge="1" parent="1">
          <mxGeometry width="50" height="50" relative="1" as="geometry">
            <mxPoint x="610" y="264.71" as="sourcePoint" />
            <mxPoint x="680" y="265" as="targetPoint" />
          </mxGeometry>
        </mxCell>
        <mxCell id="IocOQuMnn8dpJ_xJepDY-19" value="Processing" style="edgeLabel;html=1;align=center;verticalAlign=middle;resizable=0;points=[];labelBackgroundColor=none;fontStyle=1" vertex="1" connectable="0" parent="IocOQuMnn8dpJ_xJepDY-18">
          <mxGeometry x="-0.1333" y="11" relative="1" as="geometry">
            <mxPoint y="11" as="offset" />
          </mxGeometry>
        </mxCell>
        <mxCell id="IocOQuMnn8dpJ_xJepDY-20" value="State A(t&lt;sub&gt;0&lt;/sub&gt;)" style="rounded=1;whiteSpace=wrap;html=1;fillColor=#ffe6cc;strokeColor=#d79b00;" vertex="1" parent="1">
          <mxGeometry x="270" y="220" width="60" height="20" as="geometry" />
        </mxCell>
        <mxCell id="IocOQuMnn8dpJ_xJepDY-21" value="Blue instance B" style="rounded=1;whiteSpace=wrap;html=1;horizontal=1;verticalAlign=top;" vertex="1" parent="1">
          <mxGeometry x="260" y="280" width="120" height="60" as="geometry" />
        </mxCell>
        <mxCell id="IocOQuMnn8dpJ_xJepDY-22" value="State B(t&lt;sub&gt;0&lt;/sub&gt;)" style="rounded=1;whiteSpace=wrap;html=1;fillColor=#d5e8d4;strokeColor=#82b366;" vertex="1" parent="1">
          <mxGeometry x="270" y="310" width="60" height="20" as="geometry" />
        </mxCell>
        <mxCell id="IocOQuMnn8dpJ_xJepDY-23" value="Blue instance A" style="rounded=1;whiteSpace=wrap;html=1;horizontal=1;verticalAlign=top;" vertex="1" parent="1">
          <mxGeometry x="470" y="190" width="120" height="60" as="geometry" />
        </mxCell>
        <mxCell id="IocOQuMnn8dpJ_xJepDY-24" value="State A(t&lt;sub&gt;1&lt;/sub&gt;)" style="rounded=1;whiteSpace=wrap;html=1;fillColor=#e1d5e7;strokeColor=#9673a6;" vertex="1" parent="1">
          <mxGeometry x="480" y="220" width="60" height="20" as="geometry" />
        </mxCell>
        <mxCell id="IocOQuMnn8dpJ_xJepDY-25" value="Blue instance B" style="rounded=1;whiteSpace=wrap;html=1;horizontal=1;verticalAlign=top;" vertex="1" parent="1">
          <mxGeometry x="470" y="280" width="120" height="60" as="geometry" />
        </mxCell>
        <mxCell id="IocOQuMnn8dpJ_xJepDY-26" value="State B(t&lt;span style=&quot;font-size: 10px;&quot;&gt;&lt;sub&gt;1&lt;/sub&gt;&lt;/span&gt;)" style="rounded=1;whiteSpace=wrap;html=1;fillColor=#d5e8d4;strokeColor=#82b366;" vertex="1" parent="1">
          <mxGeometry x="480" y="310" width="60" height="20" as="geometry" />
        </mxCell>
        <mxCell id="IocOQuMnn8dpJ_xJepDY-27" value="&lt;b&gt;&lt;font style=&quot;font-size: 35px;&quot;&gt;=&lt;/font&gt;&lt;/b&gt;" style="text;html=1;align=center;verticalAlign=middle;whiteSpace=wrap;rounded=0;rotation=90;" vertex="1" parent="1">
          <mxGeometry x="500" y="250" width="60" height="30" as="geometry" />
        </mxCell>
        <mxCell id="IocOQuMnn8dpJ_xJepDY-28" value="" style="shape=mxgraph.mockup.markup.redX;fillColor=#ff0000;html=1;shadow=0;whiteSpace=wrap;strokeColor=none;" vertex="1" parent="1">
          <mxGeometry x="515" y="252.5" width="30" height="25" as="geometry" />
        </mxCell>
        <mxCell id="IocOQuMnn8dpJ_xJepDY-29" value="Blue instance A" style="rounded=1;whiteSpace=wrap;html=1;horizontal=1;verticalAlign=top;" vertex="1" parent="1">
          <mxGeometry x="690" y="190" width="120" height="60" as="geometry" />
        </mxCell>
        <mxCell id="IocOQuMnn8dpJ_xJepDY-30" value="Blue instance B" style="rounded=1;whiteSpace=wrap;html=1;horizontal=1;verticalAlign=top;" vertex="1" parent="1">
          <mxGeometry x="690" y="280" width="120" height="60" as="geometry" />
        </mxCell>
        <mxCell id="IocOQuMnn8dpJ_xJepDY-31" value="State A(t&lt;span style=&quot;font-size: 10px;&quot;&gt;&lt;sub&gt;2&lt;/sub&gt;&lt;/span&gt;)" style="rounded=1;whiteSpace=wrap;html=1;fillColor=#d80073;strokeColor=#A50040;fontColor=#ffffff;" vertex="1" parent="1">
          <mxGeometry x="700" y="220" width="60" height="20" as="geometry" />
        </mxCell>
        <mxCell id="IocOQuMnn8dpJ_xJepDY-32" value="State B(t&lt;span style=&quot;font-size: 10px;&quot;&gt;&lt;sub&gt;2&lt;/sub&gt;&lt;/span&gt;)" style="rounded=1;whiteSpace=wrap;html=1;fillColor=#60a917;strokeColor=#2D7600;fontColor=#ffffff;" vertex="1" parent="1">
          <mxGeometry x="700" y="310" width="60" height="20" as="geometry" />
        </mxCell>
        <mxCell id="IocOQuMnn8dpJ_xJepDY-33" value="&lt;b&gt;&lt;font style=&quot;font-size: 35px;&quot;&gt;=&lt;/font&gt;&lt;/b&gt;" style="text;html=1;align=center;verticalAlign=middle;whiteSpace=wrap;rounded=0;rotation=90;" vertex="1" parent="1">
          <mxGeometry x="720" y="250" width="60" height="30" as="geometry" />
        </mxCell>
        <mxCell id="IocOQuMnn8dpJ_xJepDY-34" value="" style="shape=mxgraph.mockup.markup.redX;fillColor=#ff0000;html=1;shadow=0;whiteSpace=wrap;strokeColor=none;" vertex="1" parent="1">
          <mxGeometry x="735" y="252.5" width="30" height="25" as="geometry" />
        </mxCell>
      </root>
    </mxGraphModel>
  </diagram>
  <diagram id="p2F6-XNxCf3UbNgZDGr-" name="NS-NE-relationship">
    <mxGraphModel dx="2074" dy="1196" grid="1" gridSize="10" guides="1" tooltips="1" connect="1" arrows="1" fold="1" page="1" pageScale="1" pageWidth="1169" pageHeight="827" math="0" shadow="0">
      <root>
        <mxCell id="0" />
        <mxCell id="1" parent="0" />
        <mxCell id="YfjpAYUrKOWHM5i9J2-L-10" value="Core Network Service" style="ellipse;whiteSpace=wrap;html=1;fillColor=#CDA7F0;strokeColor=#432D57;fontColor=#000000;opacity=60;verticalAlign=bottom;fontStyle=1;spacingBottom=5;" parent="1" vertex="1">
          <mxGeometry x="530" y="290" width="290" height="110" as="geometry" />
        </mxCell>
        <mxCell id="YfjpAYUrKOWHM5i9J2-L-9" value="RAN Network Service" style="ellipse;whiteSpace=wrap;html=1;fillColor=#fa6800;fontColor=#000000;strokeColor=#C73500;opacity=60;verticalAlign=bottom;fontStyle=1;spacingBottom=5;" parent="1" vertex="1">
          <mxGeometry x="310" y="290" width="220" height="110" as="geometry" />
        </mxCell>
        <mxCell id="YfjpAYUrKOWHM5i9J2-L-1" value="VM&lt;div&gt;UPF&lt;/div&gt;&lt;div&gt;&lt;i style=&quot;font-weight: normal;&quot;&gt;VNF&lt;/i&gt;&lt;br&gt;&lt;/div&gt;" style="ellipse;whiteSpace=wrap;html=1;fillColor=#dae8fc;strokeColor=#6c8ebf;fontStyle=1" parent="1" vertex="1">
          <mxGeometry x="550" y="320" width="45" height="46" as="geometry" />
        </mxCell>
        <mxCell id="YfjpAYUrKOWHM5i9J2-L-3" value="VM&lt;div&gt;gNB&lt;/div&gt;&lt;div&gt;&lt;i style=&quot;font-weight: normal;&quot;&gt;VNF&lt;/i&gt;&lt;br&gt;&lt;/div&gt;" style="ellipse;whiteSpace=wrap;html=1;fillColor=#dae8fc;strokeColor=#6c8ebf;fontStyle=1" parent="1" vertex="1">
          <mxGeometry x="470" y="320" width="50" height="46" as="geometry" />
        </mxCell>
        <mxCell id="YfjpAYUrKOWHM5i9J2-L-4" value="&lt;div&gt;5G Core&lt;/div&gt;&lt;div&gt;Deployment&lt;/div&gt;&lt;div&gt;&lt;i style=&quot;font-weight: normal;&quot;&gt;KNF&lt;/i&gt;&lt;br&gt;&lt;/div&gt;" style="shape=hexagon;perimeter=hexagonPerimeter2;whiteSpace=wrap;html=1;fixedSize=1;fillColor=#dae8fc;strokeColor=#6c8ebf;fontStyle=1" parent="1" vertex="1">
          <mxGeometry x="600" y="320" width="100" height="43" as="geometry" />
        </mxCell>
        <mxCell id="YfjpAYUrKOWHM5i9J2-L-5" value="&lt;font style=&quot;font-size: 10px;&quot;&gt;Radio&amp;nbsp;&lt;/font&gt;&lt;div style=&quot;font-size: 10px;&quot;&gt;&lt;font style=&quot;font-size: 10px;&quot;&gt;Unit&lt;/font&gt;&lt;/div&gt;&lt;div style=&quot;font-size: 10px;&quot;&gt;&lt;font style=&quot;font-size: 10px;&quot;&gt;Configured&lt;/font&gt;&lt;/div&gt;" style="shape=offPageConnector;whiteSpace=wrap;html=1;direction=west;fontSize=10;fillColor=#dae8fc;strokeColor=#6c8ebf;fontStyle=1" parent="1" vertex="1">
          <mxGeometry x="330" y="313" width="60" height="50" as="geometry" />
        </mxCell>
        <mxCell id="YfjpAYUrKOWHM5i9J2-L-6" value="&lt;div&gt;5G Core&lt;/div&gt;&lt;div&gt;Deployment&lt;/div&gt;&lt;div&gt;&lt;i style=&quot;font-weight: normal;&quot;&gt;KNF&lt;/i&gt;&lt;/div&gt;" style="shape=hexagon;perimeter=hexagonPerimeter2;whiteSpace=wrap;html=1;fixedSize=1;fillColor=#dae8fc;strokeColor=#6c8ebf;fontStyle=1" parent="1" vertex="1">
          <mxGeometry x="710" y="320" width="100" height="43" as="geometry" />
        </mxCell>
        <mxCell id="YfjpAYUrKOWHM5i9J2-L-7" value="VM&lt;div&gt;Router&lt;/div&gt;&lt;div&gt;&lt;i style=&quot;font-weight: normal;&quot;&gt;VNF&lt;/i&gt;&lt;br&gt;&lt;/div&gt;" style="ellipse;whiteSpace=wrap;html=1;fillColor=#dae8fc;strokeColor=#6c8ebf;fontStyle=1" parent="1" vertex="1">
          <mxGeometry x="400" y="316.5" width="60" height="50" as="geometry" />
        </mxCell>
      </root>
    </mxGraphModel>
  </diagram>
  <diagram id="rywkMaLkwMrHouiVppRv" name="Blueprints-building-blocks">
    <mxGraphModel dx="988" dy="570" grid="1" gridSize="10" guides="1" tooltips="1" connect="1" arrows="1" fold="1" page="1" pageScale="1" pageWidth="1169" pageHeight="827" math="0" shadow="0">
      <root>
        <mxCell id="0" />
        <mxCell id="1" parent="0" />
        <mxCell id="C4xjak6YwV4_q5vs53ac-6" value="" style="verticalLabelPosition=bottom;verticalAlign=top;html=1;shape=mxgraph.basic.patternFillRect;fillStyle=diagGrid;step=5;fillStrokeWidth=0.2;fillStrokeColor=#dddddd;fillColor=#fff2cc;strokeColor=#d6b656;" parent="1" vertex="1">
          <mxGeometry x="170" y="150" width="550" height="225" as="geometry" />
        </mxCell>
        <mxCell id="C4xjak6YwV4_q5vs53ac-1" value="&lt;b&gt;DNS Blueprint&lt;/b&gt;&lt;div&gt;&lt;i&gt;&lt;font style=&quot;font-size: 10px;&quot;&gt;Deploy 1 or more DNS servers configured as the request require&lt;/font&gt;&lt;/i&gt;&lt;/div&gt;" style="rounded=1;whiteSpace=wrap;html=1;spacingRight=2;spacingLeft=2;" parent="1" vertex="1">
          <mxGeometry x="190" y="227.5" width="140" height="70" as="geometry" />
        </mxCell>
        <mxCell id="C4xjak6YwV4_q5vs53ac-4" value="&lt;b&gt;PyEnv Blueprint&lt;/b&gt;&lt;div&gt;&lt;i&gt;&lt;font style=&quot;font-size: 10px;&quot;&gt;Deploy an environment dedicated for a Python APP&lt;/font&gt;&lt;/i&gt;&lt;/div&gt;" style="rounded=1;whiteSpace=wrap;html=1;spacingRight=2;spacingLeft=2;" parent="1" vertex="1">
          <mxGeometry x="340" y="227.5" width="140" height="70" as="geometry" />
        </mxCell>
        <mxCell id="C4xjak6YwV4_q5vs53ac-5" value="&lt;b&gt;5G Blueprint&lt;/b&gt;&lt;div&gt;&lt;i&gt;&lt;font style=&quot;font-size: 10px;&quot;&gt;Deploy a 5GC using Open Air Interface Core and UERANSIM RAN (from user request)&lt;/font&gt;&lt;/i&gt;&lt;/div&gt;" style="rounded=1;whiteSpace=wrap;html=1;spacingRight=2;spacingLeft=2;verticalAlign=top;fillColor=#EA6B66;strokeColor=#b46504;fillStyle=auto;glass=0;shadow=0;gradientColor=none;" parent="1" vertex="1">
          <mxGeometry x="495" y="227.5" width="205" height="132.5" as="geometry" />
        </mxCell>
        <mxCell id="C4xjak6YwV4_q5vs53ac-7" value="5G Custom App Blueprint" style="text;strokeColor=none;fillColor=none;html=1;fontSize=24;fontStyle=1;verticalAlign=middle;align=center;" parent="1" vertex="1">
          <mxGeometry x="395" y="160" width="100" height="40" as="geometry" />
        </mxCell>
        <mxCell id="u-WOxrua0QkyZc-kGu1N-1" value="&lt;div&gt;&lt;b&gt;AOI Core&lt;/b&gt;&lt;/div&gt;&lt;div&gt;&lt;i style=&quot;&quot;&gt;Blueprint&lt;/i&gt;&lt;/div&gt;" style="rounded=1;whiteSpace=wrap;html=1;spacingRight=2;spacingLeft=2;" vertex="1" parent="1">
          <mxGeometry x="510" y="280" width="90" height="70" as="geometry" />
        </mxCell>
        <mxCell id="u-WOxrua0QkyZc-kGu1N-3" value="&lt;b&gt;UeRANSIM&lt;/b&gt;&lt;div&gt;&lt;i&gt;Blueprint&lt;/i&gt;&lt;/div&gt;" style="rounded=1;whiteSpace=wrap;html=1;spacingRight=2;spacingLeft=2;" vertex="1" parent="1">
          <mxGeometry x="600" y="280" width="90" height="70" as="geometry" />
        </mxCell>
      </root>
    </mxGraphModel>
  </diagram>
</mxfile>
